<?xml version="1.0" standalone="no"?>
<!DOCTYPE svg PUBLIC "-//W3C//DTD SVG 1.1//EN" "http://www.w3.org/Graphics/SVG/1.1/DTD/svg11.dtd" >
<svg xmlns="http://www.w3.org/2000/svg">
<metadata></metadata>
<defs>
<font id="kg_piece_by_pieceregular" horiz-adv-x="1200" >
<font-face units-per-em="2048" ascent="1638" descent="-410" />
<missing-glyph horiz-adv-x="454" />
<glyph horiz-adv-x="0" />
<glyph unicode="&#xd;" horiz-adv-x="454" />
<glyph horiz-adv-x="0" />
<glyph horiz-adv-x="0" />
<glyph unicode=" "  horiz-adv-x="454" />
<glyph unicode="&#x09;" horiz-adv-x="454" />
<glyph unicode="&#xa0;" horiz-adv-x="454" />
<glyph unicode="!" horiz-adv-x="270" d="M57 51q-5 33 9 63t42 45t62 -5q30 -18 36 -50t-5 -61t-39 -43t-68 4q-32 14 -37 47zM58 372q4 78 6 189t3 235t1 253t-1 244t-2 208t-3 145q0 18 20 32t46 17t46 -8t20 -43q-2 -98 -2 -238t1 -307t1 -354t-2 -379q0 -18 -22 -30t-47 -14t-46 10t-19 40z" />
<glyph unicode="&#x22;" horiz-adv-x="542" d="M107 935q-7 21 11 45q20 26 34 58t17 68t-8 77t-43 83q-10 12 -2 29t25 28t40 9t45 -26q24 -26 36 -71t11 -98t-14 -106t-39 -97q-18 -30 -43 -35t-44 5t-26 31zM301 947q-7 21 11 45q20 26 34 58t17 68t-8 77t-43 83q-10 12 -2 29t25 28t40 9t45 -26q24 -26 36 -71 t11 -98t-14 -106t-39 -97q-18 -30 -43 -35t-44 5t-26 31z" />
<glyph unicode="#" horiz-adv-x="1002" d="M88 971q-4 23 5 44t39 25l162 12q-4 46 -8 85t-8 73q-4 26 14 44t42 22t46 -8t24 -44l4 -166q46 2 91 4t87 6q-4 42 -7 79t-7 67q-4 26 14 44t42 21t46 -9t24 -44q2 -40 3 -76t1 -74q44 4 81 7t69 9q26 4 44 -15t22 -43t-8 -45t-44 -23q-40 -4 -80 -5t-80 -3q2 -40 4 -83 t6 -93q40 4 76 8t66 8q26 4 44 -15t22 -43t-8 -45t-44 -23q-38 -4 -74 -4t-72 -2q4 -40 7 -81t9 -87q2 -18 -16 -32t-41 -17t-44 6t-25 39l-10 166q-40 -2 -82 -5t-92 -7l16 -152q2 -18 -16 -32t-41 -18t-44 5t-25 39l-10 148l-168 -18q-18 -2 -32 16t-18 41t5 44t39 25 q40 4 82 7t86 5l-6 172l-162 -16q-18 -2 -32 16t-18 41zM412 942l10 -178q46 4 91 6t87 4q-2 46 -3 91t-5 89q-40 -4 -84 -6t-96 -6z" />
<glyph unicode="$" horiz-adv-x="1184" d="M83 355q13 23 38 31t51 -2t36 -40q16 -48 46 -80t68 -51t77 -29t73 -14q6 104 9 200t4 188t1 184v188q-64 18 -125 42t-113 59t-91 84t-59 119q-26 82 -3 158t78 137t134 103t167 56v50q0 18 23 30t51 14t50 -10t22 -40q0 -10 -1 -21t-1 -23q22 -2 62 -11t89 -32t103 -65 t104 -112q14 -20 5 -41t-27 -35t-41 -15t-37 21q-18 24 -41 51t-54 51t-72 42t-93 26q-4 -120 -5 -257t-3 -281q8 -4 14 -4q104 -30 192 -61t153 -84t101 -137t40 -218q2 -94 -37 -178t-108 -150t-162 -109t-197 -53v-68q0 -18 -23 -33t-51 -18t-50 9t-20 44q0 18 1 35t3 33 q-134 14 -231 78t-147 178q-16 38 -3 61zM216 1355q-14 -49 8 -99q36 -82 106 -123t156 -69l-10 500q-60 -14 -115 -45t-93 -73t-52 -91zM604 172q82 10 151 41t119 78t78 109t30 134q2 90 -27 150t-80 101t-120 66t-147 47q-2 -192 -3 -377t-1 -349z" />
<glyph unicode="%" horiz-adv-x="680" d="M46 1546q-6 32 5 61t39 43t68 -4q32 -14 37 -47t-9 -63t-42 -46t-62 6q-30 18 -36 50zM64 50q52 194 97 345t85 277t75 235t66 222t61 240t60 285q6 32 30 37t50 -4t45 -29t15 -38q-42 -170 -102 -378t-123 -423t-121 -422t-96 -377q-6 -28 -31 -33t-51 3t-45 25t-15 35z M504 70q-6 32 5 61t39 43t68 -4q32 -14 37 -47t-9 -63t-42 -46t-62 6q-30 18 -36 50z" />
<glyph unicode="&#x26;" horiz-adv-x="1056" d="M60 452q2 78 25 153t60 145t85 134t100 124q58 68 112 142t88 136q24 46 33 96t1 94t-32 73t-64 33q-34 4 -65 -10t-54 -41t-36 -63t-11 -76q2 -72 39 -183t117 -270t207 -372t309 -487q14 -22 8 -43t-22 -35t-36 -15t-34 19q-182 268 -312 482t-214 380t-126 290 t-48 212q-4 82 18 147t62 108t94 63t114 14q72 -8 122 -58t71 -122t10 -154t-63 -154q-46 -62 -99 -141t-113 -153q-40 -50 -80 -107t-72 -118t-53 -125t-23 -128q-2 -58 14 -113t51 -97t87 -68t120 -28q72 -4 135 39t111 137t78 244t38 364q0 32 21 44t45 9t43 -20t17 -45 q-12 -212 -48 -379t-97 -283t-146 -177t-195 -61q-88 0 -161 34t-125 94t-80 141t-26 175z" />
<glyph unicode="'" horiz-adv-x="368" d="M107 935q-7 21 11 45q20 26 34 58t17 68t-8 77t-43 83q-10 12 -2 29t25 28t40 9t45 -26q24 -26 36 -71t11 -98t-14 -106t-39 -97q-18 -30 -43 -35t-44 5t-26 31z" />
<glyph unicode="(" horiz-adv-x="636" d="M44 830q2 60 13 141t32 173t55 190t82 190t113 172t149 138q18 12 40 5t37 -25t18 -39t-15 -35q-122 -96 -194 -218t-113 -245t-57 -234t-26 -185q-12 -80 -7 -175t24 -191t53 -188t81 -169t107 -133t132 -78q28 -10 33 -33t-6 -45t-34 -36t-51 -2q-130 54 -222 157 t-149 240t-80 297t-15 328z" />
<glyph unicode=")" horiz-adv-x="662" d="M65 -109q5 23 33 33q72 22 132 78t107 133t81 169t53 188t23 190t-6 176q-10 74 -26 185t-57 234t-113 245t-194 218q-18 14 -15 35t18 39t37 25t40 -5q84 -58 149 -138t113 -172t82 -190t55 -190t31 -173t14 -141q8 -168 -15 -328t-80 -297t-149 -240t-222 -157 q-28 -12 -51 2t-34 36t-6 45z" />
<glyph unicode="*" horiz-adv-x="978" d="M147 758q1 24 16 43t47 13q56 -10 92 -17t82 -17q-34 52 -65 95t-57 77q-16 22 -9 47t26 40t43 15t42 -26q26 -40 48 -77t46 -77q4 34 6 59t2 61q2 26 24 40t46 13t43 -16t15 -47q-4 -30 -7 -51t-6 -38t-7 -34t-8 -39q60 42 110 79t86 67q20 18 45 11t41 -26t16 -43 t-26 -42q-46 -34 -94 -65t-100 -65q28 -6 61 -12t91 -10q18 -2 29 -23t9 -44t-15 -42t-43 -15q-52 4 -84 13t-68 19q28 -42 62 -89t78 -105q10 -16 1 -37t-27 -36t-40 -17t-40 22q-34 44 -63 90t-61 94l-16 -146q-2 -18 -23 -29t-44 -11t-41 13t-16 43q4 50 11 87t13 77 l-176 -132q-16 -10 -37 -2t-37 26t-18 40t22 40q40 30 82 60t86 58q-40 6 -73 10t-69 8q-26 2 -39 24t-12 46z" />
<glyph unicode="+" horiz-adv-x="988" d="M90 651q-4 23 5 44t39 25q72 6 149 10t153 8q-4 84 -7 155t-11 123q-4 26 15 44t43 21t45 -9t23 -44q2 -70 2 -137t4 -145q90 4 168 10t136 16q26 4 44 -15t22 -43t-8 -45t-44 -23q-76 -4 -150 -7t-164 -7q4 -68 10 -149t16 -183q2 -18 -17 -32t-42 -18t-44 6t-23 40 q-6 76 -9 160t-5 168q-64 -6 -137 -13t-163 -17q-18 -2 -32 16t-18 41z" />
<glyph unicode="," horiz-adv-x="338" d="M53 -151q-1 21 19 41q24 24 42 46t25 52t3 74t-26 112q-10 30 3 52t32 29t40 -6t31 -51q18 -78 19 -137t-10 -102t-30 -74t-43 -55t-49 -25t-40 11t-16 33z" />
<glyph unicode="-" horiz-adv-x="728" d="M90 654q-4 24 5 45t39 21q144 4 258 17t234 31q26 4 44 -15t22 -43t-8 -45t-44 -23q-74 -6 -114 -8t-63 -4t-41 -4t-49 -5t-84 -10t-149 -17q-18 -2 -32 17t-18 43z" />
<glyph unicode="." horiz-adv-x="362" d="M98 48q-6 32 5 61t39 43t68 -4q32 -14 37 -47t-9 -63t-42 -46t-62 6q-30 18 -36 50z" />
<glyph unicode="/" horiz-adv-x="652" d="M36 50q52 194 97 345t85 277t75 235t66 222t61 240t60 285q6 32 30 37t50 -4t45 -29t15 -38q-42 -170 -102 -378t-123 -423t-121 -422t-96 -377q-6 -28 -31 -33t-51 3t-45 25t-15 35z" />
<glyph unicode="0" horiz-adv-x="1000" d="M34 850q2 74 14 156t35 163t55 159t78 148q54 86 116 135t125 67t127 9t122 -35q92 -44 151 -140t89 -222t34 -271t-12 -285t-49 -264t-77 -210q-70 -142 -164 -199t-190 -59q-126 -2 -216 67t-145 187t-78 272t-15 322zM170 850q-10 -122 5 -251t54 -233t105 -168 t160 -54q74 8 138 57t110 145q24 52 49 150t40 219t17 250t-17 244t-63 202t-122 121q-76 34 -158 9t-160 -141q-70 -104 -110 -245t-48 -305z" />
<glyph unicode="1" horiz-adv-x="434" d="M38 1559q0 25 24 41l158 72q54 34 97 14t47 -88q8 -172 7 -374t-4 -409t-7 -407t-4 -368q0 -18 -22 -33t-49 -18t-48 9t-19 44q8 150 14 272t9 232t3 215t-1 221t-4 250t-7 302l-112 -58q-16 -10 -36 2t-33 34t-13 47z" />
<glyph unicode="2" horiz-adv-x="970" d="M38 100q4 28 30 58q46 54 128 140t174 197t180 243t146 282q28 72 42 140t14 130t-13 112t-39 86q-36 48 -93 71t-127 16t-148 -45t-156 -112q-30 -30 -60 -32t-46 15t-14 46t34 63q86 90 186 138t196 55t182 -25t146 -102q76 -90 92 -237t-60 -351q-14 -46 -49 -114 t-84 -146t-110 -162t-124 -163t-126 -149t-117 -118l660 14q26 0 43 -20t19 -45t-11 -47t-45 -24q-72 -4 -162 -4t-191 1t-209 0t-216 -5q-18 0 -37 12t-29 33t-6 49z" />
<glyph unicode="3" horiz-adv-x="982" d="M46 64q-4 26 2 48t24 22q88 -4 191 22t199 74t175 117t119 151q72 148 60 238t-80 128t-174 29t-220 -57q-22 -10 -39 10t-25 50t-3 61t27 47q18 12 59 44t90 75t100 94t90 102t58 96t5 79q-30 70 -102 77t-159 -25t-173 -88t-146 -112q-16 -16 -33 -5t-28 32t-13 46 t14 39q60 58 134 105t153 78t157 44t145 2t117 -49t74 -106q18 -56 -11 -128t-83 -146t-122 -140t-128 -110q114 24 196 10t137 -54t82 -102t32 -133t-13 -145t-54 -140q-40 -72 -111 -149t-171 -141t-227 -108t-279 -52q-18 0 -30 22t-16 48z" />
<glyph unicode="4" horiz-adv-x="1012" d="M80 776q-2 66 0 161t7 204t10 224t7 219q0 32 19 48t41 15t40 -18t18 -47q0 -8 -2 -53t-3 -98t-3 -98t-2 -53q0 -16 -1 -54t-3 -85t-4 -101t-3 -101t-1 -85v-54q68 6 140 15t137 21t120 24t93 22l6 744q0 36 19 52t41 16t40 -16t18 -46q-2 -54 -2 -140v-185t1 -203 t3 -194l68 20q18 4 35 -13t24 -40t0 -46t-35 -31q-30 -8 -48 -16t-40 -12q-4 -18 -4 -72t1 -127t3 -156t4 -157t4 -131t4 -79t-17 -37t-43 -20t-45 6t-23 43l-14 698q-74 -14 -144 -27t-130 -23t-108 -17t-78 -11q-46 -6 -75 0t-46 22t-23 39t-6 53z" />
<glyph unicode="5" horiz-adv-x="994" d="M57 43q-3 25 8 48t39 27q84 10 199 60t243 122q64 36 122 87t97 111t51 125t-14 129q-28 66 -96 86t-154 7t-179 -50t-171 -85q-50 -30 -90 -20t-40 68l-6 866q0 30 27 44t95 14h202t180 1t168 4t166 9q18 2 33 -17t20 -43t-6 -45t-43 -23l-714 -20q-4 -82 -3 -176 t3 -187t4 -178t4 -147q292 146 485 126t251 -196q30 -88 15 -177t-62 -172t-120 -153t-159 -118q-134 -76 -256 -125t-232 -63q-30 -4 -47 16t-20 45z" />
<glyph unicode="6" horiz-adv-x="932" d="M54 412q-10 118 4 248t45 267t71 269t84 254t82 224q10 28 37 36t52 -1t39 -35t-4 -66q-170 -406 -244 -707t-46 -527q32 64 81 130t101 116q70 68 147 111t148 52t131 -20t96 -101q26 -54 20 -124t-34 -143t-76 -145t-104 -128t-135 -92t-162 -35t-158 47t-123 158 q-42 94 -52 212zM232 232q36 -72 79 -100t91 -24t99 33t105 71q48 38 85 93t61 113t33 110t-3 86q-12 36 -49 44t-87 -7t-107 -50t-109 -81q-24 -22 -55 -56t-59 -74t-52 -82t-32 -76z" />
<glyph unicode="7" horiz-adv-x="1000" d="M41 1464q-1 22 14 45t43 33l788 154q10 2 29 1t37 -12t28 -36t4 -67l-224 -1556q-4 -22 -28 -30t-51 -5t-47 18t-16 39l226 1508q-26 -4 -82 -14t-128 -24t-151 -30t-151 -31t-129 -26t-83 -15q-40 -6 -59 10t-20 38z" />
<glyph unicode="8" horiz-adv-x="962" d="M50 336q-18 100 6 214t93 235t187 237q-82 58 -129 131t-62 148t0 146t59 126t113 88t163 33q138 -2 226 -70t112 -172t-25 -225t-185 -229q114 -90 184 -198t99 -218t16 -213t-66 -184t-145 -131t-220 -52q-118 -2 -208 41t-145 118t-73 175zM167 447q-5 -89 25 -160 t97 -115t175 -46q110 -2 182 43t106 118t32 164t-39 181t-108 170t-175 132q-90 -56 -154 -138t-100 -171t-41 -178zM260 1369q4 -55 32 -108t77 -99t119 -70q66 30 113 78t72 101t27 106t-21 96t-72 70t-127 27q-80 0 -130 -28t-72 -73t-18 -100z" />
<glyph unicode="9" horiz-adv-x="1056" d="M43 1120q-5 84 35 170t119 166t181 136q74 40 136 62t123 32t126 9t145 -5q44 -4 66 -19t31 -34t9 -42v-45q-8 -228 -12 -460t-6 -434t-3 -360t-1 -242q0 -36 -25 -50t-55 -12t-54 17t-22 37q4 66 8 167t8 222t8 250t8 251t6 226t4 174q-74 -116 -176 -221t-236 -161 q-102 -44 -201 -40t-151 56q-66 66 -71 150zM165 1164q-5 -66 41 -118q16 -16 76 -17t146 41q74 36 137 91t119 121t104 139t90 147q-94 22 -194 7t-190 -55t-164 -99t-117 -125t-48 -132z" />
<glyph unicode=":" horiz-adv-x="394" d="M132 380q-6 32 5 61t39 43t68 -4q32 -14 37 -47t-9 -63t-42 -46t-62 6q-30 18 -36 50zM144 888q-6 32 5 61t39 43t68 -4q32 -14 37 -47t-9 -63t-42 -46t-62 6q-30 18 -36 50z" />
<glyph unicode=";" horiz-adv-x="338" d="M53 -151q-1 21 19 41q24 24 42 46t25 52t3 74t-26 112q-10 30 3 52t32 29t40 -6t31 -51q18 -78 19 -137t-10 -102t-30 -74t-43 -55t-49 -25t-40 11t-16 33zM74 404q-6 32 5 61t39 43t68 -4q32 -14 37 -47t-9 -63t-42 -46t-62 6q-30 18 -36 50z" />
<glyph unicode="&#x3c;" horiz-adv-x="798" d="M32 715q-2 27 14 56t52 49q88 50 173 94t157 82t126 67t80 47t53 8t42 -35t11 -55t-42 -50q-112 -60 -193 -99t-138 -65t-96 -43t-69 -33q68 -28 156 -60t168 -59t138 -46t66 -21q20 -6 25 -30t-4 -49t-31 -41t-54 -4l-576 214q-26 6 -41 26t-17 47z" />
<glyph unicode="=" horiz-adv-x="1002" d="M78 737q-4 23 5 44t39 25q92 8 194 14t199 11t182 11t145 16q26 4 44 -15t22 -43t-8 -45t-44 -23q-72 -4 -141 -6t-152 -7t-187 -14t-248 -25q-18 -2 -32 16t-18 41zM84 443q-4 23 5 44t39 25q92 8 194 14t199 11t182 11t145 16q26 4 44 -15t22 -43t-8 -45t-44 -23 q-72 -4 -141 -6t-152 -7t-187 -14t-248 -25q-18 -2 -32 16t-18 41z" />
<glyph unicode="&#x3e;" horiz-adv-x="784" d="M29 1020q-5 24 4 49t31 41t56 4l576 -214q26 -6 41 -27t17 -48t-14 -55t-52 -48q-88 -50 -174 -94t-159 -81t-127 -65t-80 -46t-54 -7t-43 37t-11 55t44 47q106 48 186 85t140 65t102 49t72 37q-68 28 -156 60t-168 59t-138 46t-66 21q-22 6 -27 30z" />
<glyph unicode="?" horiz-adv-x="1050" d="M50 1426q4 30 38 62q56 52 136 93t167 68t172 37t151 2q116 -16 184 -75t94 -146t10 -194t-70 -215q-16 -32 -37 -62t-45 -60q-78 -94 -210 -176t-314 -130q-2 -26 -2 -65t1 -80t1 -77t-2 -54q-2 -20 -22 -29t-43 -7t-41 12t-16 30l-4 318q4 38 29 51t59 21 q110 28 196 71t152 95t112 110t76 116q32 60 44 127t0 127t-49 104t-103 60q-52 12 -123 3t-147 -33t-149 -61t-127 -81q-32 -28 -61 -28t-45 18t-12 48zM195 75q-5 33 9 60t42 40t66 -7q30 -16 34 -50t-11 -62t-44 -42t-63 8q-28 20 -33 53z" />
<glyph unicode="@" horiz-adv-x="1742" d="M92 686q8 186 67 350t163 285t253 191t341 68q192 0 334 -81t233 -215t130 -308t23 -362q-12 -148 -58 -231t-100 -122t-104 -46t-72 -3q-54 8 -100 36t-75 91t-38 167t9 262q-24 -52 -64 -119t-91 -135t-111 -129t-126 -97q-58 -32 -112 -35t-96 22t-67 75t-21 126 q4 92 38 199t91 208t133 185t166 130q66 34 129 29t115 -43q4 22 26 34t48 11t46 -16t20 -45l-28 -508q-6 -110 2 -175t26 -100t42 -46t52 -15q40 -6 76 14t63 59t45 92t22 115q14 232 -33 396t-132 268t-198 152t-233 48q-164 0 -295 -61t-223 -169t-143 -257t-55 -325 q-2 -122 27 -247t91 -226t157 -162t225 -55q42 2 82 8t82 22t90 47t108 83q28 24 54 21t41 -21t14 -45t-27 -51q-60 -56 -116 -92t-111 -57t-109 -30t-108 -9q-144 -2 -262 67t-200 186t-123 270t-33 321zM534 449q6 -49 36 -63q12 -6 41 -2t72 32t101 88t130 168 q24 36 51 81t50 96t38 107t13 114q-22 28 -75 30t-105 -22q-64 -32 -121 -91t-102 -131t-77 -148t-45 -143t-7 -116z" />
<glyph unicode="A" d="M38 50l348 1508q16 70 53 105t78 35t80 -34t61 -100q66 -204 114 -347t81 -241t54 -158t35 -99t23 -64t19 -51t22 -63t31 -99t48 -157t73 -239q3 -11 3 -21q0 -17 -9 -30q-14 -21 -37 -27t-47 5t-36 45q-18 50 -41 119t-49 142t-50 140t-44 113q-126 -20 -273 -43 t-305 -35l-94 -446q-6 -32 -33 -47q-21 -12 -43 -12l-11 1q-27 4 -45 29q-11 15 -11 38q0 15 5 33zM296 588q28 2 101 12t156 22t158 24t109 18q-78 236 -130 398t-86 263t-52 145t-28 44q-26 -82 -51 -174t-49 -186t-45 -184t-37 -166t-28 -132z" />
<glyph unicode="B" horiz-adv-x="1096" d="M38 28q10 160 15 287t8 240q2 85 2 167v55q-1 109 -4 236t-6 281t-7 356q0 18 20 29t45 14q7 1 14 1q18 0 35 -6q24 -8 30 -28q68 12 155 18q47 3 96 3q40 0 81 -2q90 -5 175 -25t153 -62t109 -110t41 -168q0 -58 -22 -126t-65 -132t-107 -118t-148 -84q188 -58 297 -151 t111 -249q0 -102 -42 -176t-114 -125t-165 -82t-192 -46t-197 -17h-48q-70 0 -130 4q-8 -16 -32 -26t-49 -11h-4q-23 0 -39 11t-16 36v6zM182 116q31 -2 65 -1q43 0 90 2q85 5 171 19t166 39t141 62t96 87q31 45 31 103v13q-6 104 -76 173t-178 107t-240 46q-44 3 -88 3 q-88 0 -174 -11zM182 890q27 -1 61 -1h37q58 1 121 10t126 26t115 45q54 30 95 68t71 78t47 80t21 74q3 18 3 36q0 50 -22 89q-29 53 -83 88t-128 54t-154 24q-29 2 -57 2q-51 0 -102 -6q-79 -9 -145 -29q-4 -144 -5 -306t-1 -332z" />
<glyph unicode="C" horiz-adv-x="1154" d="M62 532q-2 33 -2 70q0 73 8 158q12 128 47 259t98 256t160 220t231 147q109 42 248 42q32 0 66 -2q32 -2 52 -23t23 -44t-12 -41t-51 -14q-30 2 -59 2q-133 0 -234 -46q-123 -56 -207 -153t-133 -220t-74 -244t-31 -226q-3 -52 -3 -93t3 -70q8 -86 38 -158t73 -122 t97 -75q44 -20 88 -20q11 0 22 1q78 8 150 42t134 85t114 115t92 134q12 22 34 20t41 -19t27 -45q3 -9 3 -19q0 -19 -11 -37q-44 -76 -109 -149t-141 -130t-156 -92t-154 -37h-12q-200 0 -321 131q-125 135 -139 397z" />
<glyph unicode="D" horiz-adv-x="1134" d="M42 42q10 160 15 287t8 240q2 85 2 167v55q-1 109 -4 236t-6 281t-7 356q0 18 23 30t51 14h8q23 0 42 -10q22 -12 22 -40q130 -18 242 -60t205 -103t167 -137t132 -162q72 -114 111 -230t43 -230v-17q0 -149 -68 -283q-72 -142 -252 -250q-130 -76 -280 -111t-310 -39 q-4 -18 -27 -31t-50 -15h-8q-22 0 -40 9q-19 10 -19 38v5zM186 154q150 10 282 38t240 84q142 72 204 186t63 242v5q0 125 -45 250q-46 127 -120 225q-62 80 -136 141t-155 104t-165 69t-162 38q-4 -158 -5 -334t-1 -357v-357v-334z" />
<glyph unicode="E" horiz-adv-x="1134" d="M42 42q10 160 15 285t7 235q1 55 1 109t-1 107q-2 106 -4 229t-6 275t-8 354q0 18 23 30t51 14t50 -10t22 -40v-14q240 26 450 37t404 37h3q16 0 32 -19q17 -21 24 -48q3 -12 3 -23q0 -14 -5 -27q-9 -23 -41 -25q-152 -10 -265 -15t-210 -9t-191 -10t-208 -20 q-4 -150 -4 -317v-337q108 12 185 21t147 17t143 17t173 23q18 2 35 -19t24 -48t-2 -50t-41 -25q-104 -8 -175 -13t-123 -11t-91 -11t-78 -9t-85 -9t-112 -11q0 -146 1 -285t1 -269q140 4 259 10t222 15t196 19t183 22q18 2 35 -19t24 -48q3 -12 3 -23q0 -14 -5 -27 q-9 -23 -41 -25q-152 -10 -266 -17t-212 -12t-192 -9t-206 -8q-4 -18 -27 -31t-50 -15h-8q-22 0 -40 9q-19 10 -19 38v5z" />
<glyph unicode="F" horiz-adv-x="1140" d="M42 42q10 160 15 285t7 235q1 55 1 109t-1 107q-2 106 -4 229t-6 275t-8 354q0 18 23 30t51 14t50 -10t22 -40v-14q240 26 450 37t404 37h3q16 0 32 -19q17 -21 24 -48q3 -12 3 -23q0 -14 -5 -27q-9 -23 -41 -25q-152 -10 -265 -15t-210 -9t-191 -10t-208 -20 q-4 -150 -4 -317v-337q108 12 185 21t147 17t143 17t173 23q18 2 35 -19t24 -48t-2 -50t-41 -25q-104 -8 -175 -13t-123 -11t-91 -11t-78 -9t-85 -9t-112 -11v-146t1 -155t1 -173v-202q0 -26 -23 -40t-51 -14t-50 14q-20 13 -20 41v5z" />
<glyph unicode="G" d="M55 755q-1 30 -1 60q0 96 12 196q16 131 58 257t117 223t188 154q102 52 241 52q15 0 30 -1q56 -2 111 -22t104 -56t87 -88t60 -120q10 -32 -6 -54t-40 -28t-49 5t-35 47q-14 50 -42 86t-64 60t-75 34t-75 10q-142 -2 -236 -66t-150 -163t-80 -219t-28 -236 q-1 -33 -1 -65q0 -79 7 -150q10 -99 22 -153q20 -86 59 -154t90 -114t108 -70q53 -22 104 -22h9q84 2 164 55t141 143t94 210q27 97 27 204q0 25 -2 52q-64 2 -120 4q-37 1 -75 1h-37q-56 -1 -114 -3t-124 -4q-18 0 -33 18t-19 41t7 43t43 22q44 2 102 2t120 -1t122 -1 t106 4q18 0 40 -3t43 -12t36 -26t17 -43q8 -62 8 -120q0 -65 -10 -125q-18 -113 -56 -205t-93 -163t-115 -120t-120 -75t-110 -28q-18 -1 -35 -1q-183 0 -315 118q-144 129 -194 391q-18 94 -23 219z" />
<glyph unicode="H" horiz-adv-x="1120" d="M42 42q10 160 15 287t8 240q2 85 2 167v55q-1 109 -4 236t-6 281t-7 356q0 18 23 30t51 14h8q23 0 42 -10q22 -12 22 -40q-4 -160 -6 -348t-4 -388q184 12 373 25t369 27q-4 136 -7 300t-7 388q0 18 23 30t51 14t50 -10t22 -40q-4 -174 -6 -382t-3 -424t-1 -426v-386 q0 -18 -23 -33t-51 -18q-6 -1 -11 -1q-21 0 -39 10q-22 12 -20 44q8 130 13 238t8 203t3 183v180q-96 -4 -183 -9t-175 -13t-182 -17t-204 -19q-1 -133 -1 -263v-129q1 -192 1 -354q0 -18 -23 -33t-51 -18t-50 9q-20 11 -20 39v5z" />
<glyph unicode="I" horiz-adv-x="940" d="M50 1591q-1 7 -1 14q0 15 6 30q9 21 39 25q92 8 194 14t199 11t182 11t145 16q5 1 9 1q20 0 35 -16q18 -19 22 -43t-8 -45t-44 -23q-74 -4 -145 -6t-157 -8q-4 -162 -7 -347t-5 -375t-3 -377t-1 -353q92 6 173 12t139 16q26 4 44 -15t22 -43q1 -6 1 -12q0 -17 -9 -33 q-12 -21 -44 -23q-72 -4 -141 -6t-152 -7t-187 -14t-248 -25h-4q-16 0 -28 16q-14 18 -18 41t5 44t39 25q64 6 132 10l136 8q8 140 13 253t8 215t3 201t-1 213t-4 251t-7 315q-58 -4 -128 -11t-154 -17q-18 -2 -32 16t-18 41z" />
<glyph unicode="J" horiz-adv-x="994" d="M42 510v7q0 37 19 57q21 22 47 24t46 -16t18 -54q-2 -29 -2 -55q0 -89 21 -149q27 -78 67 -122t84 -59t72 -15q102 4 167 53t103 126t54 171t20 186q6 202 7 351v95q0 91 -1 166q-2 112 -7 198t-7 164q-2 34 20 52t48 20h6q23 0 43 -12q23 -14 23 -44q6 -202 9 -359 t3 -282t-3 -222t-9 -177q-16 -286 -126 -443t-340 -173h-16q-60 0 -118 25q-66 29 -119 92t-88 162t-41 233z" />
<glyph unicode="K" horiz-adv-x="1150" d="M42 42q21 343 21 687q0 57 -1 115q-4 402 -12 820q0 18 23 30t51 14h8q23 0 42 -10q22 -12 22 -40q-4 -144 -6 -311t-4 -347q66 54 146 126t176 159t208 185t238 202q14 12 39 2t44 -29t25 -43t-16 -42q-228 -184 -424 -348t-376 -318q86 -88 167 -165t179 -165t222 -198 t294 -264q10 -8 10 -24q0 -7 -2 -14q-6 -26 -23 -47t-40 -30q-8 -3 -15 -3q-15 0 -28 12q-222 202 -420 394t-404 376q-1 -129 -1 -256v-125q1 -187 1 -345q0 -18 -23 -33t-51 -18t-50 9q-20 11 -20 39v5z" />
<glyph unicode="L" horiz-adv-x="948" d="M42 102l20 1498q0 46 22 66q19 17 41 17h6q25 -3 45 -27t20 -64l-12 -1442l628 182q21 5 37 5q22 0 37 -9q26 -16 31 -43q1 -6 1 -13q0 -21 -12 -41q-16 -27 -52 -37l-638 -182q-28 -8 -58 -10h-11q-24 0 -45 7q-26 9 -43 31t-17 62z" />
<glyph unicode="M" horiz-adv-x="1428" d="M42 40q14 210 20 412t10 401t7 399t9 406q0 18 17 32t39 18q8 1 16 1q14 0 26 -4q20 -7 30 -33q30 -84 87 -223t126 -301t144 -329t141 -307q66 138 127 265t123 257t124 269t128 299q14 32 41 41t54 3t47 -23t20 -37q0 -174 -2 -312t-4 -257t-4 -227q-1 -72 -1 -146v-75 q1 -113 5 -241t14 -286v-5q0 -28 -20 -39q-22 -12 -50 -9t-51 18t-23 33v294v320t-1 328t-3 320q-56 -110 -97 -192t-76 -150t-65 -131t-63 -137t-71 -167t-88 -219q-6 -18 -25 -26t-39 -8t-39 8t-25 24q-50 126 -88 224t-72 180t-64 154t-63 147t-72 160t-87 193 q-2 -160 -5 -335t-6 -349t-5 -338t-2 -302q0 -18 -23 -33t-51 -18q-6 -1 -11 -1q-21 0 -39 10q-20 11 -20 39v5z" />
<glyph unicode="N" horiz-adv-x="1334" d="M42 42q10 160 15 287t8 240q2 85 2 167v55q-1 109 -4 236t-6 281t-7 356q0 18 18 29t42 12t48 -10t38 -37q86 -162 178 -339t202 -364t245 -378t307 -379q10 134 16 246t7 217q0 52 0.5 104.5t-0.5 104.5q-1 104 -6 223t-11 258t-14 313q0 18 20 30t46 14h7q22 0 40 -10 q21 -12 23 -40q12 -174 19 -380t8 -418q0 -26 1 -53q0 -185 -7 -366q-7 -207 -27 -381q-2 -18 -14 -35t-31 -25t-43 -5t-50 23q-56 46 -129 132t-155 199t-168 246t-170 269t-161 268t-139 246q-2 -160 -3 -337t-1 -352v-342v-307q0 -18 -23 -33t-51 -18q-6 -1 -11 -1 q-21 0 -39 10q-20 11 -20 39v5z" />
<glyph unicode="O" horiz-adv-x="1130" d="M44 830q4 76 16 160t36 168t59 166t87 152q62 86 133 137t145 70q50 13 99 13q23 0 46 -3q71 -9 135 -41q62 -34 113 -92t83 -122q76 -152 92 -326q9 -99 9 -200q0 -75 -5 -150q-10 -132 -41 -258t-93 -234q-80 -142 -188 -207t-218 -67h-8q-139 0 -236 65 q-100 67 -162 182t-86 267q-18 114 -18 237q0 41 2 83zM178 858q-4 -49 -4 -99q0 -75 9 -154q15 -131 58 -238t119 -171q66 -55 160 -55q15 0 30 1q84 4 166 54t138 146q38 66 62 146t36 167t13 176v25q0 76 -5 150q-4 66 -13 144t-33 151t-67 135t-115 96q-49 24 -104 24 q-38 0 -79 -12q-99 -28 -189 -146q-80 -104 -126 -239t-56 -301z" />
<glyph unicode="P" horiz-adv-x="1034" d="M46 34q4 130 8 233t6 203t4 207q1 71 1 155v87q-1 135 -4 310t-9 411q0 26 18 42t42 19q6 1 11 1q18 0 35 -8q22 -10 30 -32q134 18 242 17q62 0 116 -5q148 -16 244 -67t143 -132t55 -181q1 -15 1 -29q0 -77 -27 -140q-32 -75 -93 -133t-143 -99t-173 -66t-186 -34 q-57 -5 -111 -5q-36 0 -70 2q0 -212 2 -409t2 -349q0 -18 -23 -33t-50 -18q-5 -1 -11 -1q-21 0 -38 10q-22 12 -22 44zM180 1528l8 -604q32 -4 72 -3q26 0 55 1q73 4 149 19t149 42t130 66t90 93q29 48 29 109v15q-6 86 -49 152t-127 102t-210 40h-26q-117 0 -270 -32z" />
<glyph unicode="Q" horiz-adv-x="1162" d="M44 830q4 76 16 160t36 168t59 166t87 152q62 86 133 137t145 70q50 13 99 13q23 0 46 -3q71 -9 135 -41q62 -34 113 -92t83 -122q76 -152 92 -326q9 -99 9 -200q0 -75 -5 -150q-10 -132 -40 -255t-90 -229q34 -52 63 -98t57 -84q12 -16 2 -39t-30 -40t-44 -19t-40 26 q-22 36 -44 70l-44 68q-74 -84 -159 -124t-171 -42h-8q-139 0 -236 65q-100 67 -162 182t-86 267q-18 114 -18 237q0 41 2 83zM178 858q-4 -49 -4 -99q0 -75 9 -154q15 -131 58 -238t119 -171q66 -55 160 -55q15 0 30 1q70 4 138 37t122 99q-64 100 -134 224t-162 304 q-10 16 1 38t32 38t44 17t37 -25q64 -120 129 -240t129 -228q56 128 70 288q8 93 8 184q0 65 -4 128q-4 66 -13 144t-33 151t-67 135t-115 96q-49 24 -104 24q-38 0 -79 -12q-99 -28 -189 -146q-80 -104 -126 -239t-56 -301z" />
<glyph unicode="R" horiz-adv-x="1052" d="M36 34q4 130 7 236t5 209t3 214t2 249t1 316v414q0 18 20 27t45 9t46 -8t21 -24v-46q82 36 174 57t182 25q20 1 40 1q69 0 133 -11q83 -14 146 -49t103 -92t44 -137q1 -15 1 -29q0 -77 -27 -141q-32 -76 -89 -139t-131 -112t-156 -86t-165 -63t-153 -42 q162 -122 284 -237t210 -210t145 -166t93 -107q12 -12 12 -27q0 -8 -3 -16q-9 -25 -30 -44t-48 -23t-45 24q-116 164 -226 287t-206 212t-173 149t-125 96q0 -202 2 -388t2 -330q0 -18 -23 -33t-50 -18q-5 -1 -11 -1q-21 0 -38 10q-22 12 -22 44zM178 924q48 8 119 24 t147 42t153 64t139 88t102 113t44 143v7q0 52 -28 90q-30 41 -83 66t-124 34q-38 5 -77 5q-35 0 -73 -4q-79 -8 -161 -33t-158 -67v-572z" />
<glyph unicode="S" horiz-adv-x="1184" d="M70 328q14 24 40 31t54 -3t38 -40q20 -60 65 -96t95 -55t98 -24t78 -5q102 0 189 28t150 78t99 118t38 150v11q0 93 -33 153q-35 64 -96 105t-143 67t-174 50q-76 20 -152 44t-141 61t-115 91t-74 134q-14 45 -14 88q0 52 21 102q39 90 120 156t190 100q77 24 154 25 q32 0 63 -5q16 -2 57 -8t96 -29t116 -68t119 -123q14 -20 5 -41t-29 -35t-44 -16t-38 20q-20 28 -47 58t-66 56t-90 44t-117 22q-9 1 -19 1q-63 0 -130 -24q-77 -27 -134 -74t-83 -106q-13 -28 -12 -58q0 -31 14 -63q26 -58 71 -95t100 -62t118 -42t129 -35q110 -30 202 -63 t160 -87t106 -140t42 -222v-8q0 -99 -46 -188q-48 -92 -132 -161t-196 -108q-107 -37 -222 -37h-12q-166 4 -286 70t-178 196q-10 21 -10 38q0 14 6 24z" />
<glyph unicode="T" horiz-adv-x="1054" d="M18 1565q-1 7 -1 14q0 15 6 30q9 21 39 25q62 6 141 11t166 9l174 8t166 9t144 11t105 12q5 1 9 1q20 0 35 -16q18 -19 22 -43q1 -6 1 -12q0 -17 -9 -33q-12 -21 -44 -23q-72 -4 -169 -8t-212 -10t-247 -16t-276 -26q-18 -2 -32 16t-18 41zM455 648q0 79 -0.5 156 t0.5 152q1 150 3 278t6 227t10 157q2 18 24 30t48 12t45 -12q17 -11 17 -35v-5q-12 -102 -18 -248t-7 -307q0 -80 -0.5 -161.5t0.5 -164.5q1 -165 4 -307t5 -249t2 -153q0 -18 -20 -32t-45 -16h-7q-21 0 -39 10q-21 12 -21 44q-2 146 -4 306t-3 318z" />
<glyph unicode="U" horiz-adv-x="1032" d="M52 1071q0 127 3 238t8 198t9 133q2 32 23 48q19 14 39 14h5q23 -2 41 -20t16 -52q-12 -184 -18 -359q-4 -117 -4 -226q0 -55 1 -107q3 -158 17 -294t44 -240q22 -76 53 -132t65 -92t69 -53q28 -14 53 -14q6 0 12 1q102 10 176 95t120 217q46 134 68 297t26 328 q1 41 1 82q0 121 -9 233q-12 150 -32 256q-6 34 11 53t42 22t47 -10t26 -39q6 -60 13 -149t12 -196t5 -227t-9 -241t-29 -238t-54 -219q-28 -80 -67 -147t-90 -118t-114 -82t-139 -37q-9 -1 -17 -1q-53 0 -103 22q-58 25 -106 74t-86 119t-62 156q-24 92 -39 209t-21 244 t-6 254z" />
<glyph unicode="V" horiz-adv-x="1144" d="M50 1647q14 25 38 37q15 8 32 8q10 0 19 -3q27 -7 41 -41q76 -194 128 -369t88 -331q60 -258 96 -453t58 -299q48 162 99 332t99 329t92 300t78 247t53 170t21 70q6 30 30 39t48 2t39 -31q9 -14 9 -33q0 -12 -4 -27l-468 -1532q-6 -24 -38 -40t-68 -17h-4q-34 0 -64 16 q-32 17 -40 59q-46 244 -80 449t-74 365q-42 170 -80 295t-67 209t-50 132t-29 64q-9 15 -9 29q0 12 7 24z" />
<glyph unicode="W" horiz-adv-x="1798" d="M44 1590q-2 10 -2 20q0 21 12 37q18 23 43 32t50 3t29 -32q38 -228 77 -418t78 -360t79 -326t82 -316q74 256 142 500t128 512q14 66 47 95t67 29t63 -25t37 -67q12 -62 31 -153t43 -196t55 -217t65 -215t72 -190t78 -143q102 232 177 607t135 867q6 40 30 54 q19 11 38 11q6 0 11 -1q25 -4 44 -23q16 -16 16 -38q0 -5 -1 -9q-14 -80 -32 -201t-41 -262t-52 -294t-62 -299t-72 -275t-83 -223q-10 -22 -33 -43t-52 -29q-12 -3 -24 -3q-18 0 -37 7q-32 12 -58 58q-74 124 -126 253t-93 267t-72 285t-63 309l-268 -1058q-16 -52 -49 -78 q-31 -24 -64 -24h-5q-36 2 -67 29t-43 81z" />
<glyph unicode="X" horiz-adv-x="1120" d="M18 1610q-4 14 -4 26q0 17 8 30q14 22 36 31q12 5 25 5l19 -3q22 -7 26 -33q4 -20 26 -75t56 -130t76 -164t86 -176t86 -166t76 -135q10 -16 40 -62t73 -109t96 -136t109 -145t112 -136t106 -108q25 -23 25 -49v-5q-3 -28 -22 -47t-46 -25t-45 12q-52 54 -109 123 t-113 141t-108 143t-94 131t-69 101t-35 55q-62 114 -132 248t-132 262t-109 234t-63 162zM45 18q-4 9 -4 20q0 15 9 34q60 114 147 265t184 314t197 325t184 301t145 240t81 141q14 26 35 33q9 3 18 3q11 0 21 -5q18 -9 27 -32q4 -9 4 -19q0 -16 -9 -34q-40 -90 -114 -221 t-166 -281t-191 -309t-188 -306t-161 -272t-106 -207q-10 -22 -34 -26q-7 -1 -15 -1q-16 0 -31 6q-22 9 -33 31z" />
<glyph unicode="Y" horiz-adv-x="1122" d="M39 1640q11 22 31 38t43 19h5q20 0 34 -21q118 -182 221 -321t205 -251h6q94 108 194 255t210 315q14 24 38 21t44 -19t31 -38q5 -11 5 -20q0 -10 -6 -18q-72 -102 -123 -177t-89 -130t-66 -95t-55 -76t-55 -72t-66 -82q-6 -118 -11 -252t-8 -262t-5 -238q-1 -37 -1 -69 q0 -65 3 -113q0 -18 -20 -33t-46 -18q-5 -1 -10 -1q-20 0 -36 10q-20 12 -20 44q2 94 5 187t7 203t7 245t5 311q-38 46 -68 81t-59 69t-61 73t-72 93t-92 127t-124 177q-6 8 -6 18q0 9 5 20z" />
<glyph unicode="Z" horiz-adv-x="1160" d="M12 85q0 27 24 61l958 1430l-898 -16q-32 -2 -47 17t-15 41t16 42t48 22l886 16h12q44 0 74 -13q34 -15 49 -42q12 -21 12 -48q0 -7 -1 -15q-4 -36 -30 -74l-898 -1334q170 24 305 29q52 2 99 2q76 0 141 -5q105 -8 181 -25t128 -35q38 -14 54 -41t13 -50t-24 -36 q-11 -7 -26 -7q-14 0 -31 6q-82 28 -194 44t-235 18h-35q-105 0 -210 -10q-122 -12 -222 -40q-25 -7 -48 -7q-11 0 -21 2q-31 5 -48 23t-17 45z" />
<glyph unicode="[" horiz-adv-x="592" d="M92 -66q8 212 14 417t8 420t1 447t-7 500q-6 42 1 66t21 37t31 16t29 3q32 0 74 1t82 4t74 6t52 7q26 6 45 -11t23 -40t-7 -44t-43 -23q-36 -2 -62 -3t-51 -2t-54 -3t-71 -4q-2 -108 -5 -252t-5 -306t-4 -333t-3 -333t-2 -308t-1 -256q46 2 80 6t63 7t55 7t56 8 q26 4 44 -15t22 -43t-8 -45t-44 -23q-36 -2 -62 -4t-51 -3t-53 -3t-70 -4q-98 -6 -137 16t-35 90z" />
<glyph unicode="\" horiz-adv-x="654" d="M36 1634q-4 18 15 35t45 25t51 3t31 -33q38 -170 96 -377t121 -422t123 -423t102 -378q4 -18 -15 -38t-45 -29t-50 -4t-30 37q-30 158 -60 285t-61 240t-66 222t-75 235t-85 276t-97 346z" />
<glyph unicode="]" horiz-adv-x="666" d="M122 1782q-4 24 8 46t44 24q36 2 62 4t51 3t53 3t70 4q98 6 137 -16t35 -90q-10 -212 -15 -417t-7 -420t-1 -448t7 -499q6 -42 -1 -66t-21 -37t-31 -16t-29 -3q-32 0 -74 -1t-82 -4t-74 -6t-52 -7q-28 -6 -46 11t-22 40t7 44t43 23q36 2 62 3t51 2t54 2t71 5q2 108 5 252 t5 306t4 333t3 333t2 308t1 256q-46 -4 -80 -7t-63 -6t-55 -7t-56 -8q-28 -4 -45 14t-21 42z" />
<glyph unicode="^" horiz-adv-x="630" d="M63 682q-3 22 13 38q30 30 73 61t83 65q34 28 75 25t63 -19q18 -12 40 -31t45 -38t44 -37t35 -26q20 -14 17 -35t-17 -38t-36 -24t-40 9q-40 32 -76 60t-78 60l-150 -118q-18 -16 -39 -11t-35 21t-17 38z" />
<glyph unicode="_" horiz-adv-x="728" d="M12 26q-2 22 9 41t41 17q62 -4 141 -6t162 -1t162 4t139 13q26 4 44 -15t22 -44t-8 -46t-44 -21q-112 0 -187 1t-139 1t-132 -1t-166 -3q-18 0 -30 19t-14 41z" />
<glyph unicode="`" horiz-adv-x="438" d="M74 1348q4 24 19 43t36 27t41 -14q16 -18 44 -40t59 -45t59 -43t46 -32q20 -14 16 -37t-19 -42t-38 -27t-41 8q-52 44 -100 80t-112 86q-14 12 -10 36z" />
<glyph unicode="a" horiz-adv-x="918" d="M30 218q4 66 20 140t48 150q30 70 65 137t71 125t68 104t54 72q36 42 76 74t76 50q58 30 113 29h16q63 -5 115 -43q4 22 26 34q20 11 44 11h4q26 -1 46 -16t20 -45l-14 -976q2 -36 -16 -53t-41 -18h-4q-21 0 -38 11q-19 12 -19 34l8 602q-30 -76 -73 -174t-113 -190 q-18 -22 -46 -57t-64 -72t-77 -70t-85 -53q-60 -28 -112 -29h-4q-50 0 -87 24q-39 25 -60 74q-18 41 -18 101q0 12 1 24zM144 193q0 -57 30 -71q7 -4 21 -4q9 0 21 2q30 4 76 33t105 89t131 168q24 36 61 102t71 142t59 153q23 71 23 126v9q-10 14 -32 23t-48 10h-7 q-23 0 -47 -5q-28 -6 -52 -20q-60 -38 -121 -110t-113 -159t-93 -180t-63 -172t-22 -136z" />
<glyph unicode="b" horiz-adv-x="1028" d="M50 1664q0 18 23 30t51 14h8q23 0 42 -10q22 -12 22 -40q-4 -128 -4 -278t1 -309t3 -322t4 -319q38 98 87 202t107 200q50 82 115 153t149 101q54 19 102 18q39 0 75 -11q81 -27 125 -123q27 -63 27 -136q0 -29 -4 -59q-15 -107 -66 -212t-131 -198t-172 -153 q-30 -20 -65 -44t-80 -49t-103 -49t-134 -42l-28 -6q0 -18 -23 -33t-51 -18q-6 -1 -11 -1q-21 0 -39 10q-22 12 -20 44q0 12 1 31t2 72q0 26 0.5 64.5t-0.5 89.5q-1 101 -2 279t-4 447t-7 657zM206 150q26 2 68 16t93 38t107 58t110 76q70 56 129 132t97 156t50 155 q4 28 4 53q0 42 -12 76q-20 52 -65 64q-17 4 -35 4q-30 0 -64 -12q-54 -20 -105 -78t-95 -134q-42 -72 -80 -154t-74 -162t-68 -155t-60 -133z" />
<glyph unicode="c" horiz-adv-x="854" d="M26 318v14q0 91 24 184q26 100 76 196t115 175t140 135t151 76q22 5 53 5h10q37 -1 75 -12t74 -31t60 -52q14 -18 9 -42t-19 -41t-31 -24t-29 7q-36 46 -88 63q-33 11 -58 11q-15 0 -28 -4q-52 -14 -111 -59t-113 -112t-100 -148t-71 -163t-25 -161t36 -141 q32 -56 80 -72q30 -10 61 -10q20 0 41 4q54 10 111 42t108 70t92 76t63 64q18 18 39 14t37 -21t21 -39q1 -6 1 -11q0 -15 -10 -29q-46 -54 -109 -107t-135 -95t-147 -68q-70 -24 -134 -24h-10q-69 2 -126 36t-93 112q-38 84 -40 182z" />
<glyph unicode="d" horiz-adv-x="938" d="M71 467q35 93 98 181t141 164q102 96 218 171t224 119l-10 552q0 18 23 30t51 14h8q23 0 42 -10q22 -12 22 -40q-4 -174 -6 -382t-3 -424t-1 -426v-386q0 -18 -23 -33t-51 -18q-6 -1 -11 -1q-21 0 -39 10q-22 12 -20 44q6 102 10 189t8 165q-48 -64 -112 -133t-136 -127 q-58 -46 -119 -74t-118 -33q-10 -1 -20 -1q-46 0 -86 19q-49 23 -81 77q-45 76 -45 165q0 92 36 188zM188 234q18 -46 45 -63q21 -13 47 -13q8 0 15 1q35 5 74 28t79 57q56 48 112 110t98 116t67 90t23 32q2 4 4 5t6 5v167t-2 175q-52 -18 -106 -46t-105 -64t-99 -77 t-86 -83q-110 -118 -157 -238q-28 -71 -28 -129q0 -40 13 -73z" />
<glyph unicode="e" horiz-adv-x="892" d="M39 460q7 106 40 210t83 184q82 132 202 202q56 32 119 42q32 5 61.5 5t58.5 -5q57 -10 104 -38t71 -68q26 -41 26 -82v-6q-2 -44 -22 -85t-56 -78t-76 -68t-82 -57t-74 -42t-70 -39t-81 -45t-89 -43t-94 -33q0 -116 31 -178t72 -88t82 -27t59 5q28 8 65 18t79 37t86 79 t88 144q16 34 42 40t47 -8t30 -42q3 -9 3 -19q0 -20 -12 -41q-64 -116 -146 -198q-52 -52 -122 -88t-145 -45q-22 -3 -45 -3q-52 0 -104 15q-74 21 -134 83q-60 64 -82 160q-17 73 -17 151q0 25 2 51zM180 561q0 -1 1 0q4 0 22 7q25 10 64 29t87 43t94 50q50 28 94 60t76 62 t46 58q8 16 8 30q0 10 -4 18q-12 26 -41 37t-63 12h-8q-30 0 -58 -6q-32 -7 -50 -17q-58 -30 -100 -73t-74 -94t-55 -107q-39 -96 -39 -109z" />
<glyph unicode="f" horiz-adv-x="982" d="M0 633q-1 7 -1 14q0 15 6 30q9 21 39 25q92 8 191 14t193 12t180 12t156 14q26 2 44 -16t22 -42t-8 -45t-44 -23q-72 -4 -146 -8t-161 -10t-190 -14t-231 -20q-18 -2 -32 16t-18 41zM206 693q0 127 3 225t9 178q12 148 49 265t101 201q44 56 112 94t146 51q41 7 82 7 q38 0 76 -6q80 -12 148 -54q25 -15 25 -44q0 -25 -14 -47q-15 -23 -43 -33q-9 -3 -20 -3q-20 0 -44 13q-34 20 -76 32q-34 10 -71 10q-9 0 -19 -1q-48 -3 -97 -23t-95 -64q-34 -34 -56 -77t-35 -94t-20 -107t-9 -114q-10 -202 -12 -359q-1 -63 -1 -120q0 -86 2 -159 q3 -122 8 -216t9 -172q0 -48 -22 -70t-50 -24h-6q-25 0 -46 15q-24 17 -24 49q-4 200 -7 360t-3 287z" />
<glyph unicode="g" horiz-adv-x="998" d="M47 185q-2 22 -2 44q0 39 6 80q9 63 25 111q20 58 60 132t94 151t121 148t141 121t153 72q41 12 82 12q38 0 75 -10q36 -10 57 -35t35 -59t21 -74t15 -76q10 -52 15 -155t7 -223q1 -48 1 -96q0 -73 -2 -146q-3 -122 -7 -214q-6 -110 -30 -238t-74 -240t-131 -194 t-197 -100q-17 -3 -44 -3q-13 0 -29 1q-47 2 -101 12t-110 30t-98 50q-24 18 -30 44t3 48t29 33t46 -3q90 -52 182 -72q51 -11 92 -11q33 0 60 7q78 18 135 78t93 146t55 192t23 218q8 230 13 395q1 43 1 81q0 107 -10 170q-24 -66 -66 -146t-95 -158t-117 -147t-131 -114 t-137 -60q-22 -5 -44 -5q-47 0 -92 22q-46 20 -67 70t-26 111zM160 230q0 -42 12 -66q20 -40 56 -43h8q33 0 72 22q44 25 95 74t101 113q54 68 104 145t87 154t59 146q20 63 20 112v9q-29 20 -67 20q-21 0 -44 -6q-65 -18 -135 -67t-137 -124t-117 -157q-38 -62 -63 -123 t-38 -114t-13 -95z" />
<glyph unicode="h" horiz-adv-x="896" d="M26 42q10 160 17 287t12 239t7 221q1 73 1 153v82q-1 126 -5 280t-12 358q0 18 22 30t50 14h8q23 0 42 -10q22 -12 22 -40q-4 -134 -5 -252v-78q0 -78 1 -156q2 -116 4 -240t4 -270q18 22 47 69t68 102t85 111t99 99t110 64q34 13 69 12q24 0 48 -5q56 -14 84 -113 t39 -250t12 -341t5 -388q0 -24 -23 -37t-50 -14h-4q-24 0 -46 10q-23 11 -21 37q12 252 12 424t-7 280t-18 161t-23 69q-12 18 -39 21h-3q-27 0 -76 -42q-52 -45 -139 -156t-219 -323q-6 -12 -12 -62t-11 -114t-9 -129t-4 -105q0 -18 -23 -33t-50 -18t-49 9q-20 11 -20 39v5 z" />
<glyph unicode="i" horiz-adv-x="254" d="M52 1426q-2 11 -2 22q0 20 7 39q11 29 39 43q12 6 27 6q19 0 41 -10q32 -14 37 -47q1 -9 1 -17q0 -24 -10 -46q-14 -30 -42 -46q-12 -7 -25 -7q-18 0 -37 13q-30 18 -36 50zM54 42q2 98 5 199t7 221t7 268t5 340q0 18 21 30t47 14h7q22 0 40 -10q19 -11 19 -35l-11 -268 q-5 -145 -10 -288t-7 -269q-1 -42 -1 -79q0 -73 3 -125q0 -18 -20 -33t-46 -18q-5 -1 -10 -1q-20 0 -36 10q-20 12 -20 44z" />
<glyph unicode="j" horiz-adv-x="356" d="M-563 -583q7 27 29 40t52 9t54 -34q32 -40 90 -65q54 -23 104 -23h8q102 4 166 45t101 108t52 153t19 178q6 202 6 383t-4 333t-10 270t-10 196v8q0 42 19 60q21 20 48 20t51 -17t24 -47q6 -202 11 -384t7 -337q1 -77 1 -146t-1 -130q-2 -121 -8 -201q-8 -142 -33 -257 t-80 -196t-144 -126t-223 -49q-26 0 -69 11t-90 31t-89 47t-64 59q-19 26 -19 48q0 7 2 13zM54 1429q-2 10 -2 20q0 22 9 41q13 28 41 42q12 6 27 6q19 0 41 -10q30 -16 34 -49q1 -7 1 -14q0 -25 -12 -48q-15 -29 -43 -45q-12 -7 -25 -7q-17 0 -37 13q-28 18 -34 51z" />
<glyph unicode="k" horiz-adv-x="892" d="M58 672q0 162 1 316t4 286t7 234t10 160q2 18 24 30t48 12t45 -12t17 -40q-12 -104 -18 -251t-8 -312q-1 -110 -1 -222v-112q1 -169 3 -315t4 -256t2 -156q0 -18 -20 -32t-45 -16h-7q-21 0 -39 10q-21 12 -21 44q-2 146 -4 308t-2 324zM77 519q0 19 21 35q50 36 110 83 t123 101t126 110t117 108t97 97t67 77q14 19 34 19h6q24 -3 40 -21t20 -44t-18 -50q-88 -94 -257 -244t-389 -338q-16 -12 -39 -4t-39 26q-19 22 -19 45zM79 485q-1 7 -1 13q0 18 6 35q8 23 27 35q9 6 19 6q12 0 26 -8q80 -44 175 -82t189 -68t178 -51t142 -33q26 -6 34 -28 q4 -11 4 -22.5t-4 -22.5q-8 -23 -30 -38q-13 -9 -30 -9q-11 0 -24 4q-60 18 -126 36t-148 44t-184 62t-234 94q-16 8 -19 33z" />
<glyph unicode="l" horiz-adv-x="232" d="M42 42q10 160 15 287t8 240q2 85 2 167v55q-1 109 -4 236t-6 281t-7 356q0 18 23 30t51 14h8q23 0 42 -10q22 -12 22 -40q-4 -174 -6 -382t-3 -424t-1 -426v-386q0 -18 -23 -33t-51 -18q-6 -1 -11 -1q-21 0 -39 10q-20 11 -20 39v5z" />
<glyph unicode="m" horiz-adv-x="1442" d="M56 42q4 118 7 232t3 234t-2 249t-4 277q0 16 21 26t45 8t44 -15t18 -43l-18 -398q38 116 73 201t72 143t78 89t93 37q12 1 23 1q51 0 90 -30q47 -37 80 -105t55 -155t40 -177q36 140 82 228t93 136t92 65t81 17q66 0 120 -39t91 -148t56 -303q17 -176 17 -448v-58 q0 -40 -21 -58t-45 -20h-6q-21 0 -38 12q-20 14 -18 40q8 158 8 281q0 51 -1 96q-5 153 -20 253t-37 154t-44 79t-42 29t-32 4q-24 0 -68 -30t-89 -124t-79 -270t-38 -466q0 -16 -20 -27t-44 -11t-44 12t-20 40q1 51 1 98q0 142 -9 252q-12 146 -32 247t-46 163t-51 94 t-48 41t-35 7q-24 -4 -66 -48t-89 -149t-92 -283t-73 -452q-2 -16 -20 -27t-39 -11t-38 11q-15 10 -15 33v6z" />
<glyph unicode="n" horiz-adv-x="956" d="M53 170q5 60 8 121t7 129t5 155t2 199v79q0 83 -1 183q0 32 22 48q21 15 45 15h3q26 -1 49 -19t23 -54q0 -34 -2 -89t-4 -113t-3 -111v-33q0 -30 1 -48q24 30 56 75t68 95t76 98t84 86t90 61q39 20 80 20q7 0 14 -1q82 -6 126 -56t65 -165t30 -306t23 -479v-5 q0 -28 -19 -45q-21 -18 -46 -19t-47 17t-22 58q-4 220 -6 380t-13 265t-35 157t-70 56q-20 2 -55 -27t-78 -77t-90 -108t-90 -120t-78 -115t-55 -93q0 -2 -3 -28t-6 -65t-6 -83t-6 -82t-5 -65t-2 -29q0 -24 -23 -37q-21 -12 -46 -12h-4q-27 1 -50 15q-21 13 -21 38 q0 24 9 134z" />
<glyph unicode="o" horiz-adv-x="846" d="M36 530q4 82 36 181t87 184t134 142t179 57q76 0 131 -30t94 -78t63 -109t36 -124t16 -123q3 -40 2 -74v-32q-6 -126 -43 -223t-94 -164t-127 -103t-138 -36h-9q-100 0 -172 41q-75 43 -120 117t-63 171q-14 73 -14 151q0 26 2 52zM160 544q-2 -25 -3 -52q0 -48 8 -99 q11 -79 41 -143t80 -104q43 -35 105 -35q9 0 19 1q52 2 103 36t91 89t65 125t27 148v28q0 77 -9 146q-11 82 -39 145t-71 101t-103 38q-58 0 -111 -34t-96 -92t-72 -135t-35 -163z" />
<glyph unicode="p" horiz-adv-x="912" d="M40 -732q8 128 13 246t7 238t2 251t-3 287t-7 344t-8 422q0 18 23 30t51 14h8q23 0 42 -10q22 -12 22 -40l-4 -120q52 58 116 98t136 48q28 3 55 3q69 0 125 -22q78 -31 133 -90t86 -138t37 -163q2 -28 2 -54q0 -88 -25 -161q-33 -95 -99 -168t-159 -126t-203 -91 q-48 -16 -99 -27t-109 -13q0 -212 1 -410t1 -350q0 -18 -23 -33t-51 -18q-6 -1 -11 -1q-21 0 -39 10q-20 11 -20 39v5zM182 160q38 2 77 10t81 22q72 24 147 62t135 92t96 125q31 61 31 136q0 12 -1 25q-4 60 -25 118t-58 102t-89 69q-42 20 -93 20q-12 0 -25 -1 q-60 -4 -106 -36t-80 -83t-56 -115t-34 -134v-412z" />
<glyph unicode="q" horiz-adv-x="908" d="M62 268q-3 26 -3 56q0 49 8 108q13 96 43 198t78 198t108 160q34 36 78 66t94 45q42 13 85 13q8 0 17 -1q52 -3 100 -31q72 -42 104 -109t43 -146q9 -67 9 -137v-25q-1 -41 -1 -80.5t1 -76.5q4 -252 7 -414t6 -264t5 -158t6 -98q4 -46 14 -89t25 -76t37 -54t50 -23h12 q57 0 107 34q55 38 95 96q25 35 52 35h2q28 -1 44 -24q14 -20 14 -52v-8q-2 -37 -36 -75q-66 -74 -144 -112q-74 -36 -145 -36h-7q-40 0 -83 25t-80 81t-64 148t-35 226q-4 60 -6 152t-4 201q-1 73 -1 148v76q1 115 3 219q-34 -120 -82 -212t-105 -151t-121 -83 q-40 -15 -81 -15l-47 5q-88 20 -139 90t-63 170zM190 288q8 -70 41 -111t73 -51q8 -1 16 -1q36 0 71 30q43 37 82 101t72 144t58 154t40 132t19 80q1 15 1 29q0 45 -10 86q-13 53 -37 75q-24 20 -56 22h-9q-28 0 -56 -10q-33 -12 -64 -35t-53 -51q-40 -52 -77 -129t-64 -160 t-40 -164q-9 -55 -9 -101q0 -21 2 -40z" />
<glyph unicode="r" horiz-adv-x="880" d="M48 44l4 1000q0 26 20 41t42 16t41 -9t19 -34v-82t-1 -59t-1 -64t2 -95q32 40 79 102t106 119t130 96q64 35 138 35h15q48 -2 84 -27t63 -56t44 -63t25 -50q3 -9 3 -17q0 -13 -7 -25q-12 -20 -32 -31t-42 -8t-30 29q-36 104 -98 118q-14 3 -29 3q-49 0 -104 -35 q-71 -46 -137 -116t-122 -147t-86 -127q-2 -56 -4 -129t-4 -147t-2 -140t4 -106q-4 -14 -23 -25t-41 -13h-7q-18 0 -32 8q-17 10 -17 38z" />
<glyph unicode="s" horiz-adv-x="856" d="M35 140q3 26 19 45t39 26t41 -13q44 -50 108 -75t128 -34q44 -6 85 -7q18 0 36 2q57 4 87 12q38 10 70 36t49 57q13 24 13 50q0 8 -1 15q-5 34 -41 58q-40 26 -133 66t-273 104q-84 30 -132 79t-67 104q-16 48 -16 95v15q3 55 21 95q26 64 71 108t102 72t123 41t136 13 q78 0 142 -9t90 -13q30 -4 41 -29t5 -52t-26 -46t-48 -9q-60 20 -115 27q-43 5 -80 5h-21q-40 0 -84 -8t-85 -24t-76 -44t-55 -68q-12 -24 -15 -57q-1 -8 0 -15q0 -25 7 -51q10 -33 37 -65t75 -52q40 -18 97 -36t120 -39t124 -48t109 -59q72 -52 89 -119q7 -27 7 -54 q0 -39 -15 -76q-25 -63 -85 -113t-140 -68q-46 -10 -116 -13q-15 -1 -30 -1q-56 0 -117 9q-77 11 -152 39t-131 80q-17 16 -17 37v7z" />
<glyph unicode="t" horiz-adv-x="882" d="M24 993q-1 7 -1 14q0 15 6 30q9 21 39 25q92 8 194 14t199 11t182 11t145 16q26 4 44 -15t22 -43q1 -6 1 -12q0 -17 -9 -33q-12 -21 -44 -23q-72 -4 -141 -6t-152 -7t-187 -14t-248 -25q-18 -2 -32 16t-18 41zM366 652q0 162 1 316t4 286t7 234t10 160q2 18 24 30t48 12 t45 -12q17 -11 17 -35v-5q-12 -102 -18 -250t-8 -313q-1 -110 -1 -222v-112q1 -169 3 -315t4 -256t2 -156q0 -18 -20 -32t-45 -16h-7q-21 0 -39 10q-21 12 -21 44q-2 146 -4 308t-2 324z" />
<glyph unicode="u" horiz-adv-x="902" d="M39 409q-3 52 -3 113q0 70 4 152q8 154 34 360q4 32 28 47t49 11t42 -26t11 -60q-32 -186 -43 -323q-9 -108 -8 -190v-43q3 -96 19 -157t40 -97q42 -60 85 -65q6 -1 13 -1q37 0 72 25q42 29 80 80t68 101q30 48 57 102t50 107t41 104t28 93q0 4 4 50t7 102t6 103t3 51 q0 24 23 38t50 16h8q23 0 42 -10q21 -11 21 -36q0 -13 -8 -133l-8 -118t-6 -125t-4 -151q-1 -57 -1 -125v-71q1 -111 3 -261q0 -32 -22 -49t-48 -18t-49 15t-23 50q0 32 2 84t4 106t4 102q1 24 1 43t-1 33q-16 -40 -41 -95t-59 -113q-42 -72 -104 -133t-131 -88 q-41 -16 -83 -16l-55 7q-69 18 -127 106q-30 44 -49 118t-26 185z" />
<glyph unicode="v" horiz-adv-x="802" d="M19 1041q13 27 37 41t53 7t47 -45q54 -116 95 -223t75 -206t63 -190t59 -175q60 246 98 399t60 239t31 120t11 42q6 30 31 40q15 6 29 6l21 -3q25 -7 41 -30q10 -14 10 -33q0 -12 -4 -26l-242 -942q-6 -24 -30 -40t-53 -16t-56 17t-39 57q-62 198 -108 338t-80 235 t-58 153t-41 93t-28 53t-19 34q-9 15 -9 31q0 12 6 24z" />
<glyph unicode="w" horiz-adv-x="1038" d="M28 1032q-1 7 -1 13q0 26 14 40q17 17 40 18t44 -11t25 -36l98 -874l176 772q6 28 27 42t44 16t43 -9t26 -33q12 -60 27 -140t31 -166t35 -172t40 -157t46 -120t53 -61q40 30 63 123t33 219q9 115 9 243v26q-1 143 -9 273q-2 36 16 54t41 20h5q20 0 37 -13q19 -15 19 -43 v-169t-1 -185t-7 -185t-17 -171t-31 -143t-50 -99q-18 -22 -43 -42t-54 -28t-61 2t-62 50q-12 14 -30 60t-38 108t-41 133t-39 137t-31 120t-15 80l-168 -666q-6 -20 -27 -34t-46 -17q-8 -1 -15 -1q-17 0 -33 5q-23 7 -29 29q0 2 -3 11t-10 40t-17 93t-26 172t-38 274 t-50 402z" />
<glyph unicode="x" horiz-adv-x="892" d="M36 975q12 25 34 39t46 12t34 -26q6 -12 28 -77t54 -145t69 -153t71 -101q8 10 24 46t37 85t46 106t51 113t50 106t44 82q16 26 38 32q9 2 17 2q12 0 23 -5q18 -9 25 -31t-7 -52q-44 -96 -78 -164t-64 -131t-61 -132t-69 -165q-2 -32 31 -72t85 -72t114 -49 q36 -10 71 -10q24 0 47 5q22 6 40 -11t24 -40q2 -8 2 -16q0 -15 -7 -29q-11 -22 -45 -30q-38 -9 -74 -9q-40 0 -77 11q-71 20 -127 54t-95 73t-53 61q-22 -40 -38 -76t-32 -71t-31 -71t-33 -78q-10 -22 -32 -27q-8 -2 -16 -2q-14 0 -27 6q-21 9 -33 31t0 56l154 350 q-42 54 -77 120t-65 135t-58 137t-56 126q-9 18 -9 34q0 12 5 23z" />
<glyph unicode="y" horiz-adv-x="920" d="M60 566q-3 59 -3 120t3 124q6 126 20 244q4 30 25 44t44 14t40 -12t15 -34q-22 -156 -26 -321q-1 -30 -1 -59q0 -131 15 -242q18 -136 60 -221q40 -81 106 -81h6q68 4 118 58t84 134t54 178t33 191t19 173t12 124q6 54 27 75t45 20t44 -18t22 -41q20 -332 32 -586 q10 -218 10 -391v-57q-2 -184 -23 -317t-57 -225q-28 -72 -75 -129t-107 -90t-133 -38q-9 -1 -19 -1q-64 0 -134 30q-86 34 -137 127q-41 75 -41 184q0 26 2 53q2 16 20 29t38 15t37 -8t15 -38q-1 -18 -1 -34q0 -88 27 -142q32 -64 102 -88q47 -16 88 -16q57 0 102 31 q78 53 118 163q34 96 51 224t21 264q1 56 1 111v54q-1 81 -4 155t-7 137t-6 109q-18 -120 -51 -220t-78 -172t-104 -115t-131 -49q-10 -1 -20 -1q-69 0 -120 37q-58 42 -96 119t-57 182t-25 223z" />
<glyph unicode="z" horiz-adv-x="820" d="M-6 1008q0 22 16 42t48 22l590 26h12q44 0 74 -13q34 -15 49 -42q12 -21 12 -48q0 -7 -1 -15q-4 -36 -30 -74l-562 -734q92 12 167 18q50 4 94 4q22 0 43 -1q62 -3 115 -14t105 -29q38 -14 54 -41t13 -50t-24 -36t-57 -1q-82 28 -164 38q-63 8 -122 8q-18 0 -35 -1 q-75 -3 -138 -16t-107 -29q-25 -10 -48 -10q-10 0 -19 2q-31 6 -49 24t-18 46t24 62l622 830l-602 -26q-32 -2 -47 17t-15 41z" />
<glyph unicode="{" horiz-adv-x="520" d="M76 857q-2 25 9 49t33 36l98 70q-82 176 -112 314t-24 242t37 178t69 124t74 79t52 45q24 24 47 19t36 -24t13 -46t-20 -47q-16 -16 -47 -42t-63 -69t-57 -106t-27 -152t28 -207t106 -270q32 -64 15 -98t-73 -64l-62 -30l76 -32q56 -30 71 -64t-17 -98 q-76 -152 -106 -270t-30 -207t24 -152t56 -106t62 -69t46 -42q20 -20 21 -47t-12 -46t-35 -24t-46 19q-16 16 -52 45t-74 79t-69 124t-37 178t23 241t113 315l-98 70q-22 12 -34 36t-14 49z" />
<glyph unicode="|" horiz-adv-x="3514" d="M70 1544q-6 16 1 29t20 20t31 5t34 -14q2 18 15 30t28 15t29 -3t20 -20q8 -24 6 -45t-10 -40t-19 -35t-19 -26l-4 -4q-14 4 -33 10t-38 16t-36 25t-25 37zM134 1350q-6 16 1 29t20 20t31 5t34 -14q2 18 15 30t28 15t29 -3t20 -20q8 -24 6 -45t-10 -40t-19 -35t-19 -26 l-4 -4q-14 4 -33 10t-38 16t-36 25t-25 37zM204 1120q-6 16 1 29t20 20t31 5t34 -14q2 18 15 30t28 15t29 -3t20 -20q8 -24 6 -45t-10 -40t-19 -35t-19 -26l-4 -4q-14 4 -33 10t-38 16t-36 25t-25 37zM302 948l110 44q16 -126 54 -220t88 -157t105 -97t105 -40 q78 -12 157 23t145 106t110 174t50 229q6 142 32 246t65 178t88 122t102 76t105 41t100 17q66 -48 147 -127t150 -174t114 -194t37 -186t-81 -151t-237 -86l12 -10q154 24 229 84t88 141t-23 176t-101 190t-150 184t-167 159q122 28 261 10t301 -52q138 -30 265 -54t236 -54 t198 -72t151 -104t94 -152t28 -216q20 6 41 40t39 82t28 103t8 103q-48 -18 -84 12q-20 16 -27 40t9 50q28 46 69 27t57 -89q14 14 27 34t23 50l20 -10q-12 -38 -30 -62t-36 -38q6 -54 -8 -120t-36 -125t-51 -101t-53 -50q-6 -76 -19 -121t-32 -76t-40 -53t-42 -52t-39 -74 t-31 -117t-17 -184t4 -273l-498 -16q4 126 -20 218t-66 150t-97 85t-111 23q-58 -4 -111 -48t-95 -110t-73 -146t-45 -156l-454 16q18 68 40 145t19 172t-48 213t-161 268q-38 -108 -94 -197t-131 -150t-166 -91t-197 -18q-54 6 -122 47t-133 116t-116 183t-69 246z M1550 1242q0 -24 12 -39t27 -17t27 10t12 40q0 26 -11 40t-25 15t-27 -11t-15 -38zM3297 1388q5 -18 21 -28q28 -20 66 -6q0 20 -7 39t-19 31t-26 13t-26 -13q-14 -18 -9 -36z" />
<glyph unicode="}" horiz-adv-x="520" d="M75 1943q-1 27 12 46t35 24t46 -19q16 -16 52 -45t74 -79t69 -124t37 -178t-24 -242t-112 -314l98 -70q22 -12 34 -36t14 -49t-9 -49t-33 -36l-98 -70q82 -176 112 -314t24 -242t-37 -178t-69 -124t-74 -79t-52 -45q-24 -24 -47 -19t-36 24t-13 46t20 47q14 16 46 42 t64 69t57 106t27 152t-28 206t-106 271q-32 64 -15 98t73 64l62 30l-76 32q-56 30 -71 64t17 98q76 152 106 270t30 207t-24 152t-56 106t-63 69t-45 42q-20 20 -21 47z" />
<glyph unicode="~" horiz-adv-x="880" d="M82 808q6 44 27 78t51 58t67 37t75 13q64 2 106 -23t75 -55t65 -54t74 -20q32 4 52 34t20 74q0 24 18 33t39 5t38 -19t13 -39q-10 -72 -60 -125t-118 -59q-76 -6 -116 17t-69 53t-59 57t-84 27q-42 0 -75 -28t-31 -84q0 -24 -18 -33t-39 -5t-38 19t-13 39z" />
<glyph unicode="&#xa1;" horiz-adv-x="270" d="M52 1582q-6 32 5 61t39 43t68 -4q32 -14 37 -47t-9 -63t-42 -45t-62 5q-30 18 -36 50zM64 42q2 98 2 238t-1 307t-1 354t2 379q0 18 22 30t47 14t46 -10t19 -40q-4 -78 -6 -189t-3 -235t-1 -253t1 -244t2 -208t3 -145q0 -18 -20 -32t-46 -17t-46 8t-20 43z" />
<glyph unicode="&#xa2;" horiz-adv-x="970" d="M88 510q-2 98 24 198t76 196t115 175t140 135t151 76q26 6 63 5t75 -12t74 -31t60 -52q14 -18 9 -42t-19 -41t-31 -24t-29 7q-36 46 -88 63t-86 7q-52 -14 -111 -59t-113 -112t-100 -148t-71 -163t-25 -161t36 -141q32 -56 80 -72t102 -6t111 42t108 70t92 76t63 64 q18 18 39 14t37 -21t21 -39t-9 -40q-46 -54 -109 -107t-135 -95t-147 -68t-144 -24t-126 36t-93 112q-38 84 -40 182zM448 144q2 98 6 236t9 302t9 348t6 376q0 18 21 30t47 14t47 -10t19 -40q-4 -78 -8 -188t-8 -232t-8 -249t-6 -240t-3 -205t1 -144q0 -18 -20 -33t-46 -18 t-46 9t-20 44z" />
<glyph unicode="&#xa3;" horiz-adv-x="1180" d="M78 633q-4 23 5 44t39 25l162 12q0 232 12 382q12 148 49 265t101 201q44 56 112 94t146 51t158 1t148 -54q24 -14 25 -41t-14 -50t-43 -33t-64 10q-34 20 -76 32t-90 9t-97 -23t-95 -64q-34 -34 -56 -77t-35 -94t-20 -107t-9 -114q-6 -108 -9 -202t-5 -178q118 8 227 15 t193 17q26 2 44 -16t22 -42t-8 -45t-44 -23q-98 -6 -200 -12t-234 -16q2 -164 8 -284t10 -214q62 -2 152 -3t183 0t177 5t134 12q26 4 44 -15t22 -44t-8 -46t-44 -21h-700q-18 0 -37 1t-34 6t-25 16t-10 33q-4 162 -7 296t-3 248q-38 -4 -76 -7t-80 -7q-18 -2 -32 16t-18 41 z" />
<glyph unicode="&#xa5;" horiz-adv-x="1122" d="M39 1640q11 22 31 38t43 19t39 -21q118 -182 221 -321t205 -251h6q94 108 194 255t210 315q14 24 38 21t44 -19t31 -38t-1 -38q-72 -102 -123 -177t-89 -130t-66 -95t-55 -76t-55 -72t-66 -82q-2 -24 -3 -48t-1 -50q84 4 156 10t124 16q26 4 44 -15t22 -43t-8 -45 t-44 -23q-74 -4 -144 -7t-154 -7l-8 -180q90 4 166 10t132 16q26 4 44 -15t22 -43t-8 -45t-44 -23q-76 -4 -150 -7t-166 -7q-4 -132 -5 -244t3 -184q0 -18 -20 -33t-46 -18t-46 9t-20 44q2 100 5 198t7 218q-60 -4 -131 -11t-159 -17q-18 -2 -32 16t-18 41t5 44t39 25 q70 6 147 10t153 8q0 42 1 86t3 94q-64 -6 -138 -13t-166 -17q-18 -2 -32 16t-18 41t5 44t39 25q74 6 153 11t159 9v57t2 61q-38 46 -68 81t-59 69t-61 73t-72 93t-92 127t-124 177q-12 16 -1 38z" />
<glyph unicode="&#xa8;" horiz-adv-x="600" d="M74 1190q-6 32 5 61t39 43t68 -4q32 -14 37 -47t-9 -63t-42 -46t-62 6q-30 18 -36 50zM380 1190q-6 32 5 61t39 43t68 -4q32 -14 37 -47t-9 -63t-42 -46t-62 6q-30 18 -36 50z" />
<glyph unicode="&#xa9;" horiz-adv-x="1548" d="M57 725q-13 141 14 280t93 268t168 235q94 96 206 145t227 57t226 -25t205 -102t163 -173t99 -240q22 -100 28 -209t-9 -218t-51 -212t-98 -193q-74 -108 -176 -176t-216 -97t-234 -18t-228 60t-199 136t-147 213q-58 128 -71 269zM178 746q12 -128 66 -248 q46 -100 121 -171t167 -111t192 -49t196 16t179 85t141 158q42 72 70 158t42 176t13 182t-17 178q-30 168 -127 282t-227 159t-277 14t-279 -149q-96 -84 -158 -195t-88 -234t-14 -251zM338 660q-2 98 24 198t76 196t115 175t140 135t151 76q26 6 63 5t75 -12t74 -31t60 -52 q14 -18 9 -42t-19 -41t-31 -24t-29 7q-36 46 -88 63t-86 7q-52 -14 -111 -59t-113 -112t-100 -148t-71 -163t-25 -161t36 -141q32 -56 80 -72t102 -6t111 42t108 70t92 76t63 64q18 18 39 14t37 -21t21 -39t-9 -40q-46 -54 -109 -107t-135 -95t-147 -68t-144 -24t-126 36 t-93 112q-38 84 -40 182z" />
<glyph unicode="&#xab;" horiz-adv-x="1324" d="M50 281q-2 27 14 56t52 49q88 50 173 94t157 82t126 67t80 47t53 8t42 -35t11 -55t-42 -50q-112 -60 -193 -99t-138 -65t-96 -43t-69 -33q68 -28 156 -60t168 -59t138 -46t66 -21q20 -6 25 -30t-4 -49t-31 -41t-54 -4l-576 214q-26 6 -41 26t-17 47zM528 319q-2 27 14 56 t52 49q88 50 173 94t157 82t126 67t80 47t53 8t42 -35t11 -55t-42 -50q-112 -60 -193 -99t-138 -65t-96 -43t-69 -33q68 -28 156 -60t168 -59t138 -46t66 -21q20 -6 25 -30t-4 -49t-31 -41t-54 -4l-576 214q-26 6 -41 26t-17 47z" />
<glyph unicode="&#xad;" horiz-adv-x="728" d="M90 654q-4 24 5 45t39 21q144 4 258 17t234 31q26 4 44 -15t22 -43t-8 -45t-44 -23q-74 -6 -114 -8t-63 -4t-41 -4t-49 -5t-84 -10t-149 -17q-18 -2 -32 17t-18 43z" />
<glyph unicode="&#xae;" horiz-adv-x="1548" d="M57 725q-13 141 14 280t93 268t168 235q94 96 206 145t227 57t226 -25t205 -102t163 -173t99 -240q22 -100 28 -209t-9 -218t-51 -212t-98 -193q-74 -108 -176 -176t-216 -97t-234 -18t-228 60t-199 136t-147 213q-58 128 -71 269zM178 746q12 -128 66 -248 q46 -100 121 -171t167 -111t192 -49t196 16t179 85t141 158q42 72 70 158t42 176t13 182t-17 178q-30 168 -127 282t-227 159t-277 14t-279 -149q-96 -84 -158 -195t-88 -234t-14 -251zM498 458q4 104 6 182t3 168t1 210v308q0 10 16 14t36 3t36 -6t16 -13v-26q68 30 145 38 t142 -7t108 -53t47 -102q4 -74 -33 -127t-96 -89t-128 -58t-129 -34q90 -46 161 -95t124 -93t88 -80t55 -54q10 -10 -1 -26t-31 -30t-41 -19t-33 9q-62 74 -121 127t-109 90t-91 62t-67 45q0 -108 4 -191t4 -159q0 -10 -18 -16t-39 -7t-38 6t-17 23zM606 954q40 4 96 16 t107 35t88 60t41 91q2 44 -29 65t-79 23t-107 -13t-113 -43z" />
<glyph unicode="&#xaf;" horiz-adv-x="728" d="M70 1204q-4 24 5 45t39 21q144 4 258 17t234 31q26 4 44 -15t22 -43t-8 -45t-44 -23q-74 -6 -114 -8t-63 -4t-41 -4t-49 -5t-84 -10t-149 -17q-18 -2 -32 17t-18 43z" />
<glyph unicode="&#xb0;" horiz-adv-x="400" d="M76 1136q-2 26 8 51t29 45t46 33t59 15q28 2 54 -10t46 -32t30 -47t8 -55q-2 -24 -16 -46t-34 -38t-44 -26t-46 -8q-52 4 -94 36t-46 82zM154 1140q4 -16 20 -29t36 -15q32 -2 50 17t18 37q0 16 -17 34t-43 18q-36 -2 -52 -23t-12 -39z" />
<glyph unicode="&#xb4;" horiz-adv-x="448" d="M82 1207q-4 23 16 37q18 12 46 32t59 43t59 45t44 40q20 22 41 14t36 -27t19 -43t-10 -36q-64 -50 -112 -86t-100 -80q-18 -16 -41 -8t-38 27t-19 42z" />
<glyph unicode="&#xb7;" horiz-adv-x="312" d="M86 802q-6 32 5 61t39 43t68 -4q32 -14 37 -47t-9 -63t-42 -46t-62 6q-30 18 -36 50z" />
<glyph unicode="&#xb8;" horiz-adv-x="420" d="M83 -295q1 19 17 33t44 12q72 -8 108 12t39 46t-25 49t-84 23q-18 0 -27 9t-13 22t-5 28t-1 27v82h82l-8 -84q62 0 103 -23t60 -59t16 -77t-31 -76t-81 -57t-131 -20q-34 0 -49 17t-14 36z" />
<glyph unicode="&#xbb;" horiz-adv-x="1324" d="M49 126q5 24 27 30q8 2 66 21t138 46t168 59t156 60q-30 16 -69 33t-96 43t-138 65t-193 99q-38 20 -42 50t11 55t42 35t53 -8t79 -47t125 -67t158 -82t174 -94q36 -20 52 -49t14 -56t-17 -47t-41 -26l-576 -214q-34 -12 -56 4t-31 41t-4 49zM527 88q5 24 27 30 q8 2 66 21t138 46t168 59t156 60q-30 16 -69 33t-96 43t-138 65t-193 99q-38 20 -42 50t11 55t42 35t53 -8t79 -47t125 -67t158 -82t174 -94q36 -20 52 -49t14 -56t-17 -47t-41 -26l-576 -214q-34 -12 -56 4t-31 41t-4 49z" />
<glyph unicode="&#xbf;" horiz-adv-x="1050" d="M64 379q16 107 70 215q16 32 37 62t45 60q78 94 210 176t314 130q2 26 2 65t-1 80t-1 77t2 54q2 20 22 29t43 7t41 -12t16 -30l4 -318q-4 -38 -29 -51t-59 -21q-110 -28 -196 -71t-152 -95t-112 -110t-76 -116q-32 -60 -44 -127t0 -127t49 -104t103 -60q52 -12 123 -3 t147 33t149 61t127 81q32 28 61 28t45 -18t12 -48t-38 -62q-56 -52 -136 -93t-167 -68t-172 -37t-151 -2q-116 16 -184 75t-94 146t-10 194zM720 1534q-4 34 11 62t44 42t63 -8q28 -20 33 -53t-9 -60t-42 -40t-66 7q-30 16 -34 50z" />
<glyph unicode="&#xc0;" d="M38 50l348 1508q16 70 53 105t78 35t80 -34t61 -100q66 -204 114 -347t81 -241t54 -158t35 -99t23 -64t19 -51t22 -63t31 -99t48 -157t73 -239q8 -30 -6 -51t-37 -27t-47 5t-36 45q-18 50 -41 119t-49 142t-50 140t-44 113q-126 -20 -273 -43t-305 -35l-94 -446 q-6 -32 -33 -47t-54 -11t-45 29t-6 71zM296 588q28 2 101 12t156 22t158 24t109 18q-78 236 -130 398t-86 263t-52 145t-28 44q-26 -82 -51 -174t-49 -186t-45 -184t-37 -166t-28 -132zM378 1956q4 24 19 43t36 27t41 -14q16 -18 44 -40t59 -45t59 -43t46 -32q20 -14 16 -37 t-19 -42t-38 -27t-41 8q-52 44 -100 80t-112 86q-14 12 -10 36z" />
<glyph unicode="&#xc1;" d="M38 50l348 1508q16 70 53 105t78 35t80 -34t61 -100q66 -204 114 -347t81 -241t54 -158t35 -99t23 -64t19 -51t22 -63t31 -99t48 -157t73 -239q8 -30 -6 -51t-37 -27t-47 5t-36 45q-18 50 -41 119t-49 142t-50 140t-44 113q-126 -20 -273 -43t-305 -35l-94 -446 q-6 -32 -33 -47t-54 -11t-45 29t-6 71zM296 588q28 2 101 12t156 22t158 24t109 18q-78 236 -130 398t-86 263t-52 145t-28 44q-26 -82 -51 -174t-49 -186t-45 -184t-37 -166t-28 -132zM444 1805q-4 23 16 37q18 12 46 32t59 43t59 45t44 40q20 22 41 14t36 -27t19 -43 t-10 -36q-64 -50 -112 -86t-100 -80q-18 -16 -41 -8t-38 27t-19 42z" />
<glyph unicode="&#xc2;" d="M38 50l348 1508q16 70 53 105t78 35t80 -34t61 -100q66 -204 114 -347t81 -241t54 -158t35 -99t23 -64t19 -51t22 -63t31 -99t48 -157t73 -239q8 -30 -6 -51t-37 -27t-47 5t-36 45q-18 50 -41 119t-49 142t-50 140t-44 113q-126 -20 -273 -43t-305 -35l-94 -446 q-6 -32 -33 -47t-54 -11t-45 29t-6 71zM269 1792q-3 22 13 38q30 30 73 61t83 65q34 28 75 25t63 -19q18 -12 40 -31t45 -38t44 -37t35 -26q20 -14 17 -35t-17 -38t-36 -24t-40 9q-40 32 -76 60t-78 60l-150 -118q-18 -16 -39 -11t-35 21t-17 38zM296 588q28 2 101 12 t156 22t158 24t109 18q-78 236 -130 398t-86 263t-52 145t-28 44q-26 -82 -51 -174t-49 -186t-45 -184t-37 -166t-28 -132z" />
<glyph unicode="&#xc3;" d="M38 50l348 1508q16 70 53 105t78 35t80 -34t61 -100q66 -204 114 -347t81 -241t54 -158t35 -99t23 -64t19 -51t22 -63t31 -99t48 -157t73 -239q8 -30 -6 -51t-37 -27t-47 5t-36 45q-18 50 -41 119t-49 142t-50 140t-44 113q-126 -20 -273 -43t-305 -35l-94 -446 q-6 -32 -33 -47t-54 -11t-45 29t-6 71zM166 1794q6 44 27 78t51 58t67 37t75 13q64 2 106 -23t75 -55t65 -54t74 -20q32 4 52 34t20 74q0 24 18 33t39 5t38 -19t13 -39q-10 -72 -60 -125t-118 -59q-76 -6 -116 17t-69 53t-59 57t-84 27q-42 0 -75 -28t-31 -84q0 -24 -18 -33 t-39 -5t-38 19t-13 39zM296 588q28 2 101 12t156 22t158 24t109 18q-78 236 -130 398t-86 263t-52 145t-28 44q-26 -82 -51 -174t-49 -186t-45 -184t-37 -166t-28 -132z" />
<glyph unicode="&#xc4;" d="M38 50l348 1508q16 70 53 105t78 35t80 -34t61 -100q66 -204 114 -347t81 -241t54 -158t35 -99t23 -64t19 -51t22 -63t31 -99t48 -157t73 -239q8 -30 -6 -51t-37 -27t-47 5t-36 45q-18 50 -41 119t-49 142t-50 140t-44 113q-126 -20 -273 -43t-305 -35l-94 -446 q-6 -32 -33 -47t-54 -11t-45 29t-6 71zM266 1788q-6 32 5 61t39 43t68 -4q32 -14 37 -47t-9 -63t-42 -46t-62 6q-30 18 -36 50zM296 588q28 2 101 12t156 22t158 24t109 18q-78 236 -130 398t-86 263t-52 145t-28 44q-26 -82 -51 -174t-49 -186t-45 -184t-37 -166t-28 -132z M572 1788q-6 32 5 61t39 43t68 -4q32 -14 37 -47t-9 -63t-42 -46t-62 6q-30 18 -36 50z" />
<glyph unicode="&#xc5;" d="M38 50l348 1508q16 70 53 105t78 35t80 -34t61 -100q66 -204 114 -347t81 -241t54 -158t35 -99t23 -64t19 -51t22 -63t31 -99t48 -157t73 -239q8 -30 -6 -51t-37 -27t-47 5t-36 45q-18 50 -41 119t-49 142t-50 140t-44 113q-126 -20 -273 -43t-305 -35l-94 -446 q-6 -32 -33 -47t-54 -11t-45 29t-6 71zM296 588q28 2 101 12t156 22t158 24t109 18q-78 236 -130 398t-86 263t-52 145t-28 44q-26 -82 -51 -174t-49 -186t-45 -184t-37 -166t-28 -132zM370 1854q-2 26 8 51t29 45t46 33t59 15q28 2 54 -10t46 -32t30 -47t8 -55 q-2 -24 -16 -46t-34 -38t-44 -26t-46 -8q-52 4 -94 36t-46 82zM448 1858q4 -16 20 -29t36 -15q32 -2 50 17t18 37q0 16 -17 34t-43 18q-36 -2 -52 -23t-12 -39z" />
<glyph unicode="&#xc6;" horiz-adv-x="1976" d="M33 24q-11 28 13 72l764 1470q16 32 46 62t65 43t68 3t57 -58q236 26 442 37t400 37q18 2 35 -19t24 -48t-2 -50t-41 -25q-152 -10 -265 -15t-210 -9t-191 -10t-208 -20q-4 -150 -4 -317v-337q108 12 185 21t147 17t143 17t173 23q18 2 35 -19t24 -48t-2 -50t-41 -25 q-104 -8 -175 -13t-123 -11t-91 -11t-78 -9t-85 -9t-112 -11q0 -146 1 -285t1 -269q140 4 259 10t222 15t196 19t183 22q18 2 35 -19t24 -48t-2 -50t-41 -25q-152 -10 -266 -17t-212 -12t-192 -9t-206 -8q-4 -18 -27 -31t-50 -15t-48 9t-19 43q6 104 10 191t7 165t4 148 t1 140l-426 -26l-312 -634q-14 -30 -44 -40t-55 0t-36 38zM540 788l366 30q-2 126 -6 269t-8 341q-62 -104 -118 -203t-103 -185t-80 -151t-51 -101z" />
<glyph unicode="&#xc7;" horiz-adv-x="1154" d="M62 532q-6 100 6 228t47 259t98 256t160 220t231 147t314 40q32 -2 52 -23t23 -44t-12 -41t-51 -14q-170 12 -293 -44t-207 -153t-133 -220t-74 -244t-31 -226t0 -163q8 -86 38 -158t73 -122t97 -75t110 -19q78 8 150 42t134 85t114 115t92 134q12 22 34 20t41 -19 t27 -45t-8 -56q-44 -76 -109 -149t-141 -130t-156 -92t-154 -37q-208 -4 -333 131t-139 397zM401 -295q1 19 17 33t44 12q72 -8 108 12t39 46t-25 49t-84 23q-18 0 -27 9t-13 22t-5 28t-1 27v82h82l-8 -84q62 0 103 -23t60 -59t16 -77t-31 -76t-81 -57t-131 -20 q-34 0 -49 17t-14 36z" />
<glyph unicode="&#xc8;" horiz-adv-x="1134" d="M42 42q10 160 15 285t7 235t0 216t-4 229t-6 275t-8 354q0 18 23 30t51 14t50 -10t22 -40v-14q240 26 450 37t404 37q18 2 35 -19t24 -48t-2 -50t-41 -25q-152 -10 -265 -15t-210 -9t-191 -10t-208 -20q-4 -150 -4 -317v-337q108 12 185 21t147 17t143 17t173 23 q18 2 35 -19t24 -48t-2 -50t-41 -25q-104 -8 -175 -13t-123 -11t-91 -11t-78 -9t-85 -9t-112 -11q0 -146 1 -285t1 -269q140 4 259 10t222 15t196 19t183 22q18 2 35 -19t24 -48t-2 -50t-41 -25q-152 -10 -266 -17t-212 -12t-192 -9t-206 -8q-4 -18 -27 -31t-50 -15t-48 9 t-19 43zM402 1946q4 24 19 43t36 27t41 -14q16 -18 44 -40t59 -45t59 -43t46 -32q20 -14 16 -37t-19 -42t-38 -27t-41 8q-52 44 -100 80t-112 86q-14 12 -10 36z" />
<glyph unicode="&#xc9;" horiz-adv-x="1134" d="M42 42q10 160 15 285t7 235t0 216t-4 229t-6 275t-8 354q0 18 23 30t51 14t50 -10t22 -40v-14q240 26 450 37t404 37q18 2 35 -19t24 -48t-2 -50t-41 -25q-152 -10 -265 -15t-210 -9t-191 -10t-208 -20q-4 -150 -4 -317v-337q108 12 185 21t147 17t143 17t173 23 q18 2 35 -19t24 -48t-2 -50t-41 -25q-104 -8 -175 -13t-123 -11t-91 -11t-78 -9t-85 -9t-112 -11q0 -146 1 -285t1 -269q140 4 259 10t222 15t196 19t183 22q18 2 35 -19t24 -48t-2 -50t-41 -25q-152 -10 -266 -17t-212 -12t-192 -9t-206 -8q-4 -18 -27 -31t-50 -15t-48 9 t-19 43zM410 1805q-4 23 16 37q18 12 46 32t59 43t59 45t44 40q20 22 41 14t36 -27t19 -43t-10 -36q-64 -50 -112 -86t-100 -80q-18 -16 -41 -8t-38 27t-19 42z" />
<glyph unicode="&#xca;" horiz-adv-x="1134" d="M42 42q10 160 15 285t7 235t0 216t-4 229t-6 275t-8 354q0 18 23 30t51 14t50 -10t22 -40v-14q240 26 450 37t404 37q18 2 35 -19t24 -48t-2 -50t-41 -25q-152 -10 -265 -15t-210 -9t-191 -10t-208 -20q-4 -150 -4 -317v-337q108 12 185 21t147 17t143 17t173 23 q18 2 35 -19t24 -48t-2 -50t-41 -25q-104 -8 -175 -13t-123 -11t-91 -11t-78 -9t-85 -9t-112 -11q0 -146 1 -285t1 -269q140 4 259 10t222 15t196 19t183 22q18 2 35 -19t24 -48t-2 -50t-41 -25q-152 -10 -266 -17t-212 -12t-192 -9t-206 -8q-4 -18 -27 -31t-50 -15t-48 9 t-19 43zM321 1792q-3 22 13 38q30 30 73 61t83 65q34 28 75 25t63 -19q18 -12 40 -31t45 -38t44 -37t35 -26q20 -14 17 -35t-17 -38t-36 -24t-40 9q-40 32 -76 60t-78 60l-150 -118q-18 -16 -39 -11t-35 21t-17 38z" />
<glyph unicode="&#xcb;" horiz-adv-x="1134" d="M42 42q10 160 15 285t7 235t0 216t-4 229t-6 275t-8 354q0 18 23 30t51 14t50 -10t22 -40v-14q240 26 450 37t404 37q18 2 35 -19t24 -48t-2 -50t-41 -25q-152 -10 -265 -15t-210 -9t-191 -10t-208 -20q-4 -150 -4 -317v-337q108 12 185 21t147 17t143 17t173 23 q18 2 35 -19t24 -48t-2 -50t-41 -25q-104 -8 -175 -13t-123 -11t-91 -11t-78 -9t-85 -9t-112 -11q0 -146 1 -285t1 -269q140 4 259 10t222 15t196 19t183 22q18 2 35 -19t24 -48t-2 -50t-41 -25q-152 -10 -266 -17t-212 -12t-192 -9t-206 -8q-4 -18 -27 -31t-50 -15t-48 9 t-19 43zM336 1788q-6 32 5 61t39 43t68 -4q32 -14 37 -47t-9 -63t-42 -46t-62 6q-30 18 -36 50zM642 1788q-6 32 5 61t39 43t68 -4q32 -14 37 -47t-9 -63t-42 -46t-62 6q-30 18 -36 50z" />
<glyph unicode="&#xcc;" horiz-adv-x="940" d="M50 1591q-4 23 5 44t39 25q92 8 194 14t199 11t182 11t145 16q26 4 44 -15t22 -43t-8 -45t-44 -23q-74 -4 -145 -6t-157 -8q-4 -162 -7 -347t-5 -375t-3 -377t-1 -353q92 6 173 12t139 16q26 4 44 -15t22 -43t-8 -45t-44 -23q-72 -4 -141 -6t-152 -7t-187 -14t-248 -25 q-18 -2 -32 16t-18 41t5 44t39 25q64 6 132 10l136 8q8 140 13 253t8 215t3 201t-1 213t-4 251t-7 315q-58 -4 -128 -11t-154 -17q-18 -2 -32 16t-18 41zM306 1946q4 24 19 43t36 27t41 -14q16 -18 44 -40t59 -45t59 -43t46 -32q20 -14 16 -37t-19 -42t-38 -27t-41 8 q-52 44 -100 80t-112 86q-14 12 -10 36z" />
<glyph unicode="&#xcd;" horiz-adv-x="940" d="M50 1591q-4 23 5 44t39 25q92 8 194 14t199 11t182 11t145 16q26 4 44 -15t22 -43t-8 -45t-44 -23q-74 -4 -145 -6t-157 -8q-4 -162 -7 -347t-5 -375t-3 -377t-1 -353q92 6 173 12t139 16q26 4 44 -15t22 -43t-8 -45t-44 -23q-72 -4 -141 -6t-152 -7t-187 -14t-248 -25 q-18 -2 -32 16t-18 41t5 44t39 25q64 6 132 10l136 8q8 140 13 253t8 215t3 201t-1 213t-4 251t-7 315q-58 -4 -128 -11t-154 -17q-18 -2 -32 16t-18 41zM314 1805q-4 23 16 37q18 12 46 32t59 43t59 45t44 40q20 22 41 14t36 -27t19 -43t-10 -36q-64 -50 -112 -86t-100 -80 q-18 -16 -41 -8t-38 27t-19 42z" />
<glyph unicode="&#xce;" horiz-adv-x="940" d="M50 1591q-4 23 5 44t39 25q92 8 194 14t199 11t182 11t145 16q26 4 44 -15t22 -43t-8 -45t-44 -23q-74 -4 -145 -6t-157 -8q-4 -162 -7 -347t-5 -375t-3 -377t-1 -353q92 6 173 12t139 16q26 4 44 -15t22 -43t-8 -45t-44 -23q-72 -4 -141 -6t-152 -7t-187 -14t-248 -25 q-18 -2 -32 16t-18 41t5 44t39 25q64 6 132 10l136 8q8 140 13 253t8 215t3 201t-1 213t-4 251t-7 315q-58 -4 -128 -11t-154 -17q-18 -2 -32 16t-18 41zM223 1792q-3 22 13 38q30 30 73 61t83 65q34 28 75 25t63 -19q18 -12 40 -31t45 -38t44 -37t35 -26q20 -14 17 -35 t-17 -38t-36 -24t-40 9q-40 32 -76 60t-78 60l-150 -118q-18 -16 -39 -11t-35 21t-17 38z" />
<glyph unicode="&#xcf;" horiz-adv-x="940" d="M50 1591q-4 23 5 44t39 25q92 8 194 14t199 11t182 11t145 16q26 4 44 -15t22 -43t-8 -45t-44 -23q-74 -4 -145 -6t-157 -8q-4 -162 -7 -347t-5 -375t-3 -377t-1 -353q92 6 173 12t139 16q26 4 44 -15t22 -43t-8 -45t-44 -23q-72 -4 -141 -6t-152 -7t-187 -14t-248 -25 q-18 -2 -32 16t-18 41t5 44t39 25q64 6 132 10l136 8q8 140 13 253t8 215t3 201t-1 213t-4 251t-7 315q-58 -4 -128 -11t-154 -17q-18 -2 -32 16t-18 41zM240 1788q-6 32 5 61t39 43t68 -4q32 -14 37 -47t-9 -63t-42 -46t-62 6q-30 18 -36 50zM546 1788q-6 32 5 61t39 43 t68 -4q32 -14 37 -47t-9 -63t-42 -46t-62 6q-30 18 -36 50z" />
<glyph unicode="&#xd0;" horiz-adv-x="1134" d="M-8 790q4 -24 18 -43t32 -17q96 10 149 17t84 10t49 5t41 4t63 4t114 8q32 2 44 23t8 45t-22 43t-44 15q-120 -18 -234 -31t-258 -17q-30 0 -39 -21t-5 -45zM42 42q10 160 15 287t8 240t2 222t-4 236t-6 281t-7 356q0 18 23 30t51 14t50 -10t22 -40q130 -18 242 -60 t205 -103t167 -137t132 -162q72 -114 111 -230t43 -230q4 -158 -68 -300t-252 -250q-130 -76 -280 -111t-310 -39q-4 -18 -27 -31t-50 -15t-48 9t-19 43zM186 154q150 10 282 38t240 84q142 72 204 186t63 242t-45 255t-120 225q-62 80 -136 141t-155 104t-165 69t-162 38 q-4 -158 -5 -334t-1 -357v-357v-334z" />
<glyph unicode="&#xd1;" horiz-adv-x="1334" d="M42 42q10 160 15 287t8 240t2 222t-4 236t-6 281t-7 356q0 18 18 29t42 12t48 -10t38 -37q86 -162 178 -339t202 -364t245 -378t307 -379q10 134 16 246t7 217t0 209t-6 223t-11 258t-14 313q0 18 20 30t46 14t47 -10t23 -40q12 -174 19 -380t8 -418t-6 -419t-27 -381 q-2 -18 -14 -35t-31 -25t-43 -5t-50 23q-56 46 -129 132t-155 199t-168 246t-170 269t-161 268t-139 246q-2 -160 -3 -337t-1 -352v-342v-307q0 -18 -23 -33t-51 -18t-50 9t-20 44zM306 1804q6 44 27 78t51 58t67 37t75 13q64 2 106 -23t75 -55t65 -54t74 -20q32 4 52 34 t20 74q0 24 18 33t39 5t38 -19t13 -39q-10 -72 -60 -125t-118 -59q-76 -6 -116 17t-69 53t-59 57t-84 27q-42 0 -75 -28t-31 -84q0 -24 -18 -33t-39 -5t-38 19t-13 39z" />
<glyph unicode="&#xd2;" horiz-adv-x="1130" d="M44 830q4 76 16 160t36 168t59 166t87 152q62 86 133 137t145 70t145 10t135 -41q62 -34 113 -92t83 -122q76 -152 92 -326t4 -350q-10 -132 -41 -258t-93 -234q-80 -142 -188 -207t-218 -67q-144 -2 -244 65t-162 182t-86 267t-16 320zM178 858q-10 -122 5 -253t58 -238 t119 -171t190 -54q84 4 166 54t138 146q38 66 62 146t36 167t13 176t-5 175q-4 66 -13 144t-33 151t-67 135t-115 96q-84 40 -183 12t-189 -146q-80 -104 -126 -239t-56 -301zM400 1946q4 24 19 43t36 27t41 -14q16 -18 44 -40t59 -45t59 -43t46 -32q20 -14 16 -37t-19 -42 t-38 -27t-41 8q-52 44 -100 80t-112 86q-14 12 -10 36z" />
<glyph unicode="&#xd3;" horiz-adv-x="1130" d="M44 830q4 76 16 160t36 168t59 166t87 152q62 86 133 137t145 70t145 10t135 -41q62 -34 113 -92t83 -122q76 -152 92 -326t4 -350q-10 -132 -41 -258t-93 -234q-80 -142 -188 -207t-218 -67q-144 -2 -244 65t-162 182t-86 267t-16 320zM178 858q-10 -122 5 -253t58 -238 t119 -171t190 -54q84 4 166 54t138 146q38 66 62 146t36 167t13 176t-5 175q-4 66 -13 144t-33 151t-67 135t-115 96q-84 40 -183 12t-189 -146q-80 -104 -126 -239t-56 -301zM408 1805q-4 23 16 37q18 12 46 32t59 43t59 45t44 40q20 22 41 14t36 -27t19 -43t-10 -36 q-64 -50 -112 -86t-100 -80q-18 -16 -41 -8t-38 27t-19 42z" />
<glyph unicode="&#xd4;" horiz-adv-x="1130" d="M44 830q4 76 16 160t36 168t59 166t87 152q62 86 133 137t145 70t145 10t135 -41q62 -34 113 -92t83 -122q76 -152 92 -326t4 -350q-10 -132 -41 -258t-93 -234q-80 -142 -188 -207t-218 -67q-144 -2 -244 65t-162 182t-86 267t-16 320zM178 858q-10 -122 5 -253t58 -238 t119 -171t190 -54q84 4 166 54t138 146q38 66 62 146t36 167t13 176t-5 175q-4 66 -13 144t-33 151t-67 135t-115 96q-84 40 -183 12t-189 -146q-80 -104 -126 -239t-56 -301zM319 1792q-3 22 13 38q30 30 73 61t83 65q34 28 75 25t63 -19q18 -12 40 -31t45 -38t44 -37 t35 -26q20 -14 17 -35t-17 -38t-36 -24t-40 9q-40 32 -76 60t-78 60l-150 -118q-18 -16 -39 -11t-35 21t-17 38z" />
<glyph unicode="&#xd5;" horiz-adv-x="1130" d="M44 830q4 76 16 160t36 168t59 166t87 152q62 86 133 137t145 70t145 10t135 -41q62 -34 113 -92t83 -122q76 -152 92 -326t4 -350q-10 -132 -41 -258t-93 -234q-80 -142 -188 -207t-218 -67q-144 -2 -244 65t-162 182t-86 267t-16 320zM178 858q-10 -122 5 -253t58 -238 t119 -171t190 -54q84 4 166 54t138 146q38 66 62 146t36 167t13 176t-5 175q-4 66 -13 144t-33 151t-67 135t-115 96q-84 40 -183 12t-189 -146q-80 -104 -126 -239t-56 -301zM204 1804q6 44 27 78t51 58t67 37t75 13q64 2 106 -23t75 -55t65 -54t74 -20q32 4 52 34t20 74 q0 24 18 33t39 5t38 -19t13 -39q-10 -72 -60 -125t-118 -59q-76 -6 -116 17t-69 53t-59 57t-84 27q-42 0 -75 -28t-31 -84q0 -24 -18 -33t-39 -5t-38 19t-13 39z" />
<glyph unicode="&#xd6;" horiz-adv-x="1130" d="M44 830q4 76 16 160t36 168t59 166t87 152q62 86 133 137t145 70t145 10t135 -41q62 -34 113 -92t83 -122q76 -152 92 -326t4 -350q-10 -132 -41 -258t-93 -234q-80 -142 -188 -207t-218 -67q-144 -2 -244 65t-162 182t-86 267t-16 320zM178 858q-10 -122 5 -253t58 -238 t119 -171t190 -54q84 4 166 54t138 146q38 66 62 146t36 167t13 176t-5 175q-4 66 -13 144t-33 151t-67 135t-115 96q-84 40 -183 12t-189 -146q-80 -104 -126 -239t-56 -301zM334 1788q-6 32 5 61t39 43t68 -4q32 -14 37 -47t-9 -63t-42 -46t-62 6q-30 18 -36 50zM640 1788 q-6 32 5 61t39 43t68 -4q32 -14 37 -47t-9 -63t-42 -46t-62 6q-30 18 -36 50z" />
<glyph unicode="&#xd7;" horiz-adv-x="988" d="M185 907q1 25 16 45t38 26t47 -14q52 -50 100 -96t106 -98q60 68 110 129t84 107q16 22 41 22t45 -14t27 -38t-13 -48q-52 -58 -101 -112t-109 -122q52 -44 114 -97t142 -117q14 -12 11 -35t-16 -42t-35 -26t-44 11q-60 50 -123 106t-123 112q-40 -50 -86 -107t-102 -129 q-12 -14 -34 -11t-42 16t-28 34t10 45q46 56 96 114t102 116q-62 56 -115 102t-97 78q-22 18 -21 43z" />
<glyph unicode="&#xd8;" horiz-adv-x="1130" d="M44 830q4 76 16 160t36 168t59 166t87 152q62 86 133 137t145 70t145 10t135 -41q62 -34 113 -92t83 -122q76 -152 92 -326t4 -350q-10 -132 -41 -258t-93 -234q-80 -142 -188 -207t-218 -67q-144 -2 -244 65t-162 182t-86 267t-16 320zM178 858q-10 -122 5 -253t58 -238 t119 -171t190 -54q84 4 166 54t138 146q38 66 62 146t36 167t13 176t-5 175q-4 66 -13 144t-33 151t-67 135t-115 96q-84 40 -183 12t-189 -146q-80 -104 -126 -239t-56 -301zM272 50q52 194 97 345t85 277t75 235t66 222t61 240t60 285q6 32 30 37t50 -4t45 -29t15 -38 q-42 -170 -102 -378t-123 -423t-121 -422t-96 -377q-6 -28 -31 -33t-51 3t-45 25t-15 35z" />
<glyph unicode="&#xd9;" horiz-adv-x="1032" d="M52 1071q0 127 3 238t8 198t9 133q2 32 23 48t44 14t41 -20t16 -52q-12 -184 -18 -359t-3 -333t17 -294t44 -240q22 -76 53 -132t65 -92t69 -53t65 -13q102 10 176 95t120 217q46 134 68 297t26 328t-8 315t-32 256q-6 34 11 53t42 22t47 -10t26 -39q6 -60 13 -149 t12 -196t5 -227t-9 -241t-29 -238t-54 -219q-28 -80 -67 -147t-90 -118t-114 -82t-139 -37q-62 -4 -120 21t-106 74t-86 119t-62 156q-24 92 -39 209t-21 244t-6 254zM352 1946q4 24 19 43t36 27t41 -14q16 -18 44 -40t59 -45t59 -43t46 -32q20 -14 16 -37t-19 -42t-38 -27 t-41 8q-52 44 -100 80t-112 86q-14 12 -10 36z" />
<glyph unicode="&#xda;" horiz-adv-x="1032" d="M52 1071q0 127 3 238t8 198t9 133q2 32 23 48t44 14t41 -20t16 -52q-12 -184 -18 -359t-3 -333t17 -294t44 -240q22 -76 53 -132t65 -92t69 -53t65 -13q102 10 176 95t120 217q46 134 68 297t26 328t-8 315t-32 256q-6 34 11 53t42 22t47 -10t26 -39q6 -60 13 -149 t12 -196t5 -227t-9 -241t-29 -238t-54 -219q-28 -80 -67 -147t-90 -118t-114 -82t-139 -37q-62 -4 -120 21t-106 74t-86 119t-62 156q-24 92 -39 209t-21 244t-6 254zM360 1805q-4 23 16 37q18 12 46 32t59 43t59 45t44 40q20 22 41 14t36 -27t19 -43t-10 -36 q-64 -50 -112 -86t-100 -80q-18 -16 -41 -8t-38 27t-19 42z" />
<glyph unicode="&#xdb;" horiz-adv-x="1032" d="M52 1071q0 127 3 238t8 198t9 133q2 32 23 48t44 14t41 -20t16 -52q-12 -184 -18 -359t-3 -333t17 -294t44 -240q22 -76 53 -132t65 -92t69 -53t65 -13q102 10 176 95t120 217q46 134 68 297t26 328t-8 315t-32 256q-6 34 11 53t42 22t47 -10t26 -39q6 -60 13 -149 t12 -196t5 -227t-9 -241t-29 -238t-54 -219q-28 -80 -67 -147t-90 -118t-114 -82t-139 -37q-62 -4 -120 21t-106 74t-86 119t-62 156q-24 92 -39 209t-21 244t-6 254zM269 1792q-3 22 13 38q30 30 73 61t83 65q34 28 75 25t63 -19q18 -12 40 -31t45 -38t44 -37t35 -26 q20 -14 17 -35t-17 -38t-36 -24t-40 9q-40 32 -76 60t-78 60l-150 -118q-18 -16 -39 -11t-35 21t-17 38z" />
<glyph unicode="&#xdc;" horiz-adv-x="1032" d="M52 1071q0 127 3 238t8 198t9 133q2 32 23 48t44 14t41 -20t16 -52q-12 -184 -18 -359t-3 -333t17 -294t44 -240q22 -76 53 -132t65 -92t69 -53t65 -13q102 10 176 95t120 217q46 134 68 297t26 328t-8 315t-32 256q-6 34 11 53t42 22t47 -10t26 -39q6 -60 13 -149 t12 -196t5 -227t-9 -241t-29 -238t-54 -219q-28 -80 -67 -147t-90 -118t-114 -82t-139 -37q-62 -4 -120 21t-106 74t-86 119t-62 156q-24 92 -39 209t-21 244t-6 254zM286 1788q-6 32 5 61t39 43t68 -4q32 -14 37 -47t-9 -63t-42 -46t-62 6q-30 18 -36 50zM592 1788 q-6 32 5 61t39 43t68 -4q32 -14 37 -47t-9 -63t-42 -46t-62 6q-30 18 -36 50z" />
<glyph unicode="&#xdd;" horiz-adv-x="1122" d="M39 1640q11 22 31 38t43 19t39 -21q118 -182 221 -321t205 -251h6q94 108 194 255t210 315q14 24 38 21t44 -19t31 -38t-1 -38q-72 -102 -123 -177t-89 -130t-66 -95t-55 -76t-55 -72t-66 -82q-6 -118 -11 -252t-8 -262t-5 -238t2 -182q0 -18 -20 -33t-46 -18t-46 9 t-20 44q2 94 5 187t7 203t7 245t5 311q-38 46 -68 81t-59 69t-61 73t-72 93t-92 127t-124 177q-12 16 -1 38zM404 1805q-4 23 16 37q18 12 46 32t59 43t59 45t44 40q20 22 41 14t36 -27t19 -43t-10 -36q-64 -50 -112 -86t-100 -80q-18 -16 -41 -8t-38 27t-19 42z" />
<glyph unicode="&#xde;" horiz-adv-x="960" d="M50 1656q0 18 23 30t51 14t50 -10t22 -40l14 -406q52 58 116 98t136 48q102 12 180 -19t133 -90t86 -138t37 -163q10 -120 -23 -215t-99 -168t-159 -126t-203 -91q-48 -16 -99 -27t-109 -13v-308q0 -18 -23 -33t-51 -18t-50 9t-20 44q8 128 12 233t4 207t-2 212t-6 247 t-10 313t-10 410zM206 474q38 2 77 10t81 22q72 24 147 62t135 92t96 125t30 161q-4 60 -25 118t-58 102t-89 69t-118 19q-60 -4 -106 -36t-80 -83t-56 -115t-34 -134v-412z" />
<glyph unicode="&#xdf;" horiz-adv-x="1096" d="M78 -188q6 206 9 367t4 305t-1 286t-4 314q0 32 1 76t8 95t20 105t37 104q52 108 157 170t222 72t225 -36t166 -154q44 -84 50 -204q2 -58 -15 -125t-55 -131t-99 -118t-145 -84q188 -58 297 -151t111 -249q2 -124 -61 -211t-162 -140t-221 -76t-240 -17q-32 2 -49 19 t-19 38t13 37t49 16q112 -2 216 19t184 62t125 101t41 138q-4 80 -48 138t-115 96t-163 60t-192 32q-30 2 -48 22t-21 44t12 45t51 25q60 8 118 24t106 44q54 30 92 67t64 78t38 80t12 73q0 58 -8 107t-28 89q-26 50 -67 80t-92 41t-106 5t-105 -28t-93 -56t-69 -80 q-22 -38 -36 -82t-23 -89t-13 -87t-4 -74q0 -72 1 -167t2 -243t4 -363t7 -525q0 -18 -22 -29t-49 -11t-48 13t-21 43z" />
<glyph unicode="&#xe0;" horiz-adv-x="918" d="M30 218q4 66 20 140t48 150q30 70 65 137t71 125t68 104t54 72q36 42 76 74t76 50q66 34 129 29t115 -43q4 22 26 34t48 11t46 -16t20 -45l-14 -976q2 -36 -16 -53t-41 -18t-42 11t-19 34l8 602q-30 -76 -73 -174t-113 -190q-18 -22 -46 -57t-64 -72t-77 -70t-85 -53 q-60 -28 -112 -29t-91 24t-60 74t-17 125zM144 193q0 -57 30 -71q12 -6 42 -2t76 33t105 89t131 168q24 36 61 102t71 142t59 153t23 135q-10 14 -32 23t-48 10t-54 -5t-52 -20q-60 -38 -121 -110t-113 -159t-93 -180t-63 -172t-22 -136zM468 1364q4 24 19 43t36 27t41 -14 q16 -18 44 -40t59 -45t59 -43t46 -32q20 -14 16 -37t-19 -42t-38 -27t-41 8q-52 44 -100 80t-112 86q-14 12 -10 36z" />
<glyph unicode="&#xe1;" horiz-adv-x="918" d="M30 218q4 66 20 140t48 150q30 70 65 137t71 125t68 104t54 72q36 42 76 74t76 50q66 34 129 29t115 -43q4 22 26 34t48 11t46 -16t20 -45l-14 -976q2 -36 -16 -53t-41 -18t-42 11t-19 34l8 602q-30 -76 -73 -174t-113 -190q-18 -22 -46 -57t-64 -72t-77 -70t-85 -53 q-60 -28 -112 -29t-91 24t-60 74t-17 125zM144 193q0 -57 30 -71q12 -6 42 -2t76 33t105 89t131 168q24 36 61 102t71 142t59 153t23 135q-10 14 -32 23t-48 10t-54 -5t-52 -20q-60 -38 -121 -110t-113 -159t-93 -180t-63 -172t-22 -136zM438 1207q-4 23 16 37q18 12 46 32 t59 43t59 45t44 40q20 22 41 14t36 -27t19 -43t-10 -36q-64 -50 -112 -86t-100 -80q-18 -16 -41 -8t-38 27t-19 42z" />
<glyph unicode="&#xe2;" horiz-adv-x="918" d="M30 218q4 66 20 140t48 150q30 70 65 137t71 125t68 104t54 72q36 42 76 74t76 50q66 34 129 29t115 -43q4 22 26 34t48 11t46 -16t20 -45l-14 -976q2 -36 -16 -53t-41 -18t-42 11t-19 34l8 602q-30 -76 -73 -174t-113 -190q-18 -22 -46 -57t-64 -72t-77 -70t-85 -53 q-60 -28 -112 -29t-91 24t-60 74t-17 125zM144 193q0 -57 30 -71q12 -6 42 -2t76 33t105 89t131 168q24 36 61 102t71 142t59 153t23 135q-10 14 -32 23t-48 10t-54 -5t-52 -20q-60 -38 -121 -110t-113 -159t-93 -180t-63 -172t-22 -136zM375 1190q-3 22 13 38q30 30 73 61 t83 65q34 28 75 25t63 -19q18 -12 40 -31t45 -38t44 -37t35 -26q20 -14 17 -35t-17 -38t-36 -24t-40 9q-40 32 -76 60t-78 60l-150 -118q-18 -16 -39 -11t-35 21t-17 38z" />
<glyph unicode="&#xe3;" horiz-adv-x="918" d="M30 218q4 66 20 140t48 150q30 70 65 137t71 125t68 104t54 72q36 42 76 74t76 50q66 34 129 29t115 -43q4 22 26 34t48 11t46 -16t20 -45l-14 -976q2 -36 -16 -53t-41 -18t-42 11t-19 34l8 602q-30 -76 -73 -174t-113 -190q-18 -22 -46 -57t-64 -72t-77 -70t-85 -53 q-60 -28 -112 -29t-91 24t-60 74t-17 125zM144 193q0 -57 30 -71q12 -6 42 -2t76 33t105 89t131 168q24 36 61 102t71 142t59 153t23 135q-10 14 -32 23t-48 10t-54 -5t-52 -20q-60 -38 -121 -110t-113 -159t-93 -180t-63 -172t-22 -136zM266 1212q6 44 27 78t51 58t67 37 t75 13q64 2 106 -23t75 -55t65 -54t74 -20q32 4 52 34t20 74q0 24 18 33t39 5t38 -19t13 -39q-10 -72 -60 -125t-118 -59q-76 -6 -116 17t-69 53t-59 57t-84 27q-42 0 -75 -28t-31 -84q0 -24 -18 -33t-39 -5t-38 19t-13 39z" />
<glyph unicode="&#xe4;" horiz-adv-x="918" d="M30 218q4 66 20 140t48 150q30 70 65 137t71 125t68 104t54 72q36 42 76 74t76 50q66 34 129 29t115 -43q4 22 26 34t48 11t46 -16t20 -45l-14 -976q2 -36 -16 -53t-41 -18t-42 11t-19 34l8 602q-30 -76 -73 -174t-113 -190q-18 -22 -46 -57t-64 -72t-77 -70t-85 -53 q-60 -28 -112 -29t-91 24t-60 74t-17 125zM144 193q0 -57 30 -71q12 -6 42 -2t76 33t105 89t131 168q24 36 61 102t71 142t59 153t23 135q-10 14 -32 23t-48 10t-54 -5t-52 -20q-60 -38 -121 -110t-113 -159t-93 -180t-63 -172t-22 -136zM392 1218q-6 32 5 61t39 43t68 -4 q32 -14 37 -47t-9 -63t-42 -46t-62 6q-30 18 -36 50zM698 1218q-6 32 5 61t39 43t68 -4q32 -14 37 -47t-9 -63t-42 -46t-62 6q-30 18 -36 50z" />
<glyph unicode="&#xe5;" horiz-adv-x="918" d="M30 218q4 66 20 140t48 150q30 70 65 137t71 125t68 104t54 72q36 42 76 74t76 50q66 34 129 29t115 -43q4 22 26 34t48 11t46 -16t20 -45l-14 -976q2 -36 -16 -53t-41 -18t-42 11t-19 34l8 602q-30 -76 -73 -174t-113 -190q-18 -22 -46 -57t-64 -72t-77 -70t-85 -53 q-60 -28 -112 -29t-91 24t-60 74t-17 125zM144 193q0 -57 30 -71q12 -6 42 -2t76 33t105 89t131 168q24 36 61 102t71 142t59 153t23 135q-10 14 -32 23t-48 10t-54 -5t-52 -20q-60 -38 -121 -110t-113 -159t-93 -180t-63 -172t-22 -136zM450 1246q-2 26 8 51t29 45t46 33 t59 15q28 2 54 -10t46 -32t30 -47t8 -55q-2 -24 -16 -46t-34 -38t-44 -26t-46 -8q-52 4 -94 36t-46 82zM528 1250q4 -16 20 -29t36 -15q32 -2 50 17t18 37q0 16 -17 34t-43 18q-36 -2 -52 -23t-12 -39z" />
<glyph unicode="&#xe6;" horiz-adv-x="1500" d="M62 176q4 66 20 140t48 150q30 70 65 137t71 125t68 104t54 72q36 42 76 74t76 50q46 24 96 28t96 -4t84 -27t62 -43q48 60 121 89t148 29t140 -27t99 -81q28 -44 26 -88t-22 -85t-56 -78t-76 -68t-82 -57t-74 -42t-70 -39t-81 -45t-89 -43t-94 -33q0 -116 31 -178 t72 -88t82 -27t59 5q28 8 65 18t79 37t86 79t88 144q16 34 42 40t47 -8t30 -42t-9 -60q-64 -116 -146 -198q-52 -52 -122 -88t-145 -45t-149 12t-134 83q-36 38 -58 86t-32 106l-40 -56q-18 -22 -46 -57t-64 -72t-77 -70t-85 -53q-60 -28 -112 -29t-91 24t-60 74t-17 125z M176 151q0 -57 30 -71q12 -6 42 -2t76 33t105 89t131 168q18 28 43 71t53 95q14 104 52 195t86 169q-10 14 -35 23t-55 11t-61 -4t-55 -20q-62 -38 -122 -110t-112 -159t-93 -180t-63 -172t-22 -136zM788 562q-2 -4 23 6t64 29t87 43t94 50q50 28 94 60t76 62t46 58t4 48 q-12 26 -41 37t-63 12t-66 -6t-50 -17q-52 -26 -91 -64t-70 -82t-53 -93t-40 -97l-2 -10l-6 -16z" />
<glyph unicode="&#xe7;" horiz-adv-x="854" d="M26 318q-2 98 24 198t76 196t115 175t140 135t151 76q26 6 63 5t75 -12t74 -31t60 -52q14 -18 9 -42t-19 -41t-31 -24t-29 7q-36 46 -88 63t-86 7q-52 -14 -111 -59t-113 -112t-100 -148t-71 -163t-25 -161t36 -141q32 -56 80 -72t102 -6t111 42t108 70t92 76t63 64 q18 18 39 14t37 -21t21 -39t-9 -40q-46 -54 -109 -107t-135 -95t-147 -68t-144 -24t-126 36t-93 112q-38 84 -40 182zM251 -295q1 19 17 33t44 12q72 -8 108 12t39 46t-25 49t-84 23q-18 0 -27 9t-13 22t-5 28t-1 27v82h82l-8 -84q62 0 103 -23t60 -59t16 -77t-31 -76 t-81 -57t-131 -20q-34 0 -49 17t-14 36z" />
<glyph unicode="&#xe8;" horiz-adv-x="892" d="M39 460q7 106 40 210t83 184q82 132 202 202q56 32 119 42t120 0t104 -38t71 -68q28 -44 26 -88t-22 -85t-56 -78t-76 -68t-82 -57t-74 -42t-70 -39t-81 -45t-89 -43t-94 -33q0 -116 31 -178t72 -88t82 -27t59 5q28 8 65 18t79 37t86 79t88 144q16 34 42 40t47 -8t30 -42 t-9 -60q-64 -116 -146 -198q-52 -52 -122 -88t-145 -45t-149 12t-134 83q-60 64 -82 160t-15 202zM180 562q-2 -4 23 6t64 29t87 43t94 50q50 28 94 60t76 62t46 58t4 48q-12 26 -41 37t-63 12t-66 -6t-50 -17q-58 -30 -100 -73t-74 -94t-55 -107t-39 -108zM424 1354 q4 24 19 43t36 27t41 -14q16 -18 44 -40t59 -45t59 -43t46 -32q20 -14 16 -37t-19 -42t-38 -27t-41 8q-52 44 -100 80t-112 86q-14 12 -10 36z" />
<glyph unicode="&#xe9;" horiz-adv-x="892" d="M39 460q7 106 40 210t83 184q82 132 202 202q56 32 119 42t120 0t104 -38t71 -68q28 -44 26 -88t-22 -85t-56 -78t-76 -68t-82 -57t-74 -42t-70 -39t-81 -45t-89 -43t-94 -33q0 -116 31 -178t72 -88t82 -27t59 5q28 8 65 18t79 37t86 79t88 144q16 34 42 40t47 -8t30 -42 t-9 -60q-64 -116 -146 -198q-52 -52 -122 -88t-145 -45t-149 12t-134 83q-60 64 -82 160t-15 202zM180 562q-2 -4 23 6t64 29t87 43t94 50q50 28 94 60t76 62t46 58t4 48q-12 26 -41 37t-63 12t-66 -6t-50 -17q-58 -30 -100 -73t-74 -94t-55 -107t-39 -108zM290 1207 q-4 23 16 37q18 12 46 32t59 43t59 45t44 40q20 22 41 14t36 -27t19 -43t-10 -36q-64 -50 -112 -86t-100 -80q-18 -16 -41 -8t-38 27t-19 42z" />
<glyph unicode="&#xea;" horiz-adv-x="892" d="M39 460q7 106 40 210t83 184q82 132 202 202q56 32 119 42t120 0t104 -38t71 -68q28 -44 26 -88t-22 -85t-56 -78t-76 -68t-82 -57t-74 -42t-70 -39t-81 -45t-89 -43t-94 -33q0 -116 31 -178t72 -88t82 -27t59 5q28 8 65 18t79 37t86 79t88 144q16 34 42 40t47 -8t30 -42 t-9 -60q-64 -116 -146 -198q-52 -52 -122 -88t-145 -45t-149 12t-134 83q-60 64 -82 160t-15 202zM180 562q-2 -4 23 6t64 29t87 43t94 50q50 28 94 60t76 62t46 58t4 48q-12 26 -41 37t-63 12t-66 -6t-50 -17q-58 -30 -100 -73t-74 -94t-55 -107t-39 -108zM199 1194 q-3 22 13 38q30 30 73 61t83 65q34 28 75 25t63 -19q18 -12 40 -31t45 -38t44 -37t35 -26q20 -14 17 -35t-17 -38t-36 -24t-40 9q-40 32 -76 60t-78 60l-150 -118q-18 -16 -39 -11t-35 21t-17 38z" />
<glyph unicode="&#xeb;" horiz-adv-x="892" d="M39 460q7 106 40 210t83 184q82 132 202 202q56 32 119 42t120 0t104 -38t71 -68q28 -44 26 -88t-22 -85t-56 -78t-76 -68t-82 -57t-74 -42t-70 -39t-81 -45t-89 -43t-94 -33q0 -116 31 -178t72 -88t82 -27t59 5q28 8 65 18t79 37t86 79t88 144q16 34 42 40t47 -8t30 -42 t-9 -60q-64 -116 -146 -198q-52 -52 -122 -88t-145 -45t-149 12t-134 83q-60 64 -82 160t-15 202zM180 562q-2 -4 23 6t64 29t87 43t94 50q50 28 94 60t76 62t46 58t4 48q-12 26 -41 37t-63 12t-66 -6t-50 -17q-58 -30 -100 -73t-74 -94t-55 -107t-39 -108zM306 1196 q-6 32 5 61t39 43t68 -4q32 -14 37 -47t-9 -63t-42 -46t-62 6q-30 18 -36 50zM612 1196q-6 32 5 61t39 43t68 -4q32 -14 37 -47t-9 -63t-42 -46t-62 6q-30 18 -36 50z" />
<glyph unicode="&#xec;" horiz-adv-x="254" d="M-36 1348q4 24 19 43t36 27t41 -14q16 -18 44 -40t59 -45t59 -43t46 -32q20 -14 16 -37t-19 -42t-38 -27t-41 8q-52 44 -100 80t-112 86q-14 12 -10 36zM54 42q2 98 5 199t7 221t7 268t5 340q0 18 21 30t47 14t47 -10t19 -40q-6 -118 -11 -263t-10 -288t-7 -269t2 -204 q0 -18 -20 -33t-46 -18t-46 9t-20 44z" />
<glyph unicode="&#xed;" horiz-adv-x="254" d="M-28 1207q-4 23 16 37q18 12 46 32t59 43t59 45t44 40q20 22 41 14t36 -27t19 -43t-10 -36q-64 -50 -112 -86t-100 -80q-18 -16 -41 -8t-38 27t-19 42zM54 42q2 98 5 199t7 221t7 268t5 340q0 18 21 30t47 14t47 -10t19 -40q-6 -118 -11 -263t-10 -288t-7 -269t2 -204 q0 -18 -20 -33t-46 -18t-46 9t-20 44z" />
<glyph unicode="&#xee;" horiz-adv-x="254" d="M-119 1194q-3 22 13 38q30 30 73 61t83 65q34 28 75 25t63 -19q18 -12 40 -31t45 -38t44 -37t35 -26q20 -14 17 -35t-17 -38t-36 -24t-40 9q-40 32 -76 60t-78 60l-150 -118q-18 -16 -39 -11t-35 21t-17 38zM54 42q2 98 5 199t7 221t7 268t5 340q0 18 21 30t47 14t47 -10 t19 -40q-6 -118 -11 -263t-10 -288t-7 -269t2 -204q0 -18 -20 -33t-46 -18t-46 9t-20 44z" />
<glyph unicode="&#xef;" horiz-adv-x="254" d="M-102 1190q-6 32 5 61t39 43t68 -4q32 -14 37 -47t-9 -63t-42 -46t-62 6q-30 18 -36 50zM54 42q2 98 5 199t7 221t7 268t5 340q0 18 21 30t47 14t47 -10t19 -40q-6 -118 -11 -263t-10 -288t-7 -269t2 -204q0 -18 -20 -33t-46 -18t-46 9t-20 44zM204 1190q-6 32 5 61 t39 43t68 -4q32 -14 37 -47t-9 -63t-42 -46t-62 6q-30 18 -36 50z" />
<glyph unicode="&#xf0;" horiz-adv-x="998" d="M72 538q-6 70 20 124q36 72 96 101t131 20t148 -52t147 -111q52 -50 101 -116t81 -130q26 226 -47 527t-243 707q-18 40 -4 66t39 35t52 1t37 -36q38 -102 82 -224t84 -254t71 -269t45 -267t4 -248t-52 -212q-48 -112 -124 -158t-158 -47t-161 35t-135 92 q-58 56 -105 128t-75 145t-34 143zM185 528q9 -52 33 -110t61 -113t85 -93q54 -42 105 -71t99 -33t91 24t79 100q-10 34 -33 76t-51 82t-59 74t-55 56q-52 46 -109 81t-107 50t-87 7t-49 -44q-12 -34 -3 -86zM376 1146q-4 24 5 45t39 21q144 4 258 17t234 31q26 4 44 -15 t22 -43t-8 -45t-44 -23q-74 -6 -114 -8t-63 -4t-41 -4t-49 -5t-84 -10t-149 -17q-18 -2 -32 17t-18 43z" />
<glyph unicode="&#xf1;" horiz-adv-x="956" d="M44 40q4 70 9 130t8 121t7 129t5 155t2 199t-1 262q0 32 22 48t48 15t49 -19t23 -54q0 -34 -2 -89t-4 -113t-3 -111t1 -81q24 30 56 75t68 95t76 98t84 86t90 61t94 19q82 -6 126 -56t65 -165t30 -306t23 -479q2 -32 -19 -50t-46 -19t-47 17t-22 58q-4 220 -6 380 t-13 265t-35 157t-70 56q-20 2 -55 -27t-78 -77t-90 -108t-90 -120t-78 -115t-55 -93q0 -2 -3 -28t-6 -65t-6 -83t-6 -82t-5 -65t-2 -29q0 -24 -23 -37t-50 -12t-50 15t-21 42zM118 1206q6 44 27 78t51 58t67 37t75 13q64 2 106 -23t75 -55t65 -54t74 -20q32 4 52 34t20 74 q0 24 18 33t39 5t38 -19t13 -39q-10 -72 -60 -125t-118 -59q-76 -6 -116 17t-69 53t-59 57t-84 27q-42 0 -75 -28t-31 -84q0 -24 -18 -33t-39 -5t-38 19t-13 39z" />
<glyph unicode="&#xf2;" horiz-adv-x="846" d="M36 530q4 82 36 181t87 184t134 142t179 57q76 0 131 -30t94 -78t63 -109t36 -124t16 -123t2 -106q-6 -126 -43 -223t-94 -164t-127 -103t-138 -36q-106 -2 -181 41t-120 117t-63 171t-12 203zM160 544q-6 -72 5 -151t41 -143t80 -104t124 -34q52 2 103 36t91 89t65 125 t27 148q2 92 -9 174t-39 145t-71 101t-103 38q-58 0 -111 -34t-96 -92t-72 -135t-35 -163zM258 1348q4 24 19 43t36 27t41 -14q16 -18 44 -40t59 -45t59 -43t46 -32q20 -14 16 -37t-19 -42t-38 -27t-41 8q-52 44 -100 80t-112 86q-14 12 -10 36z" />
<glyph unicode="&#xf3;" horiz-adv-x="846" d="M36 530q4 82 36 181t87 184t134 142t179 57q76 0 131 -30t94 -78t63 -109t36 -124t16 -123t2 -106q-6 -126 -43 -223t-94 -164t-127 -103t-138 -36q-106 -2 -181 41t-120 117t-63 171t-12 203zM160 544q-6 -72 5 -151t41 -143t80 -104t124 -34q52 2 103 36t91 89t65 125 t27 148q2 92 -9 174t-39 145t-71 101t-103 38q-58 0 -111 -34t-96 -92t-72 -135t-35 -163zM266 1207q-4 23 16 37q18 12 46 32t59 43t59 45t44 40q20 22 41 14t36 -27t19 -43t-10 -36q-64 -50 -112 -86t-100 -80q-18 -16 -41 -8t-38 27t-19 42z" />
<glyph unicode="&#xf4;" horiz-adv-x="846" d="M36 530q4 82 36 181t87 184t134 142t179 57q76 0 131 -30t94 -78t63 -109t36 -124t16 -123t2 -106q-6 -126 -43 -223t-94 -164t-127 -103t-138 -36q-106 -2 -181 41t-120 117t-63 171t-12 203zM160 544q-6 -72 5 -151t41 -143t80 -104t124 -34q52 2 103 36t91 89t65 125 t27 148q2 92 -9 174t-39 145t-71 101t-103 38q-58 0 -111 -34t-96 -92t-72 -135t-35 -163zM177 1194q-3 22 13 38q30 30 73 61t83 65q34 28 75 25t63 -19q18 -12 40 -31t45 -38t44 -37t35 -26q20 -14 17 -35t-17 -38t-36 -24t-40 9q-40 32 -76 60t-78 60l-150 -118 q-18 -16 -39 -11t-35 21t-17 38z" />
<glyph unicode="&#xf5;" horiz-adv-x="846" d="M36 530q4 82 36 181t87 184t134 142t179 57q76 0 131 -30t94 -78t63 -109t36 -124t16 -123t2 -106q-6 -126 -43 -223t-94 -164t-127 -103t-138 -36q-106 -2 -181 41t-120 117t-63 171t-12 203zM64 1206q6 44 27 78t51 58t67 37t75 13q64 2 106 -23t75 -55t65 -54t74 -20 q32 4 52 34t20 74q0 24 18 33t39 5t38 -19t13 -39q-10 -72 -60 -125t-118 -59q-76 -6 -116 17t-69 53t-59 57t-84 27q-42 0 -75 -28t-31 -84q0 -24 -18 -33t-39 -5t-38 19t-13 39zM160 544q-6 -72 5 -151t41 -143t80 -104t124 -34q52 2 103 36t91 89t65 125t27 148 q2 92 -9 174t-39 145t-71 101t-103 38q-58 0 -111 -34t-96 -92t-72 -135t-35 -163z" />
<glyph unicode="&#xf6;" horiz-adv-x="846" d="M36 530q4 82 36 181t87 184t134 142t179 57q76 0 131 -30t94 -78t63 -109t36 -124t16 -123t2 -106q-6 -126 -43 -223t-94 -164t-127 -103t-138 -36q-106 -2 -181 41t-120 117t-63 171t-12 203zM160 544q-6 -72 5 -151t41 -143t80 -104t124 -34q52 2 103 36t91 89t65 125 t27 148q2 92 -9 174t-39 145t-71 101t-103 38q-58 0 -111 -34t-96 -92t-72 -135t-35 -163zM192 1190q-6 32 5 61t39 43t68 -4q32 -14 37 -47t-9 -63t-42 -46t-62 6q-30 18 -36 50zM498 1190q-6 32 5 61t39 43t68 -4q32 -14 37 -47t-9 -63t-42 -46t-62 6q-30 18 -36 50z" />
<glyph unicode="&#xf7;" horiz-adv-x="694" d="M36 654q-4 24 5 45t39 21q144 4 258 17t234 31q26 4 44 -15t22 -43t-8 -45t-44 -23q-74 -6 -114 -8t-63 -4t-41 -4t-49 -5t-84 -10t-149 -17q-18 -2 -32 17t-18 43zM272 380q-6 32 5 61t39 43t68 -4q32 -14 37 -47t-9 -63t-42 -46t-62 6q-30 18 -36 50zM284 888 q-6 32 5 61t39 43t68 -4q32 -14 37 -47t-9 -63t-42 -46t-62 6q-30 18 -36 50z" />
<glyph unicode="&#xf8;" horiz-adv-x="846" d="M36 530q4 82 36 181t87 184t134 142t179 57q76 0 131 -30t94 -78t63 -109t36 -124t16 -123t2 -106q-6 -126 -43 -223t-94 -164t-127 -103t-138 -36q-106 -2 -181 41t-120 117t-63 171t-12 203zM130 50q92 146 166 277t137 255t119 247t112 257q12 30 38 34t51 -5t42 -27 t9 -36q-70 -164 -143 -304t-143 -265t-133 -239t-113 -224q-12 -26 -39 -31t-53 4t-43 25t-7 32zM160 544q-6 -72 5 -151t41 -143t80 -104t124 -34q52 2 103 36t91 89t65 125t27 148q2 92 -9 174t-39 145t-71 101t-103 38q-58 0 -111 -34t-96 -92t-72 -135t-35 -163z" />
<glyph unicode="&#xf9;" horiz-adv-x="902" d="M39 409q-7 111 1 265t34 360q4 32 28 47t49 11t42 -26t11 -60q-32 -186 -43 -323t-8 -233t19 -157t40 -97q42 -60 85 -65t85 24t80 80t68 101q30 48 57 102t50 107t41 104t28 93q0 4 4 50t7 102t6 103t3 51q0 24 23 38t50 16t50 -10t21 -40q-4 -70 -8 -129l-8 -118 t-6 -125t-4 -151t-1 -196t3 -261q0 -32 -22 -49t-48 -18t-49 15t-23 50q0 32 2 84t4 106t4 102t0 76q-16 -40 -41 -95t-59 -113q-42 -72 -104 -133t-131 -88t-138 -9t-127 106q-30 44 -49 118t-26 185zM286 1348q4 24 19 43t36 27t41 -14q16 -18 44 -40t59 -45t59 -43 t46 -32q20 -14 16 -37t-19 -42t-38 -27t-41 8q-52 44 -100 80t-112 86q-14 12 -10 36z" />
<glyph unicode="&#xfa;" horiz-adv-x="902" d="M39 409q-7 111 1 265t34 360q4 32 28 47t49 11t42 -26t11 -60q-32 -186 -43 -323t-8 -233t19 -157t40 -97q42 -60 85 -65t85 24t80 80t68 101q30 48 57 102t50 107t41 104t28 93q0 4 4 50t7 102t6 103t3 51q0 24 23 38t50 16t50 -10t21 -40q-4 -70 -8 -129l-8 -118 t-6 -125t-4 -151t-1 -196t3 -261q0 -32 -22 -49t-48 -18t-49 15t-23 50q0 32 2 84t4 106t4 102t0 76q-16 -40 -41 -95t-59 -113q-42 -72 -104 -133t-131 -88t-138 -9t-127 106q-30 44 -49 118t-26 185zM294 1207q-4 23 16 37q18 12 46 32t59 43t59 45t44 40q20 22 41 14 t36 -27t19 -43t-10 -36q-64 -50 -112 -86t-100 -80q-18 -16 -41 -8t-38 27t-19 42z" />
<glyph unicode="&#xfb;" horiz-adv-x="902" d="M39 409q-7 111 1 265t34 360q4 32 28 47t49 11t42 -26t11 -60q-32 -186 -43 -323t-8 -233t19 -157t40 -97q42 -60 85 -65t85 24t80 80t68 101q30 48 57 102t50 107t41 104t28 93q0 4 4 50t7 102t6 103t3 51q0 24 23 38t50 16t50 -10t21 -40q-4 -70 -8 -129l-8 -118 t-6 -125t-4 -151t-1 -196t3 -261q0 -32 -22 -49t-48 -18t-49 15t-23 50q0 32 2 84t4 106t4 102t0 76q-16 -40 -41 -95t-59 -113q-42 -72 -104 -133t-131 -88t-138 -9t-127 106q-30 44 -49 118t-26 185zM205 1194q-3 22 13 38q30 30 73 61t83 65q34 28 75 25t63 -19 q18 -12 40 -31t45 -38t44 -37t35 -26q20 -14 17 -35t-17 -38t-36 -24t-40 9q-40 32 -76 60t-78 60l-150 -118q-18 -16 -39 -11t-35 21t-17 38z" />
<glyph unicode="&#xfc;" horiz-adv-x="902" d="M39 409q-7 111 1 265t34 360q4 32 28 47t49 11t42 -26t11 -60q-32 -186 -43 -323t-8 -233t19 -157t40 -97q42 -60 85 -65t85 24t80 80t68 101q30 48 57 102t50 107t41 104t28 93q0 4 4 50t7 102t6 103t3 51q0 24 23 38t50 16t50 -10t21 -40q-4 -70 -8 -129l-8 -118 t-6 -125t-4 -151t-1 -196t3 -261q0 -32 -22 -49t-48 -18t-49 15t-23 50q0 32 2 84t4 106t4 102t0 76q-16 -40 -41 -95t-59 -113q-42 -72 -104 -133t-131 -88t-138 -9t-127 106q-30 44 -49 118t-26 185zM220 1190q-6 32 5 61t39 43t68 -4q32 -14 37 -47t-9 -63t-42 -46t-62 6 q-30 18 -36 50zM526 1190q-6 32 5 61t39 43t68 -4q32 -14 37 -47t-9 -63t-42 -46t-62 6q-30 18 -36 50z" />
<glyph unicode="&#xfd;" horiz-adv-x="920" d="M60 566q-6 118 0 244t20 244q4 30 25 44t44 14t40 -12t15 -34q-22 -156 -26 -321t14 -301t60 -221t112 -81q68 4 118 58t84 134t54 178t33 191t19 173t12 124q6 54 27 75t45 20t44 -18t22 -41q20 -332 32 -586t10 -448q-2 -184 -23 -317t-57 -225q-28 -72 -75 -129 t-107 -90t-133 -38t-153 29q-86 34 -137 127t-39 237q2 16 20 29t38 15t37 -8t15 -38q-6 -112 26 -176t102 -88q112 -38 190 15t118 163q34 96 51 224t21 264q2 84 1 165t-4 155t-7 137t-6 109q-18 -120 -51 -220t-78 -172t-104 -115t-131 -49q-82 -6 -140 36t-96 119 t-57 182t-25 223zM304 1207q-4 23 16 37q18 12 46 32t59 43t59 45t44 40q20 22 41 14t36 -27t19 -43t-10 -36q-64 -50 -112 -86t-100 -80q-18 -16 -41 -8t-38 27t-19 42z" />
<glyph unicode="&#xfe;" horiz-adv-x="960" d="M50 1330q0 18 23 30t51 14t50 -10t22 -40l14 -406q52 58 116 98t136 48q102 12 180 -19t133 -90t86 -138t37 -163q10 -120 -23 -215t-99 -168t-159 -126t-203 -91q-48 -16 -99 -27t-109 -13v-308q0 -18 -23 -33t-51 -18t-50 9t-20 44q8 128 12 233t4 207t-2 212t-6 247 t-10 313t-10 410zM206 148q38 2 77 10t81 22q72 24 147 62t135 92t96 125t30 161q-4 60 -25 118t-58 102t-89 69t-118 19q-60 -4 -106 -36t-80 -83t-56 -115t-34 -134v-412z" />
<glyph unicode="&#xff;" horiz-adv-x="920" d="M60 566q-6 118 0 244t20 244q4 30 25 44t44 14t40 -12t15 -34q-22 -156 -26 -321t14 -301t60 -221t112 -81q68 4 118 58t84 134t54 178t33 191t19 173t12 124q6 54 27 75t45 20t44 -18t22 -41q20 -332 32 -586t10 -448q-2 -184 -23 -317t-57 -225q-28 -72 -75 -129 t-107 -90t-133 -38t-153 29q-86 34 -137 127t-39 237q2 16 20 29t38 15t37 -8t15 -38q-6 -112 26 -176t102 -88q112 -38 190 15t118 163q34 96 51 224t21 264q2 84 1 165t-4 155t-7 137t-6 109q-18 -120 -51 -220t-78 -172t-104 -115t-131 -49q-82 -6 -140 36t-96 119 t-57 182t-25 223zM230 1190q-6 32 5 61t39 43t68 -4q32 -14 37 -47t-9 -63t-42 -46t-62 6q-30 18 -36 50zM536 1190q-6 32 5 61t39 43t68 -4q32 -14 37 -47t-9 -63t-42 -46t-62 6q-30 18 -36 50z" />
<glyph unicode="&#x152;" horiz-adv-x="1870" d="M80 720q-18 176 20 343t127 300t223 216t308 91q164 6 301 13t256 15t222 15t203 15q18 2 35 -19t22 -46t-4 -47t-41 -24q-152 -10 -265 -15t-210 -9t-191 -10t-208 -20q-2 -76 -3 -163t-1 -178v-184v-177q108 12 185 21t147 17t143 17t173 23q18 2 35 -19t24 -48t-2 -50 t-41 -25q-104 -8 -175 -13t-123 -11t-91 -11t-78 -9t-85 -9t-112 -11q0 -146 1 -285t1 -269q140 4 259 10t222 15t196 19t183 22q18 2 35 -19t24 -48t-2 -50t-41 -25q-152 -12 -272 -24t-234 -22t-235 -17t-275 -7q-136 0 -249 51t-198 144t-139 225t-70 292zM216 770 q0 -120 42 -234t113 -203t165 -140t202 -41q8 130 12 237t5 207t1 198t-3 209t-6 242t-5 295q-158 -30 -262 -103t-165 -176t-83 -229t-16 -262z" />
<glyph unicode="&#x153;" horiz-adv-x="1470" d="M78 530q4 82 36 181t87 184t134 142t179 57q102 -2 166 -52t104 -126q68 88 158 140q56 32 119 42t120 0t104 -38t71 -68q28 -44 26 -88t-22 -85t-56 -78t-76 -68t-82 -57t-74 -42t-70 -39t-81 -45t-89 -43t-94 -33q0 -116 31 -178t72 -88t82 -27t59 5q28 8 65 18t79 37 t86 79t88 144q16 34 42 40t47 -8t30 -42t-9 -60q-64 -116 -146 -198q-52 -52 -122 -88t-145 -45t-149 12t-134 83l-8 8l-8 8q-54 -58 -117 -86t-127 -30q-106 -2 -181 41t-120 117t-63 171t-12 203zM202 544q-6 -72 5 -151t41 -143t80 -104t124 -34q52 4 100 34t88 82 q-20 62 -24 134t5 147t31 147t52 136q-26 78 -72 126t-116 50q-58 0 -111 -34t-96 -92t-72 -135t-35 -163zM758 562q-2 -4 23 6t64 29t87 43t94 50q50 28 94 60t76 62t46 58t4 48q-12 26 -41 37t-63 12t-66 -6t-50 -17q-58 -30 -100 -73t-74 -94t-55 -107t-39 -108z" />
<glyph unicode="&#x178;" horiz-adv-x="1122" d="M39 1640q11 22 31 38t43 19t39 -21q118 -182 221 -321t205 -251h6q94 108 194 255t210 315q14 24 38 21t44 -19t31 -38t-1 -38q-72 -102 -123 -177t-89 -130t-66 -95t-55 -76t-55 -72t-66 -82q-6 -118 -11 -252t-8 -262t-5 -238t2 -182q0 -18 -20 -33t-46 -18t-46 9 t-20 44q2 94 5 187t7 203t7 245t5 311q-38 46 -68 81t-59 69t-61 73t-72 93t-92 127t-124 177q-12 16 -1 38zM330 1788q-6 32 5 61t39 43t68 -4q32 -14 37 -47t-9 -63t-42 -46t-62 6q-30 18 -36 50zM636 1788q-6 32 5 61t39 43t68 -4q32 -14 37 -47t-9 -63t-42 -46t-62 6 q-30 18 -36 50z" />
<glyph unicode="&#x2c6;" horiz-adv-x="630" d="M89 1194q-3 22 13 38q30 30 73 61t83 65q34 28 75 25t63 -19q18 -12 40 -31t45 -38t44 -37t35 -26q20 -14 17 -35t-17 -38t-36 -24t-40 9q-40 32 -76 60t-78 60l-150 -118q-18 -16 -39 -11t-35 21t-17 38z" />
<glyph unicode="&#x2dc;" horiz-adv-x="880" d="M78 1206q6 44 27 78t51 58t67 37t75 13q64 2 106 -23t75 -55t65 -54t74 -20q32 4 52 34t20 74q0 24 18 33t39 5t38 -19t13 -39q-10 -72 -60 -125t-118 -59q-76 -6 -116 17t-69 53t-59 57t-84 27q-42 0 -75 -28t-31 -84q0 -24 -18 -33t-39 -5t-38 19t-13 39z" />
<glyph unicode="&#x2000;" horiz-adv-x="1014" />
<glyph unicode="&#x2001;" horiz-adv-x="2028" />
<glyph unicode="&#x2002;" horiz-adv-x="1014" />
<glyph unicode="&#x2003;" horiz-adv-x="2028" />
<glyph unicode="&#x2004;" horiz-adv-x="676" />
<glyph unicode="&#x2005;" horiz-adv-x="507" />
<glyph unicode="&#x2006;" horiz-adv-x="338" />
<glyph unicode="&#x2007;" horiz-adv-x="338" />
<glyph unicode="&#x2008;" horiz-adv-x="253" />
<glyph unicode="&#x2009;" horiz-adv-x="405" />
<glyph unicode="&#x200a;" horiz-adv-x="112" />
<glyph unicode="&#x2010;" horiz-adv-x="728" d="M90 654q-4 24 5 45t39 21q144 4 258 17t234 31q26 4 44 -15t22 -43t-8 -45t-44 -23q-74 -6 -114 -8t-63 -4t-41 -4t-49 -5t-84 -10t-149 -17q-18 -2 -32 17t-18 43z" />
<glyph unicode="&#x2011;" horiz-adv-x="728" d="M90 654q-4 24 5 45t39 21q144 4 258 17t234 31q26 4 44 -15t22 -43t-8 -45t-44 -23q-74 -6 -114 -8t-63 -4t-41 -4t-49 -5t-84 -10t-149 -17q-18 -2 -32 17t-18 43z" />
<glyph unicode="&#x2012;" horiz-adv-x="728" d="M90 654q-4 24 5 45t39 21q144 4 258 17t234 31q26 4 44 -15t22 -43t-8 -45t-44 -23q-74 -6 -114 -8t-63 -4t-41 -4t-49 -5t-84 -10t-149 -17q-18 -2 -32 17t-18 43z" />
<glyph unicode="&#x2013;" horiz-adv-x="644" d="M90 654q-4 24 5 44t39 22q100 6 201 12t191 22q26 6 44 -13t22 -43t-8 -46t-44 -24q-74 -6 -116 -9t-67 -6t-40 -5t-34 -3t-51 -4t-92 -7q-18 -2 -32 17t-18 43z" />
<glyph unicode="&#x2014;" horiz-adv-x="1164" d="M90 654q-4 24 5 45t39 21q72 2 194 13t252 25t246 28t176 24q26 4 44 -15t22 -43t-8 -45t-44 -23q-112 -8 -209 -17t-198 -20t-213 -24t-256 -29q-18 -2 -32 17t-18 43z" />
<glyph unicode="&#x2018;" horiz-adv-x="368" d="M107 1093q1 53 14 106t39 97q18 30 43 35t44 -5t26 -31t-11 -45q-20 -26 -34 -58t-17 -68t8 -77t43 -83q8 -12 1 -29t-24 -28t-40 -9t-45 26q-24 26 -36 71t-11 98z" />
<glyph unicode="&#x2019;" horiz-adv-x="368" d="M107 935q-7 21 11 45q20 26 34 58t17 68t-8 77t-43 83q-10 12 -2 29t25 28t40 9t45 -26q24 -26 36 -71t11 -98t-14 -106t-39 -97q-18 -30 -43 -35t-44 5t-26 31z" />
<glyph unicode="&#x201a;" horiz-adv-x="368" d="M81 -91q-7 21 11 45q20 26 34 58t17 68t-8 77t-43 83q-10 12 -2 29t25 28t40 9t45 -26q24 -26 36 -71t11 -98t-14 -106t-39 -97q-18 -30 -43 -35t-44 5t-26 31z" />
<glyph unicode="&#x201c;" horiz-adv-x="542" d="M107 1093q1 53 14 106t39 97q18 30 43 35t44 -5t26 -31t-11 -45q-20 -26 -34 -58t-17 -68t8 -77t43 -83q8 -12 1 -29t-24 -28t-40 -9t-45 26q-24 26 -36 71t-11 98zM301 1105q1 53 14 106t39 97q18 30 43 35t44 -5t26 -31t-11 -45q-20 -26 -34 -58t-17 -68t8 -77t43 -83 q8 -12 1 -29t-24 -28t-40 -9t-45 26q-24 26 -36 71t-11 98z" />
<glyph unicode="&#x201d;" horiz-adv-x="542" d="M107 935q-7 21 11 45q20 26 34 58t17 68t-8 77t-43 83q-10 12 -2 29t25 28t40 9t45 -26q24 -26 36 -71t11 -98t-14 -106t-39 -97q-18 -30 -43 -35t-44 5t-26 31zM301 947q-7 21 11 45q20 26 34 58t17 68t-8 77t-43 83q-10 12 -2 29t25 28t40 9t45 -26q24 -26 36 -71 t11 -98t-14 -106t-39 -97q-18 -30 -43 -35t-44 5t-26 31z" />
<glyph unicode="&#x201e;" horiz-adv-x="542" d="M105 -113q-7 21 11 45q20 26 34 58t17 68t-8 77t-43 83q-10 12 -2 29t25 28t40 9t45 -26q24 -26 36 -71t11 -98t-14 -106t-39 -97q-18 -30 -43 -35t-44 5t-26 31zM299 -101q-7 21 11 45q20 26 34 58t17 68t-8 77t-43 83q-10 12 -2 29t25 28t40 9t45 -26q24 -26 36 -71 t11 -98t-14 -106t-39 -97q-18 -30 -43 -35t-44 5t-26 31z" />
<glyph unicode="&#x2022;" horiz-adv-x="344" d="M63 799q-9 45 7 84t56 59t96 -4q44 -20 52 -66t-11 -87t-59 -63t-90 8q-42 24 -51 69z" />
<glyph unicode="&#x2026;" horiz-adv-x="1086" d="M98 48q-6 32 5 61t39 43t68 -4q32 -14 37 -47t-9 -63t-42 -46t-62 6q-30 18 -36 50zM460 48q-6 32 5 61t39 43t68 -4q32 -14 37 -47t-9 -63t-42 -46t-62 6q-30 18 -36 50zM822 48q-6 32 5 61t39 43t68 -4q32 -14 37 -47t-9 -63t-42 -46t-62 6q-30 18 -36 50z" />
<glyph unicode="&#x202f;" horiz-adv-x="405" />
<glyph unicode="&#x2039;" horiz-adv-x="864" d="M50 281q-2 27 14 56t52 49q88 50 173 94t157 82t126 67t80 47t53 8t42 -35t11 -55t-42 -50q-112 -60 -193 -99t-138 -65t-96 -43t-69 -33q68 -28 156 -60t168 -59t138 -46t66 -21q20 -6 25 -30t-4 -49t-31 -41t-54 -4l-576 214q-26 6 -41 26t-17 47z" />
<glyph unicode="&#x203a;" horiz-adv-x="864" d="M49 88q5 24 27 30q8 2 66 21t138 46t168 59t156 60q-30 16 -69 33t-96 43t-138 65t-193 99q-38 20 -42 50t11 55t42 35t53 -8t79 -47t125 -67t158 -82t174 -94q36 -20 52 -49t14 -56t-17 -47t-41 -26l-576 -214q-34 -12 -56 4t-31 41t-4 49z" />
<glyph unicode="&#x205f;" horiz-adv-x="507" />
<glyph unicode="&#x20ac;" horiz-adv-x="1302" d="M50 959q-4 23 5 44t39 25q92 8 194 14t199 11t182 11t145 16q26 4 44 -15t22 -43t-8 -45t-44 -23q-72 -4 -141 -6t-152 -7t-187 -14t-248 -25q-18 -2 -32 16t-18 41zM56 665q-4 23 5 44t39 25q92 8 194 14t199 11t182 11t145 16q26 4 44 -15t22 -43t-8 -45t-44 -23 q-72 -4 -141 -6t-152 -7t-187 -14t-248 -25q-18 -2 -32 16t-18 41zM210 532q-6 100 6 228t47 259t98 256t160 220t231 147t314 40q32 -2 52 -23t23 -44t-12 -41t-51 -14q-170 12 -293 -44t-207 -153t-133 -220t-74 -244t-31 -226t0 -163q8 -86 38 -158t73 -122t97 -75 t110 -19q78 8 150 42t134 85t114 115t92 134q12 22 34 20t41 -19t27 -45t-8 -56q-44 -76 -109 -149t-141 -130t-156 -92t-154 -37q-208 -4 -333 131t-139 397z" />
<glyph unicode="&#x2122;" horiz-adv-x="1054" d="M94 1620q2 12 12 14q32 2 78 5t92 5t86 4t62 6h10q4 2 16 2t25 -1t24 -4t13 -9q10 -30 23 -76t29 -100t35 -111t43 -107q24 48 43 92t39 88t39 91t43 105q4 12 18 14t29 -1t26 -11t11 -14q0 -92 3 -162t7 -133t9 -129t11 -150q0 -12 -13 -16t-29 -3t-30 6t-14 11 q0 98 -3 203t-5 215q-30 -58 -46 -92t-28 -64t-27 -67t-41 -105q-2 -6 -13 -9t-24 -2t-24 5t-13 10q-30 62 -42 99t-19 67t-18 63t-37 91q-2 -114 -6 -217t-4 -201q0 -6 -12 -11t-26 -5t-25 4t-11 16q10 142 11 274t5 270l-120 -6q-6 -58 -7 -141t0 -164t2 -147t1 -90 q0 -6 -10 -11t-23 -6t-23 3t-10 16q-2 72 -2 150v151t1 135t3 102q-34 -2 -59 -5t-63 -7q-6 0 -12 11t-9 24t-1 25z" />
<glyph unicode="&#x25fc;" horiz-adv-x="1100" d="M0 0v1100h1100v-1100h-1100z" />
</font>
</defs>
</svg>
