<?xml version="1.0" encoding="utf-8"?>
<!-- Generator: Adobe Illustrator 16.0.0, SVG Export Plug-In . SVG Version: 6.00 Build 0)  -->
<!DOCTYPE svg PUBLIC "-//W3C//DTD SVG 1.1//EN" "http://www.w3.org/Graphics/SVG/1.1/DTD/svg11.dtd">
<svg version="1.1" id="Calque_1" xmlns="http://www.w3.org/2000/svg" xmlns:xlink="http://www.w3.org/1999/xlink" x="0px" y="0px"
	 width="125px" height="100.144px" viewBox="0 0 125 100.144" enable-background="new 0 0 125 100.144" xml:space="preserve">
<g>
	<g>
		<circle fill="none" cx="62.498" cy="79.758" r="2.427"/>
		<path fill="none" d="M5.352,69.5h114.291V5.085H5.352V69.5z"/>
		<path fill="#FFFFFF" d="M121.185,0.072H63.532h-1.965H3.913c-2.054,0-3.823,1.561-3.823,3.615v71.072v0.246v6.588v0.41
			c0,2.055,1.77,3.781,3.823,3.781h46.179c-0.054,1.176-0.422,6.244-2.831,8.701c-1.899,1.938-4.537,3.75-3.508,4.682
			c0.25,0.574,1.434,0.904,4.126,0.904c5.94,0,12.372,0,14.727,0c0.596,0,0.93,0,0.93,0c2.353,0,8.787,0,14.725,0
			c3.066,0,4.139-0.502,4.149-1.252h-0.105v-0.248h-0.107c-0.138-1.012-2.185-2.504-3.731-4.078c-2.41-2.457-2.777-7.525-2.83-8.703
			h45.558c2.055,0,3.719-1.725,3.719-3.779v-0.412v-6.586v-0.248V3.691C124.907,1.632,123.242,0.072,121.185,0.072z M62.498,82.185
			c-1.342,0-2.427-1.082-2.427-2.426c0-1.342,1.085-2.428,2.427-2.428c1.34,0,2.427,1.086,2.427,2.428
			C64.925,81.103,63.837,82.185,62.498,82.185z M119.645,69.5H5.352V5.085h114.291V69.5H119.645z"/>
	</g>
	<g>
		<g>
			<polygon fill="#FFFFFF" points="35.115,45.802 20.321,39.322 20.321,39.24 35.115,32.759 35.115,28.437 15.551,37.527 
				15.551,41.033 15.551,41.035 35.115,50.123 			"/>
			<polygon fill="#FFFFFF" points="42.25,51.751 50.974,22.203 46.857,22.203 38.134,51.751 38.136,51.751 			"/>
			<polygon fill="#FFFFFF" points="109.54,37.406 89.974,28.437 89.974,32.759 105.097,39.24 105.097,39.322 89.974,45.802 
				89.974,50.123 109.54,41.156 			"/>
		</g>
		<g>
			<path fill="#C5D92D" d="M66.753,26.914c6.232,0,11.284-2.172,11.284-4.85c0-2.682-5.052-4.857-11.284-4.857
				c-6.231,0-11.284,2.176-11.284,4.857C55.469,24.742,60.522,26.914,66.753,26.914z"/>
			<path fill="#C5D92D" d="M66.755,36.207c-6.232,0-11.285-2.174-11.285-4.859c0-0.027,0.01-0.053,0.01-0.078h-0.011v6.275h0.011
				c0.105,2.641,5.104,4.771,11.273,4.771c6.167,0,11.169-2.131,11.274-4.77h0.009v-6.189C78.03,34.035,72.983,36.207,66.755,36.207
				z"/>
			<path fill="#C5D92D" d="M78.038,31.343v-0.074h-0.009C78.03,31.294,78.038,31.318,78.038,31.343z"/>
			<path fill="#C5D92D" d="M66.755,43.738c-6.232,0-11.285-2.176-11.285-4.855c0-0.027,0.01-0.057,0.01-0.084h-0.011v6.277h0.011
				c0.105,2.641,5.104,4.771,11.273,4.771c6.167,0,11.169-2.131,11.274-4.771h0.009V38.89C78.03,41.564,72.983,43.738,66.755,43.738
				z"/>
			<path fill="#C5D92D" d="M78.038,38.876v-0.078h-0.009C78.03,38.828,78.038,38.851,78.038,38.876z"/>
			<path fill="#C5D92D" d="M66.755,51.267c-6.232,0-11.285-2.172-11.285-4.854c0-0.027,0.01-0.053,0.01-0.084h-0.011v6.277h0.011
				c0.105,2.643,5.104,4.771,11.273,4.771c6.167,0,11.169-2.129,11.274-4.771h0.009v-6.189
				C78.03,49.095,72.983,51.267,66.755,51.267z"/>
			<path fill="#C5D92D" d="M78.038,46.41v-0.08h-0.009C78.03,46.357,78.038,46.384,78.038,46.41z"/>
			<path fill="#C5D92D" d="M66.755,28.505c-6.232,0-11.285-2.174-11.285-4.855c0-0.029,0.01-0.057,0.01-0.082h-0.011v6.275h0.011
				c0.105,2.643,5.104,4.773,11.273,4.773c6.167,0,11.169-2.131,11.274-4.773h0.009v-6.188
				C78.03,26.333,72.983,28.505,66.755,28.505z"/>
			<path fill="#C5D92D" d="M78.038,23.644v-0.076h-0.009C78.03,23.593,78.038,23.617,78.038,23.644z"/>
		</g>
	</g>
</g>
</svg>
