<?xml version="1.0" encoding="utf-8"?>
<!-- Generator: Adobe Illustrator 18.1.1, SVG Export Plug-In . SVG Version: 6.00 Build 0)  -->
<svg xmlns="http://www.w3.org/2000/svg" viewBox="15.8 15 65.5 41">
  <path d="M77.3 44c-1.1-2-1.9-2.9-3-4-2.2-2.2-3.9-4.3-4.9-4.8-1-.5-1.7-.5-1.7-.5s-.5-.3-.4-.9c.1-.7 1.2-1.4 1.2-1.4s-.2-1.3-.1-2.1 1-3.8.5-6.4c-.5-2.3-1.7-2.9-2.3-3.7-.4-.5-1-1.7-1.9-2.3-3.6-2.6-7.1-1.5-8.1-1.1-1.8.6-4.5 1.2-5.2 2.4-.5.9.5 1.5.5 1.5s-1.2 3.6-1.3 4c-.1.7.5.9.6 1.3.1.9-1.2 2.5-2 3.6-.2.4-.2.6-.1.9.2.7 1.6.4 1.8.9.1.3-.3 1-.2 1.2.1.3.7.4.7.4s-.5.4-.4.8c.1.4.9.5.9 1s-1 1.8.2 2.5c1.4.8 3.6-.4 4.2-.2.9.3.4 1.3.6 1.8.2.6.8 1.6.8 1.6s-1.9 4.3-2.4 6.5c-.3 1.5-.6 3.4-.7 4.1-.1.4-.4 1.6-.7 2.6h-4.8c-.6-.5-1.3-1-2-1.3-1.3-.6-3.2-.2-3.2-.2s-1.1-1.3-3.1-1.3c-2.7 0-5.1 1.6-6.4 2.8H19.9s-.8 0-1.4-.5c-.7-.6-.5-1.4-.4-1.8 2-6.7 6.5-17.3 7-18.3.2-.4.7-.7 1.1-.8 2.2 10.7 4.4 14.3 4.4 14.3l1.8-.4L26 15.8l-1.8.4s-.3 4.5 1.6 14.6c-.8.3-1.3.8-1.8 1.3-.6.6-5 10.7-7.4 19.1v.1c0 .2-.3 1.6.6 2.8.8 1 2.1 1.1 2.6 1.1h60.7c-.6-3.7-1.5-8-3.2-11.2z"/>
</svg>