<?xml version="1.0" encoding="utf-8"?>
<!-- Generator: Adobe Illustrator 18.1.1, SVG Export Plug-In . SVG Version: 6.00 Build 0)  -->
<svg xmlns="http://www.w3.org/2000/svg" viewBox="31 14.8 65.7 76.7">
  <path d="M49.2 66.4h30.5c2.4 0 2.4 0 2.4-3.7V35.9H45.5v26.8c0 3.7 0 3.7 3.7 3.7zm-2-9.1c7.7 0 13.9-6.2 13.9-13.8 0-7.7-6.2-13.9-13.9-13.9-7.6 0-13.8 6.2-13.8 13.9-.1 7.5 6.2 13.8 13.8 13.8zm16.6-13.9c7.6 0 13.8-6.2 13.8-13.9 0-7.6-6.2-13.8-13.8-13.8S50 21.9 50 29.5c0 7.7 6.2 13.9 13.8 13.9zm16.7 13.9c7.6 0 13.8-6.2 13.8-13.8 0-7.7-6.2-13.9-13.8-13.9-7.7 0-13.9 6.2-13.9 13.9 0 7.5 6.2 13.8 13.9 13.8zM62.4 77.6c0 5.2 6.3 13.1 17.7 13.1 12 0 15.7-10.4 15.7-15.2 0-.9-2.1-1.3-2.7-.6-1.3 3.3-2.8 4.5-4.5 4.5-9 0-6.1-10.7-16.8-10.7-6.2-.1-9.4 4.7-9.4 8.9zm2.8 0c0-4.2-3.1-9-9.3-9-10.7 0-7.9 10.7-16.8 10.7-1.7 0-3.3-1.2-4.5-4.5-.6-.7-2.8-.3-2.8.6 0 4.9 3.7 15.2 15.7 15.2 11.4.1 17.7-7.7 17.7-13z"/>
</svg>