<?xml version="1.0" encoding="utf-8"?>
<!-- Generator: Adobe Illustrator 16.0.0, SVG Export Plug-In . SVG Version: 6.00 Build 0)  -->
<!DOCTYPE svg PUBLIC "-//W3C//DTD SVG 1.1//EN" "http://www.w3.org/Graphics/SVG/1.1/DTD/svg11.dtd">
<svg version="1.1" id="Calque_1" xmlns="http://www.w3.org/2000/svg" xmlns:xlink="http://www.w3.org/1999/xlink" x="0px" y="0px"
	 width="526.645px" height="475.529px" viewBox="0 0 526.645 475.529" enable-background="new 0 0 526.645 475.529"
	 xml:space="preserve">
<g>
	<path d="M455.21,0h-11.905c39.449,0,71.434,31.984,71.434,71.434v332.661c0,39.45-31.984,71.434-71.434,71.434h11.905
		c39.449,0,71.434-31.984,71.434-71.434V71.434C526.644,31.979,494.659,0,455.21,0z"/>
	<path d="M331.213,181.977c-8.107,0-17.239,4.506-27.389,13.513c-10.144,9.006-19.001,20.216-26.579,33.639
		c-7.578,13.418-11.363,24.602-11.363,33.543c0,5.258,0.804,8.953,2.417,11.096c1.612,2.145,4.381,3.221,8.321,3.221
		c4.888,0,12.197-5.576,21.924-16.732c9.728-11.156,18.675-23.942,26.854-38.378c8.167-14.43,12.263-24.871,12.263-31.312
		C337.66,184.84,335.512,181.977,331.213,181.977z"/>
	<path d="M502.833,404.089V71.434C502.833,31.984,470.849,0,431.4,0H128.157C88.708,0,56.724,31.984,56.724,71.434v2.798h44.122
		c8.513,0,15.406,6.899,15.406,15.412c0,8.513-6.894,15.406-15.406,15.406h-2.804H56.724H15.411C6.9,105.049,0,111.949,0,120.461
		c0,8.513,6.898,15.406,15.411,15.406h41.313v63.041h41.318c8.513,0,15.406,6.893,15.406,15.406c0,8.512-6.894,15.406-15.406,15.406
		H56.724H15.411C6.9,229.719,0,236.612,0,245.124c0,8.514,6.898,15.406,15.411,15.406h41.313v78.445h41.318
		c8.513,0,15.406,6.895,15.406,15.406c0,8.514-6.894,15.406-15.406,15.406H56.724H15.411C6.9,369.788,0,376.681,0,385.194
		c0,8.512,6.898,15.406,15.411,15.406h41.313v3.506c0,39.45,31.984,71.434,71.434,71.434H431.4
		C470.849,475.523,502.833,443.539,502.833,404.089z M401.397,280.497c-14.667,15.881-32.371,23.816-53.122,23.816
		c-11.805,0-21.406-2.898-28.8-8.703s-11.09-13.561-11.09-23.264c0-3.697,0.601-7.631,1.791-11.811
		c-6.905,11.746-15.566,21.02-25.983,27.836c-10.418,6.822-20.692,10.232-30.806,10.232c-5.244,0-9.53-1.916-12.858-5.756
		c-3.339-3.84-5-8.883-5-15.139c0-12.619,5.423-27.359,16.281-44.205c10.852-16.847,24.149-31.633,39.895-44.378
		c15.746-12.739,28.681-19.108,38.824-19.108c5.584,0,9.858,1.06,12.829,3.167l1.779-4.988c1.548-3.322,6.536-4.983,14.972-4.983
		c7.244,0,10.869,1.375,10.869,4.12l-0.178,0.899l-36.699,83.755c-2.738,6.43-4.096,12.322-4.096,17.682
		c0,7.029,2.369,12.559,7.126,16.607c4.75,4.049,11.102,6.072,19.066,6.072c15.084,0,28.127-6.906,39.109-20.729
		c10.983-13.822,16.483-31.467,16.483-52.92c0-30.27-9.488-54.075-28.454-71.416c-18.978-17.34-44.997-26.014-78.064-26.014
		c-29.497,0-53.706,10.703-72.618,32.109c-18.918,21.406-28.371,48.206-28.371,80.399c0,32.324,9.453,59.177,28.377,80.583
		c18.918,21.406,43.128,32.109,72.636,32.109c32.24,0,57.225-7.203,74.951-21.615l1.251-0.363c1.19,0,2.375,0.744,3.571,2.232
		c1.185,1.488,1.786,2.834,1.786,4.018c0,2.025-4.917,6.346-14.745,12.953c-9.828,6.609-20.406,11.615-31.723,15.008
		s-23.056,5.09-35.199,5.09c-23.341,0-45.009-5.811-65.01-17.412c-19.996-11.613-35.776-27.441-47.319-47.504
		c-11.548-20.061-17.322-41.758-17.322-65.099c0-23.21,5.774-44.819,17.322-64.826c11.543-20.001,27.323-35.776,47.319-47.325
		c20.001-11.548,41.669-17.323,65.01-17.323c35.532,0,64.118,10.501,85.756,31.496c21.639,20.996,32.461,48.623,32.461,82.875
		C423.399,243.999,416.065,264.614,401.397,280.497z"/>
</g>
</svg>
