<?xml version="1.0" encoding="utf-8"?>
<!-- Generator: Adobe Illustrator 16.0.0, SVG Export Plug-In . SVG Version: 6.00 Build 0)  -->
<!DOCTYPE svg PUBLIC "-//W3C//DTD SVG 1.1//EN" "http://www.w3.org/Graphics/SVG/1.1/DTD/svg11.dtd">
<svg version="1.1" id="Calque_1" xmlns="http://www.w3.org/2000/svg" xmlns:xlink="http://www.w3.org/1999/xlink" x="0px" y="0px"
	 width="125px" height="100.144px" viewBox="0 0 125 100.144" enable-background="new 0 0 125 100.144" xml:space="preserve">
<g>
	<rect x="87.561" y="40.851" fill="#010101" width="11.168" height="2.434"/>
	<rect x="87.561" y="45.911" fill="#010101" width="22.336" height="2.434"/>
	<rect x="87.561" y="50.972" fill="#010101" width="22.336" height="2.434"/>
	<rect x="87.561" y="56.032" fill="#010101" width="22.336" height="2.436"/>
	<rect x="87.561" y="25.21" fill="none" stroke="#010101" stroke-miterlimit="10" width="22.336" height="12.941"/>
	<line fill="none" stroke="#010101" stroke-miterlimit="10" x1="87.561" y1="25.21" x2="109.897" y2="38.152"/>
	<line fill="none" stroke="#010101" stroke-miterlimit="10" x1="87.561" y1="38.152" x2="109.897" y2="25.21"/>
	<rect x="87.561" y="14.556" fill="#010101" width="22.336" height="6.471"/>
	<rect x="87.561" y="40.851" fill="none" width="11.168" height="2.434"/>
	<rect x="87.561" y="25.21" fill="none" width="22.336" height="12.941"/>
	<rect x="87.561" y="45.911" fill="none" width="22.336" height="2.434"/>
	<rect x="87.561" y="14.556" fill="none" width="22.336" height="6.471"/>
	<rect x="87.561" y="56.032" fill="none" width="22.336" height="2.436"/>
	<rect x="87.561" y="50.972" fill="none" width="22.336" height="2.434"/>
	<path fill="none" d="M60.073,79.759c0-1.34,1.086-2.426,2.426-2.426C61.157,77.333,60.072,78.419,60.073,79.759
		c-0.001,1.342,1.084,2.426,2.426,2.426C61.159,82.185,60.073,81.098,60.073,79.759z"/>
	<path fill="none" d="M62.499,77.333c1.34,0,2.426,1.086,2.426,2.426s-1.086,2.426-2.426,2.426c1.34,0,2.428-1.083,2.427-2.426
		C64.925,78.419,63.838,77.333,62.499,77.333z"/>
	<circle fill="none" cx="62.499" cy="79.759" r="2.426"/>
	<circle fill="none" cx="62.499" cy="79.759" r="2.426"/>
	<polygon fill="#010101" points="77.781,4.313 4.667,4.313 4.667,70.699 77.78,70.699 78.65,70.699 78.65,4.313 	"/>
	<path fill="#010101" d="M121.187,0.072H63.533h-1.965H3.914c-2.054,0-3.823,1.563-3.823,3.616v71.073v0.247v6.585v0.411
		c0,2.054,1.77,3.78,3.823,3.78h46.178c-0.054,1.178-0.422,6.249-2.831,8.702c-1.898,1.938-4.537,3.749-3.507,4.681
		c0.249,0.574,1.434,0.904,4.126,0.904c5.939,0,12.371,0,14.726,0c0.595,0,0.929,0,0.929,0c2.354,0,8.787,0,14.725,0
		c3.066,0,4.139-0.503,4.149-1.25h-0.104v-0.249h-0.108c-0.137-1.012-2.184-2.505-3.731-4.079c-2.409-2.453-2.776-7.522-2.83-8.7
		h45.558c2.055,0,3.719-1.726,3.719-3.782V81.6v-6.585v-0.248V3.689C124.908,1.632,123.243,0.072,121.187,0.072z M62.499,82.185
		c-1.342,0-2.427-1.083-2.427-2.426c0-1.34,1.085-2.426,2.427-2.426c1.34,0,2.427,1.086,2.427,2.426
		C64.926,81.101,63.838,82.185,62.499,82.185z M119.645,69.5H78.553h-0.861H5.355V5.085h72.339h0.859h41.092V69.5z"/>
	<path fill="#C5D92D" d="M51.718,37.409v1.919H20.566v-1.919H51.718z M40.453,36.164H20.566v-1.922h19.887V36.164z M13.741,11.526
		h5.478v1.921h-5.478V11.526z M13.741,14.762h13.652v1.921H13.741V14.762z M13.741,17.998h18.203v1.921H13.741V17.998z
		 M13.741,21.232h13.652v1.921H13.741V21.232z M13.741,24.468h13.652v1.921H13.741V24.468z M13.741,27.703h5.478v1.921h-5.478
		V27.703z M13.741,30.94h9.157v1.92h-9.157V30.94z M13.741,34.242h5.478v1.922h-5.478V34.242z M13.741,37.409h5.478v1.919h-5.478
		V37.409z M13.741,40.645h5.478v1.919h-5.478V40.645z M13.741,47.116h5.478v1.921h-5.478V47.116z M12.426,61.978h-1.66v-1.922h1.66
		V61.978z M12.426,58.742h-1.66v-1.921h1.66V58.742z M12.426,55.507h-1.66v-1.921h1.66V55.507z M12.426,52.273h-1.66v-1.922h1.66
		V52.273z M12.426,49.037h-1.66v-1.921h1.66V49.037z M12.426,45.8h-1.66v-1.922h1.66V45.8z M12.426,42.564h-1.66v-1.919h1.66V42.564
		z M12.426,39.328h-1.66v-1.919h1.66V39.328z M12.426,36.095h-1.66v-1.923h1.66V36.095z M12.426,32.86h-1.66v-1.92h1.66V32.86z
		 M12.426,29.624h-1.66v-1.921h1.66V29.624z M12.426,26.389h-1.66v-1.921h1.66V26.389z M12.426,23.153h-1.66v-1.921h1.66V23.153z
		 M12.426,19.918h-1.66v-1.921h1.66V19.918z M12.426,16.683h-1.66v-1.921h1.66V16.683z M12.426,13.447h-1.66v-1.921h1.66V13.447z
		 M22.898,61.978h-9.157v-1.922h9.157V61.978z M24.941,58.742h-11.2v-1.921h11.2V58.742z M36.143,55.507H13.741v-1.921h22.402
		V55.507z M40.453,52.273H13.741v-1.922h26.712V52.273z M57.379,49.037H20.566v-1.921h36.813V49.037L57.379,49.037z M57.379,45.8
		H13.741v-1.922h43.639V45.8z M64.158,42.564H20.566v-1.919h43.592V42.564z M70.95,42.564h-5.478v-1.919h5.478V42.564z"/>
</g>
</svg>
