<?xml version="1.0" encoding="utf-8"?>
<!-- Generator: Adobe Illustrator 18.1.1, SVG Export Plug-In . SVG Version: 6.00 Build 0)  -->
<svg version="1.1"
	 id="Calque_1" xmlns:dc="http://purl.org/dc/elements/1.1/" xmlns:rdf="http://www.w3.org/1999/02/22-rdf-syntax-ns#" xmlns:cc="http://creativecommons.org/ns#" xmlns:svg="http://www.w3.org/2000/svg" xmlns:inkscape="http://www.inkscape.org/namespaces/inkscape" xmlns:sodipodi="http://sodipodi.sourceforge.net/DTD/sodipodi-0.dtd"
	 xmlns="http://www.w3.org/2000/svg" xmlns:xlink="http://www.w3.org/1999/xlink" x="0px" y="0px" viewBox="273.1 296.5 65.8 45.8"
	 enable-background="new 273.1 296.5 65.8 45.8" xml:space="preserve">
<g>
	<path d="M306,297c-2.7,0-5.3,0.7-7.7,2.1c-0.6,0.3-0.8,1.1-0.5,1.7c0.3,0.6,1.1,0.8,1.7,0.5c0,0,0.1,0,0.1,0c4-2.3,8.9-2.3,12.9,0
		c0.6,0.4,1.4,0.2,1.7-0.4c0.4-0.6,0.2-1.4-0.4-1.7c0,0-0.1,0-0.1,0C311.3,297.7,308.7,297,306,297z M306,301c-2,0-3.9,0.5-5.7,1.5
		c-0.6,0.3-0.8,1.1-0.5,1.7c0.3,0.6,1.1,0.8,1.7,0.5c0,0,0.1,0,0.1,0c2.7-1.6,6.1-1.6,8.8,0c0.6,0.4,1.4,0.2,1.7-0.4
		c0.4-0.6,0.2-1.4-0.4-1.7c0,0-0.1,0-0.1,0C309.9,301.5,308,301,306,301z M306,305.1c-1.3,0-2.5,0.3-3.7,1c-0.6,0.3-0.8,1.1-0.5,1.7
		c0.3,0.6,1.1,0.8,1.7,0.5c0,0,0.1,0,0.1,0c1.5-0.9,3.3-0.9,4.8,0c0.6,0.4,1.4,0.2,1.7-0.4c0.4-0.6,0.2-1.4-0.4-1.7c0,0-0.1,0-0.1,0
		C308.5,305.4,307.3,305.1,306,305.1z M288.8,310.9c-8.4,0-15.3,6.9-15.3,15.4c0,8.5,6.9,15.4,15.3,15.4c6.2,0,11.6-3.8,14-9.5h6.4
		c2.4,5.6,7.8,9.4,14,9.5c8.4,0,15.3-6.9,15.3-15.4c0-8.5-6.9-15.4-15.3-15.4c0,0,0,0,0,0c-0.2,0-0.4,0-0.5,0c-0.1,0-0.2,0-0.2,0
		h-32.8c-0.1,0-0.2,0-0.3,0C289.2,310.9,289,310.9,288.8,310.9C288.8,310.9,288.8,310.9,288.8,310.9L288.8,310.9z M288.8,313.4
		L288.8,313.4c0.2,0,0.5,0,0.7,0c0.1,0,0.3,0,0.4,0h32.2c0.1,0,0.2,0,0.4,0c0.2,0,0.5,0,0.7,0c7.1,0,12.8,5.8,12.8,12.9
		c0,7.2-5.7,12.9-12.8,12.9c-5.4,0-10.2-3.4-12.1-8.6c-0.2-0.5-0.7-0.8-1.2-0.8h-7.9c-0.5,0-1,0.3-1.2,0.8
		c-1.8,5.2-6.6,8.6-12.1,8.6c-7.1,0-12.8-5.8-12.8-12.9C276,319.1,281.7,313.4,288.8,313.4L288.8,313.4z M323.3,316.2
		c-2.1,0-3.8,1.7-3.8,3.8c0,2.1,1.7,3.8,3.8,3.8c2.1,0,3.8-1.7,3.8-3.8C327,317.9,325.3,316.2,323.3,316.2z M288,318.7
		c-0.7,0-1.2,0.6-1.2,1.3v5h-5c-0.7,0-1.3,0.5-1.3,1.2s0.5,1.3,1.2,1.3c0,0,0,0,0,0h5v5c0,0.7,0.5,1.3,1.2,1.3s1.3-0.5,1.3-1.2
		c0,0,0,0,0,0v-5h5c0.7,0,1.3-0.5,1.3-1.2c0-0.7-0.5-1.3-1.2-1.3c0,0,0,0,0,0h-5v-5C289.3,319.3,288.7,318.7,288,318.7
		C288,318.7,288,318.7,288,318.7z M323.3,318.7c0.7,0,1.3,0.5,1.3,1.3c0,0.7-0.6,1.3-1.3,1.3c-0.7,0-1.3-0.6-1.3-1.3
		C322,319.3,322.6,318.7,323.3,318.7z M317,322.5c-2.1,0-3.8,1.7-3.8,3.8c0,2.1,1.7,3.8,3.8,3.8s3.8-1.7,3.8-3.8
		C320.8,324.2,319.1,322.5,317,322.5z M329.5,322.5c-2.1,0-3.8,1.7-3.8,3.8c0,2.1,1.7,3.8,3.8,3.8c2.1,0,3.8-1.7,3.8-3.8
		C333.3,324.2,331.6,322.5,329.5,322.5z M317,325c0.7,0,1.3,0.6,1.3,1.3c0,0.7-0.6,1.3-1.3,1.3s-1.3-0.6-1.3-1.3
		C315.8,325.6,316.3,325,317,325z M329.5,325c0.7,0,1.3,0.6,1.3,1.3c0,0.7-0.6,1.3-1.3,1.3s-1.3-0.6-1.3-1.3
		C328.3,325.6,328.8,325,329.5,325z M323.3,328.8c-2.1,0-3.8,1.7-3.8,3.8c0,2.1,1.7,3.8,3.8,3.8c2.1,0,3.8-1.7,3.8-3.8
		C327,330.5,325.3,328.8,323.3,328.8z M323.3,331.3c0.7,0,1.3,0.6,1.3,1.3c0,0.7-0.6,1.3-1.3,1.3c-0.7,0-1.3-0.6-1.3-1.3
		C322,331.9,322.6,331.3,323.3,331.3z"/>
</g>
</svg>
