<?xml version="1.0" encoding="utf-8"?>
<!-- Generator: Adobe Illustrator 16.0.0, SVG Export Plug-In . SVG Version: 6.00 Build 0)  -->
<!DOCTYPE svg PUBLIC "-//W3C//DTD SVG 1.1//EN" "http://www.w3.org/Graphics/SVG/1.1/DTD/svg11.dtd">
<svg version="1.1" id="Calque_1" xmlns="http://www.w3.org/2000/svg" xmlns:xlink="http://www.w3.org/1999/xlink" x="0px" y="0px"
	 width="80.604px" height="82.542px" viewBox="172.348 254.653 80.604 82.542"
	 enable-background="new 172.348 254.653 80.604 82.542" xml:space="preserve">
<g>
	<path fill="none" d="M213.931,270.662c0.298-0.007,0.59-0.012,0.877-0.012C214.521,270.65,214.229,270.655,213.931,270.662
		c-1.731,0.619-3.517,0.824-5.151,0.816C210.416,271.486,212.201,271.28,213.931,270.662z"/>
	<path fill="none" d="M194.171,277.797c0.08-0.773,1.053-7.163,6.896-7.428C195.223,270.634,194.25,277.024,194.171,277.797
		c-0.003,0.02-0.004,0.039-0.005,0.059c0,0,0,0,0.001,0C194.168,277.836,194.169,277.817,194.171,277.797z"/>
	<path fill="none" d="M220.543,270.666c-0.001,0-0.001-0.001-0.002-0.001c-0.026,0.508,0.55,1.284,0.612,2.039
		c0.001,0,0.001,0,0.002,0.001C221.093,271.95,220.515,271.175,220.543,270.666z"/>
	<path fill="none" d="M193.929,285.054c0.223,0.222,0.451,0.358,0.674,0.391c-0.224-0.033-0.452-0.17-0.672-0.391
		c-0.597-0.597-1.142-1.803-1.399-3.251c-0.018-0.096-0.025-0.188-0.04-0.282c0.014-1.015,0.057-1.996,0.127-2.967
		c0.126-0.373,0.295-0.665,0.511-0.819c0.091-0.066,0.19-0.109,0.295-0.127c0,0,0,0,0,0c-0.105,0.019-0.205,0.061-0.296,0.127
		c-0.216,0.154-0.385,0.446-0.511,0.819c-0.07,0.971-0.113,1.953-0.129,2.967c0.015,0.095,0.022,0.187,0.04,0.282
		C192.788,283.251,193.332,284.458,193.929,285.054z"/>
	<path fill="none" d="M222.454,272.574c0.534,0.891,1.043,2.012,1.512,3.404C223.499,274.586,222.988,273.465,222.454,272.574z"/>
	<path d="M194.823,285.443c-0.072,0.013-0.145,0.013-0.219,0.002c0.074,0.011,0.148,0.011,0.221-0.002
		c0.142-0.023,0.269-0.092,0.385-0.2c0,0,0,0,0-0.001C195.093,285.35,194.965,285.419,194.823,285.443z"/>
	<path d="M222.454,272.574c-0.385-0.639-0.778-1.173-1.179-1.599c-0.229-0.125-0.468-0.236-0.732-0.311c0,0,0,0,0,0.001
		c0.265,0.075,0.505,0.185,0.73,0.31C221.676,271.401,222.07,271.935,222.454,272.574z"/>
	<path d="M221.153,272.705L221.153,272.705c-1.643-0.766-3.212-1.956-5.509-2.041c-0.27-0.011-0.549-0.015-0.836-0.015
		c0.286,0,0.566,0.004,0.835,0.015C217.94,270.75,219.51,271.94,221.153,272.705z"/>
	<path d="M194.166,277.856c-0.247-0.198-0.499-0.291-0.74-0.249l0,0C193.666,277.566,193.918,277.658,194.166,277.856
		L194.166,277.856z"/>
	<path d="M208.78,271.478c-3.599-0.019-6.478-1.076-6.478-1.076c-0.434-0.041-0.845-0.05-1.235-0.032
		c0.39-0.018,0.8-0.008,1.234,0.032C202.302,270.402,205.18,271.459,208.78,271.478z"/>
	<g>
		<path fill="none" d="M247.698,321.99l-0.041-0.291c-0.069-0.477-0.221-0.93-0.367-1.368c-0.058-0.171-0.114-0.343-0.167-0.514
			l-0.098-0.321l-0.334,0.025c-0.445,0.034-0.904,0.091-1.365,0.169l-0.209-0.38c-0.084-0.171-0.197-0.31-0.305-0.431
			c0.249-0.365,0.482-0.747,0.699-1.135l0.138-0.248l-0.18-0.22c-0.306-0.375-0.676-0.664-1.036-0.945
			c-0.15-0.117-0.301-0.234-0.444-0.358l-0.252-0.217l-0.267,0.197c-0.341,0.251-0.695,0.544-1.058,0.874l-0.364-0.194
			c-0.172-0.115-0.348-0.174-0.511-0.22c0.011-0.433-0.001-0.878-0.033-1.324l-0.02-0.269l-0.251-0.092
			c-0.468-0.174-0.939-0.209-1.396-0.244c-0.193-0.015-0.387-0.029-0.579-0.056l-0.325-0.045l-0.12,0.306
			c-0.155,0.4-0.296,0.834-0.415,1.293l-0.444,0.045c-0.147,0.009-0.327,0.025-0.518,0.067c-0.225-0.363-0.474-0.728-0.744-1.084
			l-0.165-0.22l-0.266,0.065c-0.626,0.152-1.168,0.451-1.693,0.74l-0.419,0.229l0.067,0.305c0.083,0.378,0.188,0.818,0.345,1.293
			l-0.483,0.396c-0.082,0.066-0.17,0.138-0.256,0.218c-0.39-0.186-0.798-0.357-1.22-0.513l-0.26-0.097l-0.188,0.202
			c-0.464,0.493-0.771,1.053-1.099,1.679l-0.143,0.272l0.219,0.218c0.337,0.335,0.662,0.631,0.99,0.902l-0.146,0.47
			c-0.019,0.07-0.043,0.142-0.066,0.211c-0.025,0.073-0.053,0.149-0.074,0.231c-0.433,0.055-0.869,0.128-1.3,0.222l-0.279,0.061
			l-0.044,0.282c-0.104,0.671-0.104,1.35,0,2.018l0.044,0.28l0.277,0.061c0.417,0.093,0.853,0.168,1.302,0.224
			c0.021,0.082,0.049,0.158,0.073,0.23c0.023,0.07,0.05,0.142,0.074,0.239l0.141,0.443c-0.33,0.27-0.655,0.568-0.991,0.901
			l-0.219,0.218l0.143,0.272c0.33,0.631,0.639,1.191,1.101,1.68l0.188,0.201l0.26-0.096c0.417-0.153,0.826-0.325,1.219-0.512
			c0.089,0.083,0.182,0.156,0.266,0.224l0.474,0.388c-0.129,0.391-0.237,0.802-0.346,1.293l-0.067,0.305l0.408,0.224
			c0.529,0.292,1.076,0.592,1.706,0.747l0.266,0.065l0.165-0.221c0.267-0.354,0.516-0.718,0.743-1.084
			c0.19,0.042,0.365,0.058,0.504,0.064l0.458,0.047c0.12,0.461,0.26,0.894,0.418,1.294l0.119,0.306l0.325-0.045
			c0.191-0.025,0.386-0.041,0.58-0.056c0.455-0.034,0.927-0.07,1.394-0.244l0.251-0.094l0.02-0.267
			c0.032-0.443,0.043-0.887,0.032-1.324c0.162-0.046,0.335-0.102,0.476-0.197l0.4-0.216c0.358,0.328,0.714,0.621,1.059,0.874
			l0.266,0.196l0.252-0.215c0.141-0.121,0.288-0.235,0.435-0.35c0.361-0.283,0.734-0.576,1.044-0.954l0.18-0.22l-0.138-0.248
			c-0.218-0.392-0.451-0.773-0.698-1.135c0.106-0.122,0.22-0.259,0.296-0.417l0.217-0.393c0.462,0.079,0.92,0.135,1.367,0.169
			l0.335,0.024l0.097-0.322c0.053-0.174,0.109-0.349,0.169-0.523c0.144-0.435,0.294-0.884,0.363-1.358l0.041-0.291l-0.257-0.139
			c-0.399-0.213-0.81-0.41-1.222-0.583l0.049-0.479l-0.049-0.476c0.409-0.174,0.818-0.37,1.221-0.584L247.698,321.99z
			 M243.023,325.753c-0.611,0.852-1.305,1.45-2.038,1.769c-0.728,0.272-1.722,0.591-2.703,0.379
			c-0.706-0.11-1.704-0.392-2.462-1.114c-0.526-0.458-1.206-1.219-1.461-2.268c-0.279-0.858-0.279-1.802,0.009-2.69
			c0.247-1.02,0.926-1.78,1.467-2.25c0.747-0.71,1.744-0.991,2.471-1.107c0.204-0.044,0.421-0.065,0.642-0.065
			c0.742,0,1.478,0.241,2.017,0.443c0.754,0.328,1.448,0.925,2.05,1.761c0.445,0.681,0.699,1.534,0.773,2.55
			C243.714,324.232,243.461,325.085,243.023,325.753z"/>
		<path fill="none" d="M193.929,285.054c0.223,0.222,0.451,0.358,0.674,0.391c0.074,0.011,0.148,0.011,0.221-0.002
			c0.142-0.023,0.269-0.092,0.385-0.2c1.423,4.427,4.149,8.836,7.59,11.469c1.981,1.518,4.2,2.446,6.542,2.446c0,0,0,0,0.001,0
			c0.3,0,0.597-0.017,0.891-0.045c0.265-0.026,0.528-0.065,0.79-0.115c0.397-0.075,0.789-0.184,1.176-0.308
			c0.063-0.02,0.128-0.039,0.191-0.061c0.372-0.128,0.737-0.28,1.099-0.45c0.074-0.035,0.147-0.07,0.222-0.107
			c0.359-0.179,0.713-0.375,1.061-0.592c0.06-0.036,0.116-0.075,0.174-0.113c0.364-0.234,0.723-0.484,1.073-0.757
			c0.844-0.661,1.646-1.429,2.394-2.276c0.28-0.318,0.554-0.648,0.818-0.987c1.857-2.375,3.327-5.237,4.249-8.104h0.001
			c0.115,0.108,0.243,0.179,0.386,0.201c0,0,0.001,0,0.002,0c0.248,0.043,0.51-0.058,0.77-0.274c0.105-0.09,0.21-0.206,0.313-0.333
			c0.419-0.519,0.795-1.328,1.047-2.298c0.062-0.238,0.118-0.481,0.163-0.736c0.36-2.018,0.034-3.786-0.721-4.142
			c-0.058-0.025-0.112-0.043-0.175-0.054c-0.229-0.041-0.477,0.045-0.716,0.234l-0.016,0.015l-0.001,0.001
			c0-0.001-0.001-0.002-0.001-0.003c-0.001,0-0.001,0-0.001-0.001c-0.003,0.002-0.005,0.003-0.006,0.004
			c-0.001,0-0.002,0.001-0.002,0.001c-0.002-0.015-0.002-0.029-0.004-0.044c-0.175-0.666-0.361-1.267-0.551-1.835
			c-0.468-1.392-0.978-2.514-1.512-3.404c-0.385-0.639-0.779-1.173-1.179-1.599c-0.229-0.125-0.468-0.236-0.732-0.311
			c0,0,0,0,0,0.001c-0.001,0-0.001-0.001-0.002-0.001c-0.026,0.508,0.55,1.284,0.612,2.039c-1.643-0.765-3.212-1.954-5.509-2.039
			c-0.27-0.011-0.549-0.015-0.836-0.015s-0.58,0.005-0.878,0.012c-1.73,0.619-3.516,0.824-5.15,0.816
			c-3.599-0.019-6.478-1.076-6.478-1.076c-0.435-0.041-0.845-0.05-1.235-0.032c-5.844,0.265-6.818,6.654-6.896,7.428
			c-0.002,0.02-0.003,0.039-0.004,0.059c0,0,0,0-0.001,0c-0.247-0.198-0.499-0.291-0.739-0.249c0,0,0,0-0.001,0
			c-0.105,0.019-0.205,0.061-0.296,0.127c-0.216,0.154-0.385,0.446-0.511,0.819c-0.07,0.971-0.113,1.953-0.129,2.967
			c0.015,0.095,0.022,0.187,0.04,0.282C192.788,283.251,193.332,284.458,193.929,285.054z"/>
		<path d="M238.895,307.577c0.663,0,1.313,0.056,1.954,0.138c-3.517-3.925-7.06-4.225-8.125-4.475
			c-3.29-0.77-7.277-0.442-9.402-1.104c-0.25,2.086-6.316,8.945-10.291,13.245l-1.724-6.643c1.296-0.761,1.578-2.447,1.578-3.849
			h-6.533c0,1.391,0.279,3.059,1.549,3.831l-1.695,6.66c-3.977-4.3-10.04-11.161-10.29-13.244c-2.126,0.665-6.11,0.336-9.401,1.106
			c-1.672,0.387-9.438,0.884-13.641,15.348c-0.569,1.966-0.369,4.094,0.558,5.846c3.445,6.51,21.552,8.513,36.189,8.512
			c5.308,0.001,11.069-0.264,16.425-0.911c-1.739-2.516-2.764-5.563-2.764-8.847C223.282,314.581,230.287,307.577,238.895,307.577z"
			/>
		<path d="M192.325,286.742c1.549,4.167,4,8.213,7.032,11.175c1.715,1.677,3.616,3.003,5.644,3.808
			c1.395,0.552,2.848,0.858,4.342,0.858c1.492,0,2.948-0.305,4.341-0.858c2.097-0.833,4.064-2.222,5.824-3.984
			c2.958-2.953,5.347-6.937,6.867-11.032c1.168-0.344,2.391-2.531,2.89-5.326c0.542-3.032,0.029-5.676-1.139-6.117
			c0.042-0.74,0.068-1.488,0.066-2.256c-0.027-10.989-6.472-17.379-16.631-18.059c-8.858-0.594-15.532,2.924-18.571,8.775
			c-1.023,1.968-1.607,4.43-1.831,7.106c-0.34,1.393-0.542,2.84-0.542,4.336h0.033c-0.001,0.013-0.003,0.023-0.003,0.035
			c-0.021,0.003-0.043,0.004-0.065,0.008c-1.295,0.226-1.885,2.99-1.317,6.174C189.786,284.309,191.106,286.572,192.325,286.742z
			 M192.618,278.554c0.126-0.373,0.295-0.665,0.511-0.819c0.091-0.066,0.19-0.109,0.296-0.127c0,0,0,0,0,0
			c0.241-0.042,0.493,0.05,0.74,0.249h0c0.001-0.02,0.002-0.039,0.004-0.059c0.08-0.773,1.053-7.163,6.897-7.428
			c0.39-0.018,0.802-0.008,1.235,0.032c0,0,2.879,1.058,6.478,1.076c1.636,0.008,3.42-0.198,5.15-0.816
			c0.299-0.007,0.591-0.012,0.878-0.012s0.566,0.004,0.836,0.015c2.297,0.085,3.866,1.274,5.509,2.039
			c-0.062-0.755-0.639-1.531-0.612-2.039c0.001,0,0.001,0,0.002,0.001v-0.001c0.265,0.075,0.504,0.186,0.732,0.311
			c0.4,0.426,0.794,0.958,1.179,1.599c0.534,0.891,1.044,2.012,1.512,3.404c0.189,0.569,0.377,1.171,0.551,1.835
			c0.002,0.015,0.002,0.029,0.004,0.044c0,0,0.001-0.001,0.002-0.001c0.001-0.001,0.003-0.002,0.006-0.004c0,0,0,0,0.001,0.001
			c0,0.001,0.001,0.002,0.001,0.003l0.001-0.001l0.016-0.015c0.239-0.188,0.486-0.275,0.715-0.234
			c0.063,0.011,0.118,0.029,0.176,0.054c0.755,0.355,1.081,2.124,0.721,4.142c-0.045,0.254-0.102,0.498-0.163,0.736
			c-0.252,0.97-0.629,1.78-1.047,2.298c-0.103,0.127-0.207,0.243-0.313,0.333c-0.26,0.217-0.521,0.317-0.77,0.274
			c-0.001,0-0.002,0-0.002,0c-0.143-0.022-0.27-0.093-0.386-0.201h-0.001c-0.921,2.867-2.391,5.729-4.249,8.104
			c-0.264,0.34-0.538,0.669-0.818,0.987c-0.748,0.848-1.55,1.616-2.394,2.276c-0.35,0.273-0.709,0.523-1.073,0.757
			c-0.058,0.038-0.114,0.077-0.174,0.113c-0.347,0.218-0.701,0.414-1.061,0.592c-0.073,0.037-0.146,0.072-0.222,0.107
			c-0.361,0.17-0.727,0.322-1.099,0.45c-0.063,0.021-0.128,0.04-0.191,0.061c-0.387,0.125-0.778,0.232-1.176,0.308
			c-0.262,0.05-0.524,0.089-0.79,0.115c-0.294,0.028-0.591,0.045-0.89,0.045c0,0,0,0-0.001,0c-2.343,0-4.562-0.928-6.543-2.446
			c-3.439-2.633-6.167-7.042-7.59-11.469c-0.116,0.108-0.243,0.177-0.385,0.2c-0.073,0.013-0.146,0.014-0.221,0.002
			c-0.224-0.033-0.453-0.17-0.674-0.391c-0.597-0.597-1.142-1.803-1.4-3.251c-0.018-0.096-0.025-0.188-0.04-0.282
			C192.505,280.506,192.548,279.525,192.618,278.554z"/>
		<path fill="none" d="M219.229,293.346c-0.264,0.34-0.538,0.669-0.818,0.987"/>
		<path d="M238.895,309.528c-7.534,0-13.661,6.127-13.661,13.661s6.127,13.661,13.661,13.661c7.532,0,13.66-6.127,13.66-13.661
			S246.427,309.528,238.895,309.528z M246.269,323.188l-0.049,0.479c0.412,0.174,0.822,0.37,1.222,0.583l0.257,0.139l-0.041,0.291
			c-0.068,0.472-0.22,0.922-0.363,1.357c-0.06,0.175-0.116,0.35-0.169,0.524l-0.097,0.322l-0.335-0.024
			c-0.447-0.034-0.906-0.091-1.367-0.17l-0.217,0.394c-0.076,0.158-0.188,0.295-0.296,0.417c0.247,0.362,0.48,0.743,0.698,1.135
			l0.138,0.248l-0.18,0.219c-0.31,0.379-0.683,0.671-1.044,0.955c-0.146,0.115-0.295,0.229-0.435,0.35l-0.252,0.215l-0.266-0.196
			c-0.345-0.252-0.7-0.545-1.059-0.873l-0.4,0.215c-0.142,0.097-0.313,0.151-0.476,0.197c0.011,0.437,0,0.881-0.032,1.324
			l-0.02,0.267l-0.251,0.094c-0.467,0.174-0.938,0.21-1.394,0.244c-0.194,0.015-0.388,0.029-0.58,0.056l-0.325,0.045l-0.119-0.306
			c-0.158-0.4-0.298-0.833-0.418-1.293l-0.458-0.047c-0.139-0.007-0.313-0.022-0.504-0.064c-0.227,0.366-0.476,0.73-0.743,1.084
			l-0.165,0.22l-0.266-0.065c-0.631-0.153-1.177-0.454-1.706-0.747l-0.408-0.224l0.067-0.306c0.108-0.491,0.218-0.901,0.346-1.292
			l-0.474-0.388c-0.085-0.068-0.179-0.143-0.266-0.224c-0.393,0.187-0.802,0.359-1.219,0.512l-0.26,0.096l-0.188-0.201
			c-0.462-0.489-0.771-1.049-1.101-1.679l-0.143-0.272l0.219-0.217c0.336-0.334,0.661-0.63,0.991-0.902l-0.141-0.443
			c-0.024-0.099-0.051-0.169-0.074-0.239c-0.024-0.072-0.052-0.148-0.073-0.23c-0.449-0.057-0.885-0.132-1.302-0.224l-0.277-0.062
			l-0.044-0.28c-0.104-0.668-0.104-1.347,0-2.018l0.044-0.282l0.279-0.061c0.431-0.093,0.867-0.168,1.3-0.223
			c0.021-0.082,0.049-0.158,0.074-0.231c0.023-0.069,0.049-0.141,0.066-0.211l0.146-0.47c-0.328-0.27-0.653-0.567-0.99-0.902
			l-0.219-0.217l0.143-0.272c0.328-0.626,0.635-1.187,1.099-1.679l0.188-0.202l0.26,0.097c0.422,0.155,0.83,0.327,1.22,0.512
			c0.086-0.08,0.174-0.15,0.256-0.218l0.483-0.395c-0.156-0.475-0.262-0.915-0.345-1.292l-0.067-0.306l0.419-0.229
			c0.525-0.29,1.068-0.588,1.693-0.741l0.266-0.065l0.165,0.22c0.27,0.356,0.519,0.721,0.744,1.084
			c0.19-0.042,0.371-0.059,0.518-0.066l0.444-0.045c0.119-0.459,0.26-0.894,0.415-1.293l0.12-0.306l0.325,0.045
			c0.191,0.025,0.386,0.041,0.579,0.056c0.456,0.035,0.928,0.07,1.396,0.244l0.251,0.092l0.02,0.269
			c0.032,0.446,0.044,0.891,0.033,1.324c0.163,0.046,0.34,0.103,0.511,0.219l0.364,0.194c0.362-0.33,0.717-0.623,1.058-0.874
			l0.267-0.197l0.252,0.217c0.144,0.124,0.294,0.241,0.444,0.358c0.359,0.281,0.729,0.571,1.036,0.946l0.18,0.219l-0.138,0.248
			c-0.217,0.388-0.45,0.77-0.699,1.135c0.106,0.121,0.221,0.26,0.305,0.431l0.209,0.38c0.462-0.078,0.92-0.135,1.365-0.169
			l0.334-0.025l0.098,0.321c0.053,0.172,0.109,0.344,0.167,0.513c0.146,0.438,0.298,0.891,0.367,1.368l0.041,0.291l-0.258,0.138
			c-0.402,0.215-0.812,0.411-1.221,0.585L246.269,323.188z"/>
		<path d="M240.965,318.849c-0.54-0.202-1.275-0.443-2.017-0.443c-0.222,0-0.438,0.021-0.642,0.065
			c-0.727,0.116-1.725,0.397-2.471,1.107c-0.541,0.469-1.22,1.23-1.467,2.25c-0.288,0.889-0.288,1.833-0.009,2.691
			c0.255,1.049,0.935,1.809,1.461,2.268c0.758,0.721,1.757,1.003,2.462,1.114c0.981,0.213,1.975-0.106,2.703-0.379
			c0.733-0.319,1.427-0.917,2.038-1.769c0.437-0.667,0.69-1.521,0.764-2.593c-0.074-1.016-0.328-1.869-0.773-2.55
			C242.413,319.774,241.719,319.177,240.965,318.849z"/>
	</g>
</g>
</svg>
