<?xml version="1.0" encoding="utf-8"?>
<!-- Generator: Adobe Illustrator 16.0.0, SVG Export Plug-In . SVG Version: 6.00 Build 0)  -->
<!DOCTYPE svg PUBLIC "-//W3C//DTD SVG 1.1//EN" "http://www.w3.org/Graphics/SVG/1.1/DTD/svg11.dtd">
<svg version="1.1" id="Calque_1" xmlns="http://www.w3.org/2000/svg" xmlns:xlink="http://www.w3.org/1999/xlink" x="0px" y="0px"
	 width="488.013px" height="500.048px" viewBox="0 0 488.013 500.048" enable-background="new 0 0 488.013 500.048"
	 xml:space="preserve">
<g>
	<path fill="none" d="M131.817,139.775c0.494-4.72,6.429-43.699,42.068-45.313C138.24,96.07,132.305,135.055,131.817,139.775
		c-0.012,0.119-0.023,0.238-0.023,0.357c0,0,0,0,0.006,0C131.8,140.013,131.811,139.894,131.817,139.775z"/>
	<path fill="none" d="M252.361,96.248c1.815-0.042,3.596-0.065,5.34-0.071C255.963,96.183,254.171,96.207,252.361,96.248
		c-10.561,3.768-21.454,5.03-31.431,4.977C230.92,101.278,241.801,100.016,252.361,96.248z"/>
	<path fill="none" d="M321.486,138.608c-1.43-0.25-2.918,0.28-4.387,1.429l-0.078,0.095l0.084-0.095
		C318.573,138.888,320.062,138.358,321.486,138.608z"/>
	<path fill="none" d="M138.157,185.201L138.157,185.201c8.679,27.008,25.312,53.909,46.301,69.958
		c12.09,9.274,25.621,14.936,39.907,14.936l0,0c-14.286,0-27.811-5.661-39.907-14.936
		C163.474,239.109,146.843,212.203,138.157,185.201z"/>
	<path fill="none" d="M310.603,185.207c0.697,0.655,1.477,1.077,2.346,1.22h0.006C312.091,186.284,311.3,185.856,310.603,185.207
		C310.603,185.201,310.603,185.201,310.603,185.207z"/>
	<path fill="none" d="M296.418,108.713c-0.375-4.607-3.906-9.334-3.733-12.453C292.507,99.379,296.043,104.106,296.418,108.713z"/>
	<path fill="none" d="M130.346,184.046c1.352,1.351,2.745,2.19,4.107,2.393C133.092,186.237,131.704,185.397,130.346,184.046
		c-3.637-3.631-6.958-11.001-8.53-19.835c-0.106-0.583-0.16-1.143-0.244-1.721c0.096-6.185,0.357-12.173,0.78-18.102
		c0.768-2.274,1.798-4.054,3.119-4.995c0.554-0.399,1.155-0.667,1.804-0.78c0,0,0,0-0.006,0c-0.648,0.113-1.25,0.381-1.804,0.78
		c-1.321,0.94-2.352,2.721-3.119,4.995c-0.423,5.929-0.685,11.917-0.786,18.102c0.084,0.578,0.137,1.137,0.244,1.721
		C123.383,173.045,126.704,180.415,130.346,184.046z"/>
	<path fill="none" d="M122.352,144.389c-0.423,5.929-0.685,11.917-0.78,18.102c0.084,0.578,0.138,1.137,0.244,1.721
		c1.572,8.834,4.894,16.204,8.537,19.835c1.351,1.351,2.738,2.19,4.101,2.393c0.453,0.065,0.899,0.065,1.346-0.012
		c0.863-0.143,1.644-0.571,2.352-1.227l0,0c0,0,0,0,0.006,0c8.686,27.002,25.317,53.909,46.307,69.958
		c12.091,9.274,25.621,14.936,39.908,14.936c14.607,0,28.424-5.929,40.711-15.537c20.608-16.132,36.942-42.7,45.514-69.356
		c0,0,0.018,0,0.018,0.006c0,0,0,0,0-0.006c0.691,0.655,1.488,1.083,2.357,1.227c1.549,0.262,3.127-0.351,4.703-1.673
		c2.947-2.488,5.775-7.482,7.697-13.811c0.637-2.107,1.191-4.363,1.613-6.721c0.273-1.536,0.471-3.054,0.619-4.53
		c0.291-2.953,0.34-5.756,0.154-8.298c-0.451-6.357-2.32-11.084-5.215-12.453c-0.338-0.155-0.678-0.262-1.059-0.333
		c-1.418-0.25-2.906,0.28-4.375,1.429l-0.09,0.095c0-0.006-0.012-0.012-0.012-0.024c-0.023,0.018-0.035,0.024-0.049,0.036
		c-0.012-0.083-0.012-0.172-0.023-0.262c-5.564-21.109-12.566-34.026-19.786-41.723c-1.387-0.756-2.852-1.435-4.465-1.899
		c-0.166,3.119,3.352,7.846,3.733,12.453c-1.256-0.583-2.5-1.208-3.745-1.863c-8.757-4.53-17.614-10.144-29.877-10.596
		c-1.631-0.06-3.352-0.083-5.084-0.083c-1.744,0-3.548,0.03-5.346,0.071c-10.554,3.768-21.454,5.03-31.431,4.977
		c-21.953-0.113-39.515-6.566-39.515-6.566c-2.643-0.25-5.155-0.304-7.53-0.196c-35.646,1.613-41.58,40.592-42.068,45.313
		c-0.006,0.119-0.018,0.238-0.018,0.357H131.8c0,0,0,0-0.006,0c0,0,0,0-0.006,0c-1.507-1.214-3.042-1.78-4.507-1.518
		c-0.648,0.113-1.25,0.381-1.804,0.78C124.15,140.334,123.12,142.115,122.352,144.389z"/>
	<path d="M404.675,321.467c4.061,0,8.025,0.34,11.936,0.84c-21.453-23.937-43.057-25.776-49.568-27.3
		c-20.078-4.697-44.391-2.697-57.355-6.745c-2.273,18.983-38.818,34.092-83.589,34.092c-44.765,0-81.321-15.102-83.595-34.092
		c-12.966,4.06-37.276,2.048-57.355,6.745c-10.191,2.381-57.575,5.423-83.208,93.632c-3.471,11.988-2.25,25.001,3.404,35.673
		c21.002,39.717,131.462,51.951,220.754,51.934c32.371,0.006,67.534-1.613,100.197-5.555c-10.607-15.357-16.863-33.943-16.863-53.98
		C309.431,364.195,352.159,321.467,404.675,321.467z"/>
	<path d="M120.572,194.362c9.447,25.418,24.401,50.105,42.896,68.16c10.465,10.233,22.061,18.334,34.431,23.228
		c8.501,3.37,17.376,5.245,26.496,5.245c9.107,0,17.983-1.863,26.489-5.245c12.793-5.072,24.782-13.554,35.526-24.299
		c18.038-18.019,32.622-42.318,41.891-67.302c7.119-2.102,14.59-15.441,17.631-32.484c3.311-18.495,0.18-34.627-6.953-37.324
		c0.256-4.512,0.424-9.078,0.412-13.769C339.224,43.53,299.917,4.551,237.926,0.396c-54.033-3.619-94.75,17.841-113.281,53.54
		c-6.238,12.007-9.799,27.026-11.168,43.342c-2.083,8.495-3.304,17.329-3.304,26.46h0.203c-0.007,0.071-0.013,0.137-0.013,0.214
		c-0.131,0.012-0.268,0.018-0.393,0.047c-7.905,1.375-11.507,18.24-8.036,37.664C105.101,179.522,113.149,193.327,120.572,194.362z
		 M122.346,144.389c0.768-2.274,1.798-4.054,3.119-4.995c0.554-0.399,1.155-0.667,1.804-0.78c0,0,0,0,0.006,0l0,0
		c1.471-0.262,3.006,0.304,4.513,1.518h0.006c0-0.119,0.012-0.238,0.018-0.357c0.494-4.72,6.429-43.705,42.074-45.313
		c2.375-0.107,4.888-0.048,7.536,0.196c0,0,17.555,6.453,39.509,6.566c9.989,0.054,20.87-1.208,31.425-4.977
		c1.815-0.042,3.602-0.065,5.346-0.071c1.756,0,3.465,0.024,5.096,0.083c12.251,0.452,21.114,6.072,29.865,10.596
		c1.256,0.649,2.5,1.274,3.756,1.863c-0.375-4.607-3.917-9.334-3.733-12.453c1.613,0.464,3.072,1.143,4.465,1.899
		c7.22,7.697,14.233,20.615,19.786,41.723c0.012,0.089,0.012,0.179,0.023,0.262c0.014-0.012,0.025-0.018,0.049-0.036
		c0,0.012,0.012,0.018,0.012,0.024l0.078-0.095c1.469-1.149,2.957-1.679,4.387-1.429c0.375,0.071,0.721,0.179,1.059,0.333
		c2.895,1.369,4.758,6.096,5.209,12.453c0.174,2.542,0.125,5.346-0.16,8.298c-0.137,1.476-0.357,2.988-0.625,4.53
		c-0.404,2.357-0.959,4.614-1.613,6.721c-1.936,6.328-4.75,11.316-7.691,13.811c-1.578,1.322-3.172,1.941-4.709,1.673l0,0h-0.006
		c-0.869-0.143-1.631-0.565-2.346-1.22c-8.578,26.657-24.906,53.218-45.514,69.35c-12.287,9.608-26.109,15.537-40.717,15.537l0,0
		l0,0c-14.287,0-27.818-5.661-39.908-14.941c-20.989-16.043-37.615-42.949-46.307-69.951c-0.708,0.655-1.488,1.083-2.346,1.226
		c-0.446,0.078-0.893,0.083-1.351,0.012c-1.363-0.202-2.763-1.042-4.107-2.393c-3.644-3.631-6.965-11.001-8.543-19.835
		c-0.106-0.583-0.16-1.143-0.244-1.72C121.662,156.306,121.924,150.317,122.346,144.389z"/>
	<path d="M265.083,254.557c-12.281,9.608-26.109,15.537-40.711,15.537l0,0C238.979,270.094,252.796,264.165,265.083,254.557
		c20.62-16.132,36.942-42.693,45.52-69.35c-0.012,0-0.012,0-0.012-0.006C302.025,211.857,285.691,238.425,265.083,254.557z"/>
	<path d="M317.657,184.754c-1.578,1.322-3.166,1.935-4.703,1.673l0,0C314.491,186.695,316.085,186.076,317.657,184.754
		c2.947-2.488,5.762-7.482,7.697-13.811C323.419,177.272,320.605,182.266,317.657,184.754z"/>
	<path d="M135.8,186.427c-0.44,0.077-0.893,0.077-1.346,0.012C134.913,186.511,135.359,186.504,135.8,186.427
		c0.869-0.143,1.644-0.571,2.352-1.227l0,0C137.443,185.856,136.663,186.284,135.8,186.427z"/>
	<path d="M220.93,101.225c-21.954-0.113-39.509-6.566-39.509-6.566c-2.648-0.25-5.155-0.304-7.536-0.196
		c2.375-0.107,4.882-0.048,7.53,0.196C181.416,94.659,198.976,101.112,220.93,101.225z"/>
	<path d="M131.788,140.132c-1.507-1.214-3.042-1.78-4.513-1.518l0,0C128.74,138.353,130.275,138.918,131.788,140.132
		L131.788,140.132z"/>
	<path d="M292.679,106.856c-8.75-4.53-17.614-10.144-29.865-10.596c-1.643-0.06-3.352-0.083-5.096-0.083
		c1.744,0,3.453,0.024,5.09,0.083C275.065,96.712,283.929,102.332,292.679,106.856z"/>
	<path d="M327.753,151.395c-0.451-6.357-2.314-11.084-5.209-12.453c-0.338-0.155-0.678-0.262-1.059-0.333
		c0.375,0.071,0.721,0.179,1.053,0.333C325.433,140.311,327.302,145.038,327.753,151.395z"/>
	<path d="M327.593,159.693c0.303-2.953,0.352-5.756,0.16-8.298C327.927,153.937,327.896,156.741,327.593,159.693z"/>
	<path d="M404.675,333.373c-45.961,0-83.338,37.377-83.338,83.337c0,45.963,37.377,83.34,83.338,83.34
		c45.951,0,83.34-37.377,83.34-83.34C488.015,370.75,450.626,333.373,404.675,333.373z M416.206,470.287h-23.197V395.65H416.2
		v74.637H416.206z M404.443,386.482c-7.309,0-12.209-5.189-12.053-11.607c-0.156-6.703,4.744-11.738,12.215-11.738
		c7.488,0,12.221,5.035,12.369,11.738C416.974,381.293,412.093,386.482,404.443,386.482z"/>
</g>
</svg>
