<?xml version="1.0" encoding="utf-8"?>
<!-- Generator: Adobe Illustrator 16.0.0, SVG Export Plug-In . SVG Version: 6.00 Build 0)  -->
<!DOCTYPE svg PUBLIC "-//W3C//DTD SVG 1.1//EN" "http://www.w3.org/Graphics/SVG/1.1/DTD/svg11.dtd">
<svg version="1.1" id="Calque_1" xmlns="http://www.w3.org/2000/svg" xmlns:xlink="http://www.w3.org/1999/xlink" x="0px" y="0px"
	 width="119.48px" height="100.152px" viewBox="0 0 119.48 100.152" enable-background="new 0 0 119.48 100.152"
	 xml:space="preserve">
<g>
	<rect x="37.174" y="34.725" fill="#C5D92D" width="41.179" height="13.28"/>
	<rect x="42.319" y="53.411" fill="#C5D92D" width="12.838" height="32.253"/>
	<rect x="60.097" y="53.411" fill="#C5D92D" width="18.651" height="4.231"/>
	<rect x="60.097" y="60.869" fill="#C5D92D" width="18.651" height="4.232"/>
	<rect x="60.097" y="68.327" fill="#C5D92D" width="18.651" height="4.232"/>
	<rect x="60.097" y="75.785" fill="#C5D92D" width="18.651" height="4.232"/>
	<rect x="7.93" y="10.362" fill="#C5D92D" width="103.621" height="13.235"/>
	<rect x="10.18" y="28.762" fill="#C5D92D" width="19.69" height="15.547"/>
	<rect x="27.993" y="28.762" fill="#C5D92D" width="6.563" height="3.766"/>
	<rect x="10.18" y="42.426" fill="#C5D92D" width="6.105" height="19.933"/>
	<rect x="65.007" y="28.762" fill="#C5D92D" width="44.211" height="3.545"/>
	<rect x="85.712" y="36.193" fill="#C5D92D" width="23.506" height="4.219"/>
	<rect x="85.712" y="43.626" fill="#C5D92D" width="23.506" height="4.218"/>
	<rect x="85.712" y="51.059" fill="#C5D92D" width="23.506" height="4.218"/>
	<g>
		<path fill="#010101" d="M111.687,0.152H7.792C3.495,0.152,0,3.646,0,7.944v64.935c0,4.297,3.495,7.792,7.792,7.792h1.299v-2.598
			v-2.597V63.788H5.195V7.944c0-1.433,1.164-2.598,2.597-2.598h103.895c1.434,0,2.598,1.165,2.598,2.598v55.844H88.31v11.688v2.597
			v2.598h23.377c4.297,0,7.793-3.495,7.793-7.792V7.944C119.48,3.648,115.984,0.152,111.687,0.152z"/>
		<path fill="#010101" d="M81.9,27.424H33.929c-2.199,0-4.059,1.785-4.059,3.896v10.39h5.194v-9.091h45.455v32.467v11.688v2.598
			v2.598v7.792H48.052v5.195c0,1.992-0.767,3.813-2.01,5.193H81.98c2.137,0,3.732-2.399,3.732-4.545V81.97v-2.598v-2.598V65.086
			V31.32C85.712,29.173,84.001,27.424,81.9,27.424z M58.223,96.582c-1.224,0-2.217-1.068-2.217-2.389s0.995-2.391,2.217-2.391
			c1.225,0,2.218,1.07,2.217,2.391C60.439,95.514,59.447,96.582,58.223,96.582z"/>
		<path fill="#010101" d="M42.856,44.942c-0.734-0.395-1.578-0.634-2.496-0.634h-3.997h-1.299H29.87h-1.299h-1.299H16.882
			c-0.948,0-1.829,0.254-2.596,0.673c-1.543,0.843-2.598,2.412-2.598,4.321v14.486v11.688v2.597v2.598v14.287
			c0,2.857,2.336,5.193,5.193,5.193h13.38h3.667h6.432c1.302,0,2.46-0.501,3.351-1.299c1.065-0.953,1.743-2.339,1.743-3.895v-6.494
			v-1.299v-6.494v-2.598v-2.597V63.789V49.301C45.454,47.362,44.412,45.775,42.856,44.942z M30.115,95.631
			c-0.272,0.388-0.65,0.678-1.092,0.829c-0.212,0.073-0.435,0.124-0.671,0.124c-0.258,0-0.504-0.058-0.734-0.145
			c-0.86-0.328-1.482-1.204-1.482-2.245c0-0.74,0.32-1.396,0.813-1.834c0.101-0.09,0.209-0.17,0.324-0.24
			c0.32-0.194,0.688-0.315,1.08-0.315c0.076,0,0.146,0.018,0.219,0.024c0.45,0.048,0.857,0.237,1.187,0.531
			c0.038,0.032,0.077,0.063,0.112,0.099c0.428,0.437,0.701,1.051,0.699,1.735C30.569,94.734,30.398,95.229,30.115,95.631z
			 M40.26,63.788v11.688v2.597v2.598v6.493v1.299h-5.195H29.87h-1.299h-1.299h-10.39v-7.792v-2.598v-2.597V63.788V49.502h10.39
			h1.299h1.299h5.194h1.299h3.896V63.788z"/>
	</g>
	<rect x="16.883" y="49.502" fill="#C5D92D" width="23.377" height="6.748"/>
	
		<rect x="19.064" y="58.388" transform="matrix(1 -0.0046 0.0046 1 -0.2921 0.1314)" fill="#C5D92D" width="18.986" height="10.955"/>
	<rect x="18.714" y="71.469" fill="#C5D92D" width="19.715" height="1.523"/>
	<rect x="18.714" y="75.174" fill="#C5D92D" width="19.715" height="1.523"/>
	<rect x="18.714" y="78.879" fill="#C5D92D" width="19.715" height="1.523"/>
	<rect x="18.714" y="82.584" fill="#C5D92D" width="19.715" height="1.522"/>
</g>
</svg>
