<?xml version="1.0" encoding="utf-8"?>
<!-- Generator: Adobe Illustrator 16.0.0, SVG Export Plug-In . SVG Version: 6.00 Build 0)  -->
<!DOCTYPE svg PUBLIC "-//W3C//DTD SVG 1.1//EN" "http://www.w3.org/Graphics/SVG/1.1/DTD/svg11.dtd">
<svg version="1.1" id="Calque_1" xmlns="http://www.w3.org/2000/svg" xmlns:xlink="http://www.w3.org/1999/xlink" x="0px" y="0px"
	 width="125px" height="100.144px" viewBox="0 0 125 100.144" enable-background="new 0 0 125 100.144" xml:space="preserve">
<g>
	<g>
		<circle fill="none" cx="62.498" cy="79.758" r="2.427"/>
		<path fill="none" d="M5.353,69.5h114.29V5.085H5.353V69.5z"/>
		<path fill="#FFFFFF" d="M121.185,0.072H63.531h-1.964H3.913c-2.054,0-3.823,1.561-3.823,3.615v71.072v0.246v6.588v0.41
			c0,2.055,1.77,3.781,3.823,3.781h46.179c-0.054,1.176-0.422,6.244-2.831,8.701c-1.899,1.938-4.537,3.75-3.507,4.682
			c0.249,0.572,1.433,0.904,4.125,0.904c5.94,0,12.372,0,14.727,0c0.595,0,0.929,0,0.929,0c2.354,0,8.788,0,14.726,0
			c3.066,0,4.139-0.502,4.149-1.252h-0.105v-0.248h-0.107c-0.137-1.012-2.185-2.506-3.732-4.078
			c-2.409-2.457-2.776-7.525-2.83-8.703h45.559c2.055,0,3.719-1.725,3.719-3.779v-0.414v-6.584v-0.25V3.691
			C124.907,1.632,123.243,0.072,121.185,0.072z M62.498,82.185c-1.342,0-2.427-1.082-2.427-2.426c0-1.342,1.085-2.428,2.427-2.428
			c1.34,0,2.427,1.086,2.427,2.428C64.925,81.103,63.837,82.185,62.498,82.185z M119.645,69.5H5.353V5.085h114.29V69.5H119.645z"/>
	</g>
	<g>
		<g>
			<g>
				<g>
					<path fill="#C5D92D" d="M111.736,21.726l-2.077-0.395c1.145-2.311,2.099-4.453,2.836-6.371l2.112,0.311
						C113.859,17.214,112.892,19.386,111.736,21.726z"/>
				</g>
				<g>
					<path fill="#C5D92D" d="M100.955,21.791l-2-0.525c1.605-2.346,3.204-4.523,4.753-6.473l1.949,0.59
						C104.125,17.31,102.544,19.464,100.955,21.791z"/>
				</g>
				<g>
					<path fill="#C5D92D" d="M105.657,15.382l-1.949-0.59c2.184-2.748,4.226-4.98,5.911-6.455c2.136-1.873,3.712-2.566,5.102-2.246
						c1.642,0.379,1.698,1.898,1.565,3.184c-0.155,1.486-0.72,3.502-1.679,5.996l-2.112-0.311c2.183-5.672,1.656-7.219,1.439-7.563
						C113.35,7.589,110.942,8.728,105.657,15.382z"/>
				</g>
				<g>
					<path fill="#C5D92D" d="M97.245,44.212l-1.867-0.684c3.208-3.346,5.442-6.723,9.232-13.023
						c1.899-3.154,3.598-6.242,5.049-9.174l2.077,0.395c-1.464,2.957-3.177,6.068-5.089,9.246
						C102.806,37.351,100.538,40.779,97.245,44.212z"/>
				</g>
			</g>
			<g>
				<path fill="#C5D92D" d="M11.938,13.277H9.767v-0.068c0-1.479,2.009-2.682,4.483-2.682h87.454v1.342H14.25
					c-1.276,0-2.313,0.602-2.313,1.34V13.277z"/>
			</g>
			<g>
				<path fill="#C5D92D" d="M68.782,68.402l2.304-1.418c0.022-0.016,2.342-1.449,3.41-2.621l1.891,0.66
					c-0.359,0.396-0.828,0.807-1.31,1.189c1.782-0.395,4.148-1.043,6.784-2.084l1.169,1.131c-6.116,2.414-10.829,2.846-11.026,2.863
					L68.782,68.402z"/>
			</g>
			<g>
				<path fill="#C5D92D" d="M83.03,65.259l-1.169-1.131c0.333-0.131,0.616-0.248,0.889-0.363c7.729-3.289,9.859-6.947,8.768-15.053
					l-0.009-0.068l0.158-0.867l-6.533-1.502l0.157-0.553c1.091-3.752,5.081-10.646,9.228-17.537c1.433-2.377,2.926-4.705,4.437-6.92
					l2,0.525c-1.499,2.193-2.979,4.502-4.4,6.861c-3.914,6.502-7.684,13.002-8.952,16.76l6.416,1.473l-0.327,1.783
					c1.133,8.539-1.323,12.633-9.71,16.203C83.687,64.996,83.385,65.119,83.03,65.259z"/>
			</g>
			<g>
				<path fill="#C5D92D" d="M76.386,65.023l-1.891-0.66c1.336-1.463,2.048-3.838,2.111-7.061c0.089-4.379,1.343-5.229,4.372-7.277
					c0.391-0.266,0.815-0.553,1.274-0.873l1.625,0.891c-0.469,0.326-0.899,0.617-1.296,0.887c-2.937,1.986-3.727,2.521-3.804,6.389
					C78.711,60.769,77.906,63.361,76.386,65.023z"/>
			</g>
			<g>
				<path fill="#C5D92D" d="M110.583,65.367H91.133v-1.344h19.449c1.2,0,2.172-0.604,2.172-1.342V26.99h2.173v35.691
					C114.927,64.162,112.977,65.367,110.583,65.367z"/>
			</g>
			<g>
				<path fill="#C5D92D" d="M67.294,65.367H14.109c-2.395,0-4.342-1.205-4.342-2.686V16.968h86.216v1.34H11.938v44.373
					c0,0.738,0.975,1.342,2.171,1.342h53.186V65.367z"/>
			</g>
			<g>
				<polygon fill="#C5D92D" points="71.806,44.542 20.632,44.542 42.729,30.888 48.677,34.73 57.069,29.207 69.782,37.023 
					69.782,25.343 23.175,25.343 23.175,39.32 21,39.32 21,24.001 71.955,24.001 71.955,40.25 57.124,31.134 48.69,36.677 
					42.696,32.808 25.875,43.201 71.806,43.201 				"/>
			</g>
			<g>
				<rect x="20.821" y="49.246" fill="#C5D92D" width="51.032" height="1.344"/>
			</g>
			<g>
				<rect x="20.821" y="52.603" fill="#C5D92D" width="51.032" height="1.342"/>
			</g>
			<g>
				<rect x="20.821" y="55.96" fill="#C5D92D" width="29.58" height="1.34"/>
			</g>
		</g>
	</g>
</g>
</svg>
